NotoSansKannada-Bold.ufo
<glyph name="numbersign.knda" format="2">
  <advance width="695"/>
  <unicode hex="0023"/>
  <outline>
    <contour>
      <point x="107" y="0" type="line"/>
      <point x="237" y="0" type="line"/>
      <point x="269" y="182" type="line"/>
      <point x="357" y="182" type="line"/>
      <point x="323" y="0" type="line"/>
      <point x="454" y="0" type="line"/>
      <point x="487" y="182" type="line"/>
      <point x="632" y="182" type="line"/>
      <point x="632" y="302" type="line"/>
      <point x="509" y="302" type="line"/>
      <point x="526" y="388" type="line"/>
      <point x="663" y="388" type="line"/>
      <point x="663" y="511" type="line"/>
      <point x="548" y="511" type="line"/>
      <point x="582" y="690" type="line"/>
      <point x="451" y="690" type="line"/>
      <point x="419" y="511" type="line"/>
      <point x="332" y="511" type="line"/>
      <point x="366" y="690" type="line"/>
      <point x="235" y="690" type="line"/>
      <point x="203" y="511" type="line"/>
      <point x="65" y="511" type="line"/>
      <point x="65" y="388" type="line"/>
      <point x="180" y="388" type="line"/>
      <point x="163" y="302" type="line"/>
      <point x="32" y="302" type="line"/>
      <point x="32" y="182" type="line"/>
      <point x="140" y="182" type="line"/>
    </contour>
    <contour>
      <point x="293" y="302" type="line"/>
      <point x="309" y="388" type="line"/>
      <point x="396" y="388" type="line"/>
      <point x="379" y="302" type="line"/>
    </contour>
  </outline>
</glyph>
<glyph name="percent.knda" format="2">
  <advance width="984"/>
  <unicode hex="0025"/>
  <outline>
    <contour>
      <point x="221" y="0" type="line"/>
      <point x="366" y="0" type="line"/>
      <point x="762" y="690" type="line"/>
      <point x="617" y="690" type="line"/>
    </contour>
    <contour>
      <point x="219" y="276" type="curve" smooth="yes"/>
      <point x="340" y="276"/>
      <point x="405" y="350"/>
      <point x="405" y="489" type="curve" smooth="yes"/>
      <point x="405" y="630"/>
      <point x="335" y="702"/>
      <point x="221" y="702" type="curve" smooth="yes"/>
      <point x="102" y="702"/>
      <point x="37" y="629"/>
      <point x="37" y="490" type="curve" smooth="yes"/>
      <point x="37" y="349"/>
      <point x="110" y="276"/>
    </contour>
    <contour>
      <point x="221" y="394" type="curve" smooth="yes"/>
      <point x="193" y="394"/>
      <point x="184" y="428"/>
      <point x="184" y="489" type="curve" smooth="yes"/>
      <point x="184" y="553"/>
      <point x="193" y="584"/>
      <point x="221" y="584" type="curve" smooth="yes"/>
      <point x="249" y="584"/>
      <point x="258" y="553"/>
      <point x="258" y="489" type="curve" smooth="yes"/>
      <point x="258" y="425"/>
      <point x="249" y="394"/>
    </contour>
    <contour>
      <point x="761" y="-12" type="curve" smooth="yes"/>
      <point x="882" y="-12"/>
      <point x="947" y="62"/>
      <point x="947" y="201" type="curve" smooth="yes"/>
      <point x="947" y="342"/>
      <point x="877" y="414"/>
      <point x="763" y="414" type="curve" smooth="yes"/>
      <point x="644" y="414"/>
      <point x="579" y="341"/>
      <point x="579" y="202" type="curve" smooth="yes"/>
      <point x="579" y="61"/>
      <point x="652" y="-12"/>
    </contour>
    <contour>
      <point x="763" y="106" type="curve" smooth="yes"/>
      <point x="735" y="106"/>
      <point x="726" y="140"/>
      <point x="726" y="201" type="curve" smooth="yes"/>
      <point x="726" y="265"/>
      <point x="735" y="296"/>
      <point x="763" y="296" type="curve" smooth="yes"/>
      <point x="791" y="296"/>
      <point x="800" y="265"/>
      <point x="800" y="201" type="curve" smooth="yes"/>
      <point x="800" y="137"/>
      <point x="791" y="106"/>
    </contour>
  </outline>
</glyph>
<glyph name="quotesingle.knda" format="2">
  <advance width="298"/>
  <unicode hex="0027"/>
  <outline>
    <contour>
      <point x="82" y="536" type="line"/>
      <point x="216" y="536" type="line"/>
      <point x="236" y="793" type="line"/>
      <point x="62" y="793" type="line"/>
    </contour>
  </outline>
</glyph>
<glyph name="parenleft.knda" format="2">
  <advance width="449"/>
  <unicode hex="0028"/>
  <outline>
    <contour>
      <point x="41" y="216" type="curve" smooth="yes"/>
      <point x="41" y="-6"/>
      <point x="107" y="-215"/>
      <point x="229" y="-368" type="curve"/>
      <point x="387" y="-368" type="line"/>
      <point x="279" y="-215"/>
      <point x="209" y="-32"/>
      <point x="209" y="215" type="curve" smooth="yes"/>
      <point x="209" y="470"/>
      <point x="289" y="662"/>
      <point x="386" y="793" type="curve"/>
      <point x="229" y="793" type="line"/>
      <point x="120" y="667"/>
      <point x="41" y="456"/>
    </contour>
  </outline>
</glyph>
<glyph name="parenright.knda" format="2">
  <advance width="449"/>
  <unicode hex="0029"/>
  <outline>
    <contour>
      <point x="408" y="209" type="curve" smooth="yes"/>
      <point x="408" y="431"/>
      <point x="342" y="640"/>
      <point x="220" y="793" type="curve"/>
      <point x="62" y="793" type="line"/>
      <point x="170" y="640"/>
      <point x="240" y="457"/>
      <point x="240" y="210" type="curve" smooth="yes"/>
      <point x="240" y="-45"/>
      <point x="160" y="-237"/>
      <point x="63" y="-368" type="curve"/>
      <point x="220" y="-368" type="line"/>
      <point x="329" y="-242"/>
      <point x="408" y="-31"/>
    </contour>
  </outline>
</glyph>
<glyph name="asterisk.knda" format="2">
  <advance width="564"/>
  <unicode hex="002A"/>
  <outline>
    <contour>
      <point x="356" y="793" type="line"/>
      <point x="208" y="793" type="line"/>
      <point x="227" y="621" type="line"/>
      <point x="57" y="670" type="line"/>
      <point x="35" y="528" type="line"/>
      <point x="188" y="516" type="line"/>
      <point x="87" y="380" type="line"/>
      <point x="220" y="314" type="line"/>
      <point x="280" y="451" type="line"/>
      <point x="350" y="313" type="line"/>
      <point x="477" y="380" type="line"/>
      <point x="376" y="516" type="line"/>
      <point x="529" y="526" type="line"/>
      <point x="511" y="670" type="line"/>
      <point x="337" y="621" type="line"/>
    </contour>
  </outline>
</glyph>
<glyph name="plus.knda" format="2">
  <advance width="572"/>
  <unicode hex="002B"/>
  <outline>
    <contour>
      <point x="220" y="98" type="line"/>
      <point x="351" y="98" type="line"/>
      <point x="351" y="277" type="line"/>
      <point x="533" y="277" type="line"/>
      <point x="533" y="408" type="line"/>
      <point x="351" y="408" type="line"/>
      <point x="351" y="587" type="line"/>
      <point x="220" y="587" type="line"/>
      <point x="220" y="408" type="line"/>
      <point x="38" y="408" type="line"/>
      <point x="38" y="277" type="line"/>
      <point x="220" y="277" type="line"/>
    </contour>
  </outline>
</glyph>
<glyph name="comma.knda" format="2">
  <advance width="347"/>
  <unicode hex="002C"/>
  <outline>
    <contour>
      <point x="277" y="142" type="line"/>
      <point x="110" y="142" type="line"/>
      <point x="101" y="60"/>
      <point x="82" y="-42"/>
      <point x="60" y="-130" type="curve"/>
      <point x="196" y="-130" type="line"/>
      <point x="229" y="-56"/>
      <point x="267" y="57"/>
      <point x="284" y="131" type="curve"/>
    </contour>
  </outline>
</glyph>
<glyph name="hyphen.knda" format="2">
  <advance width="348"/>
  <unicode hex="002D"/>
  <outline>
    <contour>
      <point x="36" y="220" type="line"/>
      <point x="312" y="220" type="line"/>
      <point x="312" y="369" type="line"/>
      <point x="36" y="369" type="line"/>
    </contour>
  </outline>
</glyph>
<glyph name="slash.knda" format="2">
  <advance width="583"/>
  <unicode hex="002F"/>
  <outline>
    <contour>
      <point x="500" y="793" type="line"/>
      <point x="349" y="793" type="line"/>
      <point x="83" y="-368" type="line"/>
      <point x="234" y="-368" type="line"/>
    </contour>
  </outline>
</glyph>
<glyph name="zero.knda" format="2">
  <advance width="572"/>
  <unicode hex="0030"/>
  <outline>
    <contour>
      <point x="537" y="347" type="curve" smooth="yes"/>
      <point x="537" y="572"/>
      <point x="465" y="702"/>
      <point x="287" y="702" type="curve" smooth="yes"/>
      <point x="108" y="702"/>
      <point x="35" y="566"/>
      <point x="35" y="343" type="curve" smooth="yes"/>
      <point x="35" y="118"/>
      <point x="107" y="-12"/>
      <point x="285" y="-12" type="curve" smooth="yes"/>
      <point x="464" y="-12"/>
      <point x="537" y="124"/>
    </contour>
    <contour>
      <point x="223" y="344" type="curve" smooth="yes"/>
      <point x="223" y="483"/>
      <point x="237" y="556"/>
      <point x="286" y="556" type="curve" smooth="yes"/>
      <point x="335" y="556"/>
      <point x="349" y="484"/>
      <point x="349" y="346" type="curve" smooth="yes"/>
      <point x="349" y="207"/>
      <point x="335" y="134"/>
      <point x="286" y="134" type="curve" smooth="yes"/>
      <point x="237" y="134"/>
      <point x="223" y="206"/>
    </contour>
  </outline>
</glyph>
<glyph name="one.knda" format="2">
  <advance width="572"/>
  <unicode hex="0031"/>
  <outline>
    <contour>
      <point x="454" y="0" type="line"/>
      <point x="454" y="690" type="line"/>
      <point x="278" y="690" type="line"/>
      <point x="37" y="493" type="line"/>
      <point x="135" y="368" type="line"/>
      <point x="207" y="429" type="line" smooth="yes"/>
      <point x="230" y="449"/>
      <point x="246" y="465"/>
      <point x="264" y="488" type="curve"/>
      <point x="261" y="441"/>
      <point x="261" y="383"/>
      <point x="261" y="331" type="curve" smooth="yes"/>
      <point x="261" y="0" type="line"/>
    </contour>
  </outline>
</glyph>
<glyph name="two.knda" format="2">
  <advance width="572"/>
  <unicode hex="0032"/>
  <outline>
    <contour>
      <point x="535" y="0" type="line"/>
      <point x="535" y="153" type="line"/>
      <point x="273" y="153" type="line"/>
      <point x="273" y="158" type="line"/>
      <point x="333" y="214" type="line" smooth="yes"/>
      <point x="454" y="326"/>
      <point x="523" y="395"/>
      <point x="523" y="515" type="curve" smooth="yes"/>
      <point x="523" y="617"/>
      <point x="438" y="702"/>
      <point x="289" y="702" type="curve" smooth="yes"/>
      <point x="165" y="702"/>
      <point x="90" y="653"/>
      <point x="18" y="591" type="curve"/>
      <point x="119" y="472" type="line"/>
      <point x="168" y="517"/>
      <point x="215" y="547"/>
      <point x="262" y="547" type="curve" smooth="yes"/>
      <point x="306" y="547"/>
      <point x="333" y="526"/>
      <point x="333" y="485" type="curve" smooth="yes"/>
      <point x="333" y="433"/>
      <point x="301" y="398"/>
      <point x="214" y="312" type="curve" smooth="yes"/>
      <point x="27" y="127" type="line"/>
      <point x="27" y="0" type="line"/>
    </contour>
  </outline>
</glyph>
<glyph name="three.knda" format="2">
  <advance width="572"/>
  <unicode hex="0033"/>
  <outline>
    <contour>
      <point x="514" y="526" type="curve" smooth="yes"/>
      <point x="514" y="636"/>
      <point x="420" y="702"/>
      <point x="272" y="702" type="curve" smooth="yes"/>
      <point x="170" y="702"/>
      <point x="97" y="672"/>
      <point x="29" y="630" type="curve"/>
      <point x="104" y="510" type="line"/>
      <point x="146" y="536"/>
      <point x="193" y="556"/>
      <point x="246" y="556" type="curve" smooth="yes"/>
      <point x="297" y="556"/>
      <point x="329" y="536"/>
      <point x="329" y="497" type="curve" smooth="yes"/>
      <point x="329" y="452"/>
      <point x="295" y="421"/>
      <point x="189" y="421" type="curve" smooth="yes"/>
      <point x="144" y="421" type="line"/>
      <point x="144" y="286" type="line"/>
      <point x="190" y="286" type="line" smooth="yes"/>
      <point x="305" y="286"/>
      <point x="337" y="255"/>
      <point x="337" y="208" type="curve" smooth="yes"/>
      <point x="337" y="161"/>
      <point x="300" y="134"/>
      <point x="218" y="134" type="curve" smooth="yes"/>
      <point x="154" y="134"/>
      <point x="89" y="148"/>
      <point x="33" y="177" type="curve"/>
      <point x="33" y="25" type="line"/>
      <point x="92" y="2"/>
      <point x="153" y="-12"/>
      <point x="238" y="-12" type="curve" smooth="yes"/>
      <point x="438" y="-12"/>
      <point x="529" y="83"/>
      <point x="529" y="198" type="curve" smooth="yes"/>
      <point x="529" y="294"/>
      <point x="468" y="345"/>
      <point x="368" y="361" type="curve"/>
      <point x="368" y="364" type="line"/>
      <point x="449" y="386"/>
      <point x="514" y="436"/>
    </contour>
  </outline>
</glyph>
<glyph name="four.knda" format="2">
  <advance width="572"/>
  <unicode hex="0034"/>
  <outline>
    <contour>
      <point x="559" y="132" type="line"/>
      <point x="559" y="271" type="line"/>
      <point x="484" y="271" type="line"/>
      <point x="484" y="691" type="line"/>
      <point x="304" y="691" type="line"/>
      <point x="16" y="267" type="line"/>
      <point x="16" y="132" type="line"/>
      <point x="298" y="132" type="line"/>
      <point x="298" y="0" type="line"/>
      <point x="484" y="0" type="line"/>
      <point x="484" y="132" type="line"/>
    </contour>
    <contour>
      <point x="298" y="271" type="line"/>
      <point x="184" y="271" type="line"/>
      <point x="256" y="386" type="line" smooth="yes"/>
      <point x="275" y="416"/>
      <point x="288" y="443"/>
      <point x="299" y="468" type="curve"/>
      <point x="303" y="468" type="line"/>
      <point x="299" y="432"/>
      <point x="298" y="406"/>
      <point x="298" y="374" type="curve" smooth="yes"/>
    </contour>
  </outline>
</glyph>
<glyph name="five.knda" format="2">
  <advance width="572"/>
  <unicode hex="0035"/>
  <outline>
    <contour>
      <point x="246" y="-12" type="curve" smooth="yes"/>
      <point x="434" y="-12"/>
      <point x="532" y="75"/>
      <point x="532" y="229" type="curve" smooth="yes"/>
      <point x="532" y="378"/>
      <point x="434" y="450"/>
      <point x="321" y="450" type="curve" smooth="yes"/>
      <point x="282" y="450"/>
      <point x="265" y="447"/>
      <point x="238" y="441" type="curve"/>
      <point x="249" y="537" type="line"/>
      <point x="490" y="537" type="line"/>
      <point x="490" y="690" type="line"/>
      <point x="90" y="690" type="line"/>
      <point x="60" y="327" type="line"/>
      <point x="129" y="293" type="line"/>
      <point x="161" y="304"/>
      <point x="191" y="311"/>
      <point x="230" y="311" type="curve" smooth="yes"/>
      <point x="300" y="311"/>
      <point x="342" y="281"/>
      <point x="342" y="222" type="curve" smooth="yes"/>
      <point x="342" y="162"/>
      <point x="305" y="134"/>
      <point x="226" y="134" type="curve" smooth="yes"/>
      <point x="162" y="134"/>
      <point x="101" y="151"/>
      <point x="47" y="177" type="curve"/>
      <point x="47" y="24" type="line"/>
      <point x="101" y="0"/>
      <point x="163" y="-12"/>
    </contour>
  </outline>
</glyph>
<glyph name="six.knda" format="2">
  <advance width="572"/>
  <unicode hex="0036"/>
  <outline>
    <contour>
      <point x="29" y="304" type="curve" smooth="yes"/>
      <point x="29" y="87"/>
      <point x="143" y="-12"/>
      <point x="297" y="-12" type="curve" smooth="yes"/>
      <point x="449" y="-12"/>
      <point x="545" y="80"/>
      <point x="545" y="236" type="curve" smooth="yes"/>
      <point x="545" y="381"/>
      <point x="474" y="463"/>
      <point x="350" y="463" type="curve" smooth="yes"/>
      <point x="278" y="463"/>
      <point x="235" y="427"/>
      <point x="210" y="380" type="curve"/>
      <point x="204" y="380" type="line"/>
      <point x="207" y="488"/>
      <point x="259" y="556"/>
      <point x="395" y="556" type="curve" smooth="yes"/>
      <point x="432" y="556"/>
      <point x="465" y="553"/>
      <point x="498" y="547" type="curve"/>
      <point x="498" y="694" type="line"/>
      <point x="463" y="700"/>
      <point x="432" y="702"/>
      <point x="395" y="702" type="curve" smooth="yes"/>
      <point x="87" y="702"/>
      <point x="29" y="496"/>
    </contour>
    <contour>
      <point x="291" y="134" type="curve" smooth="yes"/>
      <point x="245" y="134"/>
      <point x="218" y="182"/>
      <point x="218" y="243" type="curve" smooth="yes"/>
      <point x="218" y="287"/>
      <point x="247" y="321"/>
      <point x="293" y="321" type="curve" smooth="yes"/>
      <point x="340" y="321"/>
      <point x="361" y="290"/>
      <point x="361" y="230" type="curve" smooth="yes"/>
      <point x="361" y="164"/>
      <point x="335" y="134"/>
    </contour>
  </outline>
</glyph>
<glyph name="seven.knda" format="2">
  <advance width="572"/>
  <unicode hex="0037"/>
  <outline>
    <contour>
      <point x="89" y="0" type="line"/>
      <point x="291" y="0" type="line"/>
      <point x="541" y="578" type="line"/>
      <point x="541" y="690" type="line"/>
      <point x="27" y="690" type="line"/>
      <point x="27" y="537" type="line"/>
      <point x="337" y="537" type="line"/>
    </contour>
  </outline>
</glyph>
<glyph name="eight.knda" format="2">
  <advance width="572"/>
  <unicode hex="0038"/>
  <outline>
    <contour>
      <point x="289" y="702" type="curve" smooth="yes"/>
      <point x="146" y="702"/>
      <point x="47" y="643"/>
      <point x="47" y="534" type="curve" smooth="yes"/>
      <point x="47" y="453"/>
      <point x="99" y="402"/>
      <point x="159" y="362" type="curve"/>
      <point x="76" y="321"/>
      <point x="28" y="273"/>
      <point x="28" y="182" type="curve" smooth="yes"/>
      <point x="28" y="69"/>
      <point x="104" y="-12"/>
      <point x="287" y="-12" type="curve" smooth="yes"/>
      <point x="465" y="-12"/>
      <point x="544" y="72"/>
      <point x="544" y="186" type="curve" smooth="yes"/>
      <point x="544" y="276"/>
      <point x="472" y="324"/>
      <point x="400" y="365" type="curve"/>
      <point x="467" y="400"/>
      <point x="525" y="445"/>
      <point x="525" y="534" type="curve" smooth="yes"/>
      <point x="525" y="642"/>
      <point x="427" y="702"/>
    </contour>
    <contour>
      <point x="212" y="190" type="curve" smooth="yes"/>
      <point x="212" y="228"/>
      <point x="237" y="257"/>
      <point x="283" y="283" type="curve"/>
      <point x="300" y="273" type="line" smooth="yes"/>
      <point x="344" y="247"/>
      <point x="360" y="221"/>
      <point x="360" y="185" type="curve" smooth="yes"/>
      <point x="360" y="154"/>
      <point x="339" y="125"/>
      <point x="284" y="125" type="curve" smooth="yes"/>
      <point x="234" y="125"/>
      <point x="212" y="152"/>
    </contour>
    <contour>
      <point x="286" y="565" type="curve" smooth="yes"/>
      <point x="319" y="565"/>
      <point x="342" y="546"/>
      <point x="342" y="516" type="curve" smooth="yes"/>
      <point x="342" y="482"/>
      <point x="317" y="461"/>
      <point x="288" y="443" type="curve"/>
      <point x="251" y="464"/>
      <point x="231" y="484"/>
      <point x="231" y="515" type="curve" smooth="yes"/>
      <point x="231" y="545"/>
      <point x="250" y="565"/>
    </contour>
  </outline>
</glyph>
<glyph name="nine.knda" format="2">
  <advance width="572"/>
  <unicode hex="0039"/>
  <outline>
    <contour>
      <point x="543" y="377" type="curve" smooth="yes"/>
      <point x="543" y="607"/>
      <point x="429" y="702"/>
      <point x="275" y="702" type="curve" smooth="yes"/>
      <point x="125" y="702"/>
      <point x="27" y="610"/>
      <point x="27" y="454" type="curve" smooth="yes"/>
      <point x="27" y="309"/>
      <point x="100" y="227"/>
      <point x="221" y="227" type="curve" smooth="yes"/>
      <point x="299" y="227"/>
      <point x="343" y="258"/>
      <point x="366" y="310" type="curve"/>
      <point x="372" y="310" type="line"/>
      <point x="363" y="202"/>
      <point x="316" y="134"/>
      <point x="177" y="134" type="curve" smooth="yes"/>
      <point x="140" y="134"/>
      <point x="105" y="137"/>
      <point x="72" y="143" type="curve"/>
      <point x="72" y="-4" type="line"/>
      <point x="107" y="-10"/>
      <point x="140" y="-12"/>
      <point x="177" y="-12" type="curve" smooth="yes"/>
      <point x="485" y="-12"/>
      <point x="543" y="200"/>
    </contour>
    <contour>
      <point x="281" y="556" type="curve" smooth="yes"/>
      <point x="333" y="556"/>
      <point x="354" y="504"/>
      <point x="354" y="449" type="curve" smooth="yes"/>
      <point x="354" y="407"/>
      <point x="330" y="369"/>
      <point x="282" y="369" type="curve" smooth="yes"/>
      <point x="230" y="369"/>
      <point x="211" y="406"/>
      <point x="211" y="464" type="curve" smooth="yes"/>
      <point x="211" y="526"/>
      <point x="237" y="556"/>
    </contour>
  </outline>
</glyph>
<glyph name="colon.knda" format="2">
  <advance width="330"/>
  <unicode hex="003A"/>
  <outline>
    <contour>
      <point x="63" y="81" type="curve" smooth="yes"/>
      <point x="63" y="15"/>
      <point x="110" y="-12"/>
      <point x="167" y="-12" type="curve" smooth="yes"/>
      <point x="221" y="-12"/>
      <point x="267" y="15"/>
      <point x="267" y="81" type="curve" smooth="yes"/>
      <point x="267" y="150"/>
      <point x="221" y="175"/>
      <point x="167" y="175" type="curve" smooth="yes"/>
      <point x="110" y="175"/>
      <point x="63" y="150"/>
    </contour>
    <contour>
      <point x="63" y="377" type="curve" smooth="yes"/>
      <point x="63" y="310"/>
      <point x="110" y="283"/>
      <point x="167" y="283" type="curve" smooth="yes"/>
      <point x="221" y="283"/>
      <point x="267" y="310"/>
      <point x="267" y="377" type="curve" smooth="yes"/>
      <point x="267" y="445"/>
      <point x="221" y="470"/>
      <point x="167" y="470" type="curve" smooth="yes"/>
      <point x="110" y="470"/>
      <point x="63" y="445"/>
    </contour>
  </outline>
</glyph>
<glyph name="semicolon.knda" format="2">
  <advance width="347"/>
  <unicode hex="003B"/>
  <outline>
    <contour>
      <point x="277" y="142" type="line"/>
      <point x="110" y="142" type="line"/>
      <point x="101" y="60"/>
      <point x="82" y="-42"/>
      <point x="60" y="-130" type="curve"/>
      <point x="196" y="-130" type="line"/>
      <point x="229" y="-56"/>
      <point x="267" y="57"/>
      <point x="284" y="131" type="curve"/>
    </contour>
    <contour>
      <point x="79" y="377" type="curve" smooth="yes"/>
      <point x="79" y="310"/>
      <point x="126" y="283"/>
      <point x="183" y="283" type="curve" smooth="yes"/>
      <point x="237" y="283"/>
      <point x="283" y="310"/>
      <point x="283" y="377" type="curve" smooth="yes"/>
      <point x="283" y="445"/>
      <point x="237" y="470"/>
      <point x="183" y="470" type="curve" smooth="yes"/>
      <point x="126" y="470"/>
      <point x="79" y="445"/>
    </contour>
  </outline>
</glyph>
<glyph name="less.knda" format="2">
  <advance width="572"/>
  <unicode hex="003C"/>
  <outline>
    <contour>
      <point x="532" y="77" type="line"/>
      <point x="532" y="221" type="line"/>
      <point x="229" y="344" type="line"/>
      <point x="532" y="482" type="line"/>
      <point x="532" y="627" type="line"/>
      <point x="38" y="380" type="line"/>
      <point x="38" y="296" type="line"/>
    </contour>
  </outline>
</glyph>
<glyph name="equal.knda" format="2">
  <advance width="572"/>
  <unicode hex="003D"/>
  <outline>
    <contour>
      <point x="38" y="388" type="line"/>
      <point x="533" y="388" type="line"/>
      <point x="533" y="519" type="line"/>
      <point x="38" y="519" type="line"/>
    </contour>
    <contour>
      <point x="38" y="166" type="line"/>
      <point x="533" y="166" type="line"/>
      <point x="533" y="297" type="line"/>
      <point x="38" y="297" type="line"/>
    </contour>
  </outline>
</glyph>
<glyph name="greater.knda" format="2">
  <advance width="572"/>
  <unicode hex="003E"/>
  <outline>
    <contour>
      <point x="40" y="77" type="line"/>
      <point x="534" y="296" type="line"/>
      <point x="534" y="380" type="line"/>
      <point x="40" y="627" type="line"/>
      <point x="40" y="482" type="line"/>
      <point x="343" y="344" type="line"/>
      <point x="40" y="221" type="line"/>
    </contour>
  </outline>
</glyph>
<glyph name="question.knda" format="2">
  <advance width="555"/>
  <unicode hex="003F"/>
  <outline>
    <contour>
      <point x="281" y="702" type="curve" smooth="yes"/>
      <point x="185" y="702"/>
      <point x="105" y="676"/>
      <point x="32" y="634" type="curve"/>
      <point x="98" y="504" type="line"/>
      <point x="157" y="534"/>
      <point x="207" y="556"/>
      <point x="266" y="556" type="curve" smooth="yes"/>
      <point x="315" y="556"/>
      <point x="337" y="537"/>
      <point x="337" y="505" type="curve" smooth="yes"/>
      <point x="337" y="475"/>
      <point x="317" y="453"/>
      <point x="256" y="413" type="curve" smooth="yes"/>
      <point x="188" y="369"/>
      <point x="174" y="331"/>
      <point x="174" y="265" type="curve" smooth="yes"/>
      <point x="174" y="242" type="line"/>
      <point x="324" y="242" type="line"/>
      <point x="324" y="250" type="line" smooth="yes"/>
      <point x="324" y="281"/>
      <point x="336" y="302"/>
      <point x="392" y="337" type="curve" smooth="yes"/>
      <point x="474" y="387"/>
      <point x="514" y="439"/>
      <point x="514" y="521" type="curve" smooth="yes"/>
      <point x="514" y="626"/>
      <point x="436" y="702"/>
    </contour>
    <contour>
      <point x="256" y="-12" type="curve" smooth="yes"/>
      <point x="311" y="-12"/>
      <point x="357" y="15"/>
      <point x="357" y="81" type="curve" smooth="yes"/>
      <point x="357" y="150"/>
      <point x="311" y="175"/>
      <point x="256" y="175" type="curve" smooth="yes"/>
      <point x="199" y="175"/>
      <point x="153" y="150"/>
      <point x="153" y="81" type="curve" smooth="yes"/>
      <point x="153" y="15"/>
      <point x="199" y="-12"/>
    </contour>
  </outline>
</glyph>
<glyph name="bracketleft.knda" format="2">
  <advance width="416"/>
  <unicode hex="005B"/>
  <outline>
    <contour>
      <point x="333" y="-369" type="line"/>
      <point x="333" y="-245" type="line"/>
      <point x="227" y="-245" type="line"/>
      <point x="227" y="669" type="line"/>
      <point x="333" y="669" type="line"/>
      <point x="333" y="793" type="line"/>
      <point x="72" y="793" type="line"/>
      <point x="72" y="-369" type="line"/>
    </contour>
  </outline>
</glyph>
<glyph name="bracketright.knda" format="2">
  <advance width="416"/>
  <unicode hex="005D"/>
  <outline>
    <contour>
      <point x="83" y="-245" type="line"/>
      <point x="83" y="-369" type="line"/>
      <point x="344" y="-369" type="line"/>
      <point x="344" y="793" type="line"/>
      <point x="83" y="793" type="line"/>
      <point x="83" y="669" type="line"/>
      <point x="189" y="669" type="line"/>
      <point x="189" y="-245" type="line"/>
    </contour>
  </outline>
</glyph>
<glyph name="braceleft.knda" format="2">
  <advance width="429"/>
  <unicode hex="007B"/>
  <outline>
    <contour>
      <point x="394" y="-368" type="curve"/>
      <point x="394" y="-232" type="line"/>
      <point x="323" y="-232"/>
      <point x="301" y="-218"/>
      <point x="301" y="-172" type="curve" smooth="yes"/>
      <point x="301" y="85" type="line" smooth="yes"/>
      <point x="301" y="161"/>
      <point x="260" y="197"/>
      <point x="184" y="209" type="curve"/>
      <point x="184" y="215" type="line"/>
      <point x="260" y="227"/>
      <point x="301" y="263"/>
      <point x="301" y="339" type="curve" smooth="yes"/>
      <point x="301" y="597" type="line" smooth="yes"/>
      <point x="301" y="643"/>
      <point x="323" y="657"/>
      <point x="394" y="657" type="curve"/>
      <point x="394" y="793" type="line"/>
      <point x="189" y="793"/>
      <point x="143" y="742"/>
      <point x="143" y="625" type="curve" smooth="yes"/>
      <point x="143" y="369" type="line" smooth="yes"/>
      <point x="143" y="309"/>
      <point x="111" y="290"/>
      <point x="23" y="286" type="curve"/>
      <point x="23" y="138" type="line"/>
      <point x="111" y="134"/>
      <point x="143" y="115"/>
      <point x="143" y="55" type="curve" smooth="yes"/>
      <point x="143" y="-200" type="line" smooth="yes"/>
      <point x="143" y="-317"/>
      <point x="189" y="-368"/>
    </contour>
  </outline>
</glyph>
<glyph name="braceright.knda" format="2">
  <advance width="429"/>
  <unicode hex="007D"/>
  <outline>
    <contour>
      <point x="35" y="793" type="curve"/>
      <point x="35" y="657" type="line"/>
      <point x="106" y="657"/>
      <point x="128" y="643"/>
      <point x="128" y="597" type="curve" smooth="yes"/>
      <point x="128" y="340" type="line" smooth="yes"/>
      <point x="128" y="264"/>
      <point x="169" y="228"/>
      <point x="245" y="216" type="curve"/>
      <point x="245" y="210" type="line"/>
      <point x="169" y="198"/>
      <point x="128" y="162"/>
      <point x="128" y="86" type="curve" smooth="yes"/>
      <point x="128" y="-172" type="line" smooth="yes"/>
      <point x="128" y="-218"/>
      <point x="106" y="-232"/>
      <point x="35" y="-232" type="curve"/>
      <point x="35" y="-368" type="line"/>
      <point x="240" y="-368"/>
      <point x="286" y="-317"/>
      <point x="286" y="-200" type="curve" smooth="yes"/>
      <point x="286" y="56" type="line" smooth="yes"/>
      <point x="286" y="116"/>
      <point x="318" y="135"/>
      <point x="406" y="139" type="curve"/>
      <point x="406" y="287" type="line"/>
      <point x="318" y="291"/>
      <point x="286" y="310"/>
      <point x="286" y="370" type="curve" smooth="yes"/>
      <point x="286" y="625" type="line" smooth="yes"/>
      <point x="286" y="742"/>
      <point x="240" y="793"/>
    </contour>
  </outline>
</glyph>
<glyph name="asciitilde.knda" format="2">
  <advance width="572"/>
  <unicode hex="007E"/>
  <outline>
    <contour>
      <point x="267" y="279" type="curve"/>
      <point x="332" y="253"/>
      <point x="365" y="248"/>
      <point x="404" y="248" type="curve" smooth="yes"/>
      <point x="457" y="248"/>
      <point x="499" y="266"/>
      <point x="533" y="301" type="curve"/>
      <point x="533" y="438" type="line"/>
      <point x="499" y="405"/>
      <point x="457" y="379"/>
      <point x="420" y="379" type="curve" smooth="yes"/>
      <point x="390" y="379"/>
      <point x="354" y="386"/>
      <point x="304" y="406" type="curve" smooth="yes"/>
      <point x="239" y="432"/>
      <point x="206" y="437"/>
      <point x="167" y="437" type="curve" smooth="yes"/>
      <point x="113" y="437"/>
      <point x="72" y="419"/>
      <point x="38" y="384" type="curve"/>
      <point x="38" y="247" type="line"/>
      <point x="72" y="280"/>
      <point x="113" y="306"/>
      <point x="152" y="306" type="curve" smooth="yes"/>
      <point x="183" y="306"/>
      <point x="218" y="300"/>
    </contour>
  </outline>
</glyph>
<glyph name="multiply.knda" format="2">
  <advance width="572"/>
  <unicode hex="00D7"/>
  <outline>
    <contour>
      <point x="428" y="575" type="line"/>
      <point x="285" y="432" type="line"/>
      <point x="143" y="575" type="line"/>
      <point x="52" y="484" type="line"/>
      <point x="195" y="342" type="line"/>
      <point x="52" y="200" type="line"/>
      <point x="143" y="109" type="line"/>
      <point x="285" y="252" type="line"/>
      <point x="428" y="109" type="line"/>
      <point x="519" y="200" type="line"/>
      <point x="375" y="342" type="line"/>
      <point x="519" y="484" type="line"/>
    </contour>
  </outline>
</glyph>
<glyph name="divide.knda" format="2">
  <advance width="572"/>
  <unicode hex="00F7"/>
  <outline>
    <contour>
      <point x="38" y="277" type="line"/>
      <point x="533" y="277" type="line"/>
      <point x="533" y="408" type="line"/>
      <point x="38" y="408" type="line"/>
    </contour>
    <contour>
      <point x="285" y="69" type="curve" smooth="yes"/>
      <point x="325" y="69"/>
      <point x="362" y="94"/>
      <point x="362" y="152" type="curve" smooth="yes"/>
      <point x="362" y="214"/>
      <point x="325" y="235"/>
      <point x="285" y="235" type="curve" smooth="yes"/>
      <point x="244" y="235"/>
      <point x="209" y="214"/>
      <point x="209" y="152" type="curve" smooth="yes"/>
      <point x="209" y="94"/>
      <point x="244" y="69"/>
    </contour>
    <contour>
      <point x="285" y="450" type="curve" smooth="yes"/>
      <point x="325" y="450"/>
      <point x="362" y="475"/>
      <point x="362" y="533" type="curve" smooth="yes"/>
      <point x="362" y="595"/>
      <point x="325" y="616"/>
      <point x="285" y="616" type="curve" smooth="yes"/>
      <point x="244" y="616"/>
      <point x="209" y="595"/>
      <point x="209" y="533" type="curve" smooth="yes"/>
      <point x="209" y="475"/>
      <point x="244" y="450"/>
    </contour>
  </outline>
</glyph>
<glyph name="uni0951" format="2">
  <unicode hex="0951"/>
  <outline>
    <contour>
      <point x="-219" y="809" type="line"/>
      <point x="-337" y="809" type="line"/>
      <point x="-337" y="599" type="line"/>
      <point x="-219" y="599" type="line"/>
    </contour>
  </outline>
</glyph>
<glyph name="uni0952" format="2">
  <unicode hex="0952"/>
  <outline>
    <contour>
      <point x="-529" y="-192" type="line"/>
      <point x="-28" y="-192" type="line"/>
      <point x="-28" y="-97" type="line"/>
      <point x="-529" y="-97" type="line"/>
    </contour>
  </outline>
</glyph>
<glyph name="dandaknda" format="2">
  <advance width="423"/>
  <unicode hex="0964"/>
  <outline>
    <contour>
      <point x="172" y="-139" type="line"/>
      <point x="343" y="-139" type="line"/>
      <point x="343" y="724" type="line"/>
      <point x="172" y="724" type="line"/>
    </contour>
  </outline>
</glyph>
<glyph name="dbldandaknda" format="2">
  <advance width="675"/>
  <unicode hex="0965"/>
  <outline>
    <contour>
      <point x="424" y="-139" type="line"/>
      <point x="595" y="-139" type="line"/>
      <point x="595" y="724" type="line"/>
      <point x="424" y="724" type="line"/>
    </contour>
    <contour>
      <point x="172" y="-139" type="line"/>
      <point x="343" y="-139" type="line"/>
      <point x="343" y="724" type="line"/>
      <point x="172" y="724" type="line"/>
    </contour>
  </outline>
</glyph>
<glyph name="uni0C80" format="2">
  <advance width="662"/>
  <unicode hex="0C80"/>
  <outline>
    <contour>
      <point x="331" y="10" type="curve" smooth="yes"/>
      <point x="521" y="10"/>
      <point x="634" y="94"/>
      <point x="634" y="264" type="curve" smooth="yes"/>
      <point x="634" y="304"/>
      <point x="628" y="342"/>
      <point x="619" y="369" type="curve"/>
      <point x="449" y="334" type="line"/>
      <point x="454" y="314"/>
      <point x="456" y="295"/>
      <point x="456" y="272" type="curve" smooth="yes"/>
      <point x="456" y="185"/>
      <point x="398" y="155"/>
      <point x="331" y="155" type="curve" smooth="yes"/>
      <point x="263" y="155"/>
      <point x="206" y="183"/>
      <point x="206" y="270" type="curve" smooth="yes"/>
      <point x="206" y="294"/>
      <point x="208" y="314"/>
      <point x="214" y="336" type="curve"/>
      <point x="43" y="370" type="line"/>
      <point x="34" y="346"/>
      <point x="28" y="304"/>
      <point x="28" y="264" type="curve" smooth="yes"/>
      <point x="28" y="99"/>
      <point x="139" y="10"/>
    </contour>
    <contour>
      <point x="331" y="195" type="curve" smooth="yes"/>
      <point x="382" y="195"/>
      <point x="417" y="225"/>
      <point x="417" y="273" type="curve" smooth="yes"/>
      <point x="417" y="322"/>
      <point x="384" y="353"/>
      <point x="331" y="353" type="curve" smooth="yes"/>
      <point x="280" y="353"/>
      <point x="245" y="323"/>
      <point x="245" y="273" type="curve" smooth="yes"/>
      <point x="245" y="225"/>
      <point x="278" y="195"/>
    </contour>
  </outline>
</glyph>
<glyph name="candrabinduknda" format="2">
  <unicode hex="0C81"/>
  <outline>
    <contour>
      <point x="-278" y="585" type="curve" smooth="yes"/>
      <point x="-139" y="585"/>
      <point x="-53" y="636"/>
      <point x="-53" y="753" type="curve" smooth="yes"/>
      <point x="-53" y="773"/>
      <point x="-56" y="793"/>
      <point x="-60" y="809" type="curve"/>
      <point x="-189" y="790" type="line"/>
      <point x="-185" y="779"/>
      <point x="-184" y="767"/>
      <point x="-184" y="755" type="curve" smooth="yes"/>
      <point x="-184" y="710"/>
      <point x="-224" y="685"/>
      <point x="-278" y="685" type="curve" smooth="yes"/>
      <point x="-330" y="685"/>
      <point x="-372" y="703"/>
      <point x="-372" y="753" type="curve" smooth="yes"/>
      <point x="-372" y="766"/>
      <point x="-371" y="773"/>
      <point x="-368" y="785" type="curve"/>
      <point x="-495" y="809" type="line"/>
      <point x="-500" y="793"/>
      <point x="-503" y="772"/>
      <point x="-503" y="753" type="curve" smooth="yes"/>
      <point x="-503" y="637"/>
      <point x="-410" y="585"/>
    </contour>
    <contour>
      <point x="-279" y="701" type="curve" smooth="yes"/>
      <point x="-237" y="701"/>
      <point x="-215" y="723"/>
      <point x="-215" y="756" type="curve" smooth="yes"/>
      <point x="-215" y="786"/>
      <point x="-238" y="808"/>
      <point x="-279" y="808" type="curve" smooth="yes"/>
      <point x="-321" y="808"/>
      <point x="-342" y="786"/>
      <point x="-342" y="756" type="curve" smooth="yes"/>
      <point x="-342" y="723"/>
      <point x="-321" y="701"/>
    </contour>
  </outline>
</glyph>
<glyph name="anusvaraknda" format="2">
  <advance width="642"/>
  <unicode hex="0C82"/>
  <outline>
    <contour>
      <point x="320" y="-12" type="curve" smooth="yes"/>
      <point x="507" y="-12"/>
      <point x="614" y="88"/>
      <point x="614" y="251" type="curve" smooth="yes"/>
      <point x="614" y="400"/>
      <point x="515" y="514"/>
      <point x="322" y="514" type="curve" smooth="yes"/>
      <point x="130" y="514"/>
      <point x="28" y="405"/>
      <point x="28" y="251" type="curve" smooth="yes"/>
      <point x="28" y="80"/>
      <point x="144" y="-12"/>
    </contour>
    <contour>
      <point x="318" y="140" type="curve" smooth="yes"/>
      <point x="255" y="140"/>
      <point x="217" y="183"/>
      <point x="217" y="253" type="curve" smooth="yes"/>
      <point x="217" y="316"/>
      <point x="250" y="366"/>
      <point x="323" y="366" type="curve" smooth="yes"/>
      <point x="386" y="366"/>
      <point x="425" y="323"/>
      <point x="425" y="253" type="curve" smooth="yes"/>
      <point x="425" y="189"/>
      <point x="393" y="140"/>
    </contour>
  </outline>
</glyph>
<glyph name="visargaknda" format="2">
  <advance width="368"/>
  <unicode hex="0C83"/>
  <outline>
    <contour>
      <point x="28" y="385" type="curve" smooth="yes"/>
      <point x="28" y="314"/>
      <point x="82" y="259"/>
      <point x="183" y="259" type="curve" smooth="yes"/>
      <point x="286" y="259"/>
      <point x="340" y="312"/>
      <point x="340" y="385" type="curve" smooth="yes"/>
      <point x="340" y="459"/>
      <point x="285" y="512"/>
      <point x="183" y="512" type="curve" smooth="yes"/>
      <point x="83" y="512"/>
      <point x="28" y="457"/>
    </contour>
    <contour>
      <point x="145" y="386" type="curve" smooth="yes"/>
      <point x="145" y="407"/>
      <point x="160" y="423"/>
      <point x="183" y="423" type="curve" smooth="yes"/>
      <point x="208" y="423"/>
      <point x="223" y="407"/>
      <point x="223" y="386" type="curve" smooth="yes"/>
      <point x="223" y="365"/>
      <point x="209" y="348"/>
      <point x="183" y="348" type="curve" smooth="yes"/>
      <point x="159" y="348"/>
      <point x="145" y="365"/>
    </contour>
    <contour>
      <point x="28" y="114" type="curve" smooth="yes"/>
      <point x="28" y="42"/>
      <point x="82" y="-12"/>
      <point x="183" y="-12" type="curve" smooth="yes"/>
      <point x="286" y="-12"/>
      <point x="340" y="43"/>
      <point x="340" y="114" type="curve" smooth="yes"/>
      <point x="340" y="188"/>
      <point x="285" y="242"/>
      <point x="183" y="242" type="curve" smooth="yes"/>
      <point x="83" y="242"/>
      <point x="28" y="188"/>
    </contour>
    <contour>
      <point x="145" y="117" type="curve" smooth="yes"/>
      <point x="145" y="138"/>
      <point x="160" y="153"/>
      <point x="183" y="153" type="curve" smooth="yes"/>
      <point x="208" y="153"/>
      <point x="223" y="138"/>
      <point x="223" y="117" type="curve" smooth="yes"/>
      <point x="223" y="94"/>
      <point x="209" y="77"/>
      <point x="183" y="77" type="curve" smooth="yes"/>
      <point x="159" y="77"/>
      <point x="145" y="94"/>
    </contour>
  </outline>
</glyph>
<glyph name="uni0C84" format="2">
  <advance width="1176"/>
  <unicode hex="0C84"/>
  <outline>
    <contour>
      <point x="212" y="567" type="curve"/>
      <point x="63" y="575" type="line"/>
      <point x="47" y="500"/>
      <point x="40" y="433"/>
      <point x="40" y="369" type="curve" smooth="yes"/>
      <point x="40" y="18"/>
      <point x="272" y="-178"/>
      <point x="601" y="-178" type="curve" smooth="yes"/>
      <point x="934" y="-178"/>
      <point x="1136" y="-8"/>
      <point x="1136" y="298" type="curve" smooth="yes"/>
      <point x="1136" y="582"/>
      <point x="941" y="747"/>
      <point x="680" y="747" type="curve" smooth="yes"/>
      <point x="437" y="747"/>
      <point x="267" y="608"/>
      <point x="267" y="384" type="curve" smooth="yes"/>
      <point x="267" y="185"/>
      <point x="405" y="58"/>
      <point x="603" y="58" type="curve" smooth="yes"/>
      <point x="793" y="58"/>
      <point x="914" y="158"/>
      <point x="914" y="318" type="curve" smooth="yes"/>
      <point x="914" y="455"/>
      <point x="812" y="551"/>
      <point x="675" y="551" type="curve" smooth="yes"/>
      <point x="557" y="551"/>
      <point x="470" y="483"/>
      <point x="470" y="384" type="curve" smooth="yes"/>
      <point x="470" y="290"/>
      <point x="537" y="229"/>
      <point x="624" y="229" type="curve" smooth="yes"/>
      <point x="680" y="229"/>
      <point x="705" y="241"/>
      <point x="726" y="255" type="curve"/>
      <point x="681" y="367" type="line"/>
      <point x="667" y="360"/>
      <point x="658" y="357"/>
      <point x="649" y="357" type="curve" smooth="yes"/>
      <point x="633" y="357"/>
      <point x="616" y="362"/>
      <point x="616" y="388" type="curve" smooth="yes"/>
      <point x="616" y="412"/>
      <point x="636" y="423"/>
      <point x="665" y="423" type="curve" smooth="yes"/>
      <point x="726" y="423"/>
      <point x="765" y="388"/>
      <point x="765" y="318" type="curve" smooth="yes"/>
      <point x="765" y="231"/>
      <point x="709" y="187"/>
      <point x="603" y="187" type="curve" smooth="yes"/>
      <point x="488" y="187"/>
      <point x="416" y="258"/>
      <point x="416" y="381" type="curve" smooth="yes"/>
      <point x="416" y="544"/>
      <point x="531" y="616"/>
      <point x="680" y="616" type="curve" smooth="yes"/>
      <point x="851" y="616"/>
      <point x="984" y="510"/>
      <point x="984" y="300" type="curve" smooth="yes"/>
      <point x="984" y="68"/>
      <point x="828" y="-44"/>
      <point x="603" y="-44" type="curve" smooth="yes"/>
      <point x="363" y="-44"/>
      <point x="189" y="95"/>
      <point x="189" y="374" type="curve" smooth="yes"/>
      <point x="189" y="449"/>
      <point x="196" y="505"/>
    </contour>
  </outline>
</glyph>
<glyph name="aknda" format="2">
  <advance width="1030"/>
  <unicode hex="0C85"/>
  <outline>
    <contour>
      <point x="507" y="152" type="curve" smooth="yes"/>
      <point x="276" y="152"/>
      <point x="204" y="236"/>
      <point x="204" y="301" type="curve" smooth="yes"/>
      <point x="204" y="332" type="line" smooth="yes"/>
      <point x="204" y="416"/>
      <point x="238" y="456"/>
      <point x="279" y="456" type="curve" smooth="yes"/>
      <point x="304" y="456"/>
      <point x="318" y="442"/>
      <point x="318" y="417" type="curve" smooth="yes"/>
      <point x="318" y="385"/>
      <point x="294" y="368"/>
      <point x="247" y="368" type="curve" smooth="yes"/>
      <point x="186" y="368"/>
      <point x="147" y="418"/>
      <point x="132" y="445" type="curve"/>
      <point x="107" y="318" type="line"/>
      <point x="139" y="285"/>
      <point x="214" y="243"/>
      <point x="278" y="243" type="curve" smooth="yes"/>
      <point x="398" y="243"/>
      <point x="475" y="290"/>
      <point x="475" y="411" type="curve" smooth="yes"/>
      <point x="475" y="505"/>
      <point x="413" y="586"/>
      <point x="287" y="586" type="curve" smooth="yes"/>
      <point x="134" y="586"/>
      <point x="27" y="490"/>
      <point x="27" y="332" type="curve" smooth="yes"/>
      <point x="27" y="124"/>
      <point x="184" y="-12"/>
      <point x="504" y="-12" type="curve" smooth="yes"/>
      <point x="813" y="-12"/>
      <point x="1003" y="91"/>
      <point x="1003" y="340" type="curve" smooth="yes"/>
      <point x="1003" y="465"/>
      <point x="917" y="586"/>
      <point x="739" y="586" type="curve" smooth="yes"/>
      <point x="599" y="586"/>
      <point x="544" y="521"/>
      <point x="544" y="444" type="curve" smooth="yes"/>
      <point x="544" y="402"/>
      <point x="557" y="381"/>
      <point x="574" y="358" type="curve"/>
      <point x="468" y="358" type="line"/>
      <point x="468" y="219" type="line"/>
      <point x="762" y="219" type="line"/>
      <point x="762" y="349" type="line"/>
      <point x="730" y="358"/>
      <point x="707" y="381"/>
      <point x="707" y="410" type="curve" smooth="yes"/>
      <point x="707" y="433"/>
      <point x="723" y="449"/>
      <point x="745" y="449" type="curve" smooth="yes"/>
      <point x="788" y="449"/>
      <point x="813" y="400"/>
      <point x="813" y="344" type="curve" smooth="yes"/>
      <point x="813" y="191"/>
      <point x="704" y="152"/>
    </contour>
  </outline>
</glyph>
<glyph name="aaknda" format="2">
  <advance width="1009"/>
  <unicode hex="0C86"/>
  <outline>
    <contour>
      <point x="514" y="-12" type="curve" smooth="yes"/>
      <point x="812" y="-12"/>
      <point x="959" y="70"/>
      <point x="959" y="206" type="curve" smooth="yes"/>
      <point x="959" y="259"/>
      <point x="931" y="298"/>
      <point x="873" y="328" type="curve"/>
      <point x="854" y="341"/>
      <point x="848" y="343"/>
      <point x="827" y="352" type="curve" smooth="yes"/>
      <point x="754" y="382"/>
      <point x="723" y="399"/>
      <point x="723" y="425" type="curve" smooth="yes"/>
      <point x="723" y="440"/>
      <point x="734" y="455"/>
      <point x="764" y="455" type="curve" smooth="yes"/>
      <point x="795" y="455"/>
      <point x="812" y="439"/>
      <point x="812" y="417" type="curve" smooth="yes"/>
      <point x="812" y="378"/>
      <point x="775" y="362"/>
      <point x="734" y="358" type="curve"/>
      <point x="469" y="358" type="line"/>
      <point x="469" y="219" type="line"/>
      <point x="694" y="219" type="line" smooth="yes"/>
      <point x="773" y="219"/>
      <point x="845" y="238"/>
      <point x="886" y="263" type="curve" smooth="yes"/>
      <point x="954" y="304"/>
      <point x="987" y="360"/>
      <point x="987" y="424" type="curve" smooth="yes"/>
      <point x="987" y="513"/>
      <point x="907" y="586"/>
      <point x="763" y="586" type="curve" smooth="yes"/>
      <point x="645" y="586"/>
      <point x="562" y="540"/>
      <point x="562" y="447" type="curve" smooth="yes"/>
      <point x="562" y="389"/>
      <point x="599" y="337"/>
      <point x="688" y="308" type="curve" smooth="yes"/>
      <point x="700" y="304"/>
      <point x="725" y="293"/>
      <point x="737" y="287" type="curve"/>
      <point x="758" y="278"/>
      <point x="773" y="262"/>
      <point x="773" y="240" type="curve" smooth="yes"/>
      <point x="773" y="186"/>
      <point x="691" y="152"/>
      <point x="511" y="152" type="curve" smooth="yes"/>
      <point x="276" y="152"/>
      <point x="204" y="236"/>
      <point x="204" y="301" type="curve" smooth="yes"/>
      <point x="204" y="332" type="line" smooth="yes"/>
      <point x="204" y="416"/>
      <point x="238" y="456"/>
      <point x="279" y="456" type="curve" smooth="yes"/>
      <point x="304" y="456"/>
      <point x="318" y="442"/>
      <point x="318" y="417" type="curve" smooth="yes"/>
      <point x="318" y="385"/>
      <point x="294" y="368"/>
      <point x="247" y="368" type="curve" smooth="yes"/>
      <point x="186" y="368"/>
      <point x="147" y="418"/>
      <point x="132" y="445" type="curve"/>
      <point x="107" y="318" type="line"/>
      <point x="139" y="285"/>
      <point x="214" y="243"/>
      <point x="278" y="243" type="curve" smooth="yes"/>
      <point x="398" y="243"/>
      <point x="475" y="290"/>
      <point x="475" y="411" type="curve" smooth="yes"/>
      <point x="475" y="505"/>
      <point x="413" y="586"/>
      <point x="287" y="586" type="curve" smooth="yes"/>
      <point x="134" y="586"/>
      <point x="27" y="490"/>
      <point x="27" y="332" type="curve" smooth="yes"/>
      <point x="27" y="124"/>
      <point x="181" y="-12"/>
    </contour>
  </outline>
</glyph>
<glyph name="iknda" format="2">
  <advance width="871"/>
  <unicode hex="0C87"/>
  <outline>
    <contour>
      <point x="410" y="-12" type="curve" smooth="yes"/>
      <point x="521" y="-12"/>
      <point x="605" y="10"/>
      <point x="687" y="66" type="curve"/>
      <point x="724" y="80" type="line"/>
      <point x="799" y="133"/>
      <point x="841" y="218"/>
      <point x="841" y="324" type="curve" smooth="yes"/>
      <point x="841" y="492"/>
      <point x="747" y="586"/>
      <point x="592" y="586" type="curve" smooth="yes"/>
      <point x="513" y="586"/>
      <point x="457" y="556"/>
      <point x="404" y="505" type="curve"/>
      <point x="423" y="504" type="line"/>
      <point x="367" y="560"/>
      <point x="317" y="586"/>
      <point x="232" y="586" type="curve" smooth="yes"/>
      <point x="104" y="586"/>
      <point x="21" y="521"/>
      <point x="21" y="413" type="curve" smooth="yes"/>
      <point x="21" y="370"/>
      <point x="33" y="328"/>
      <point x="45" y="299" type="curve"/>
      <point x="223" y="348" type="line"/>
      <point x="217" y="361"/>
      <point x="212" y="376"/>
      <point x="212" y="394" type="curve" smooth="yes"/>
      <point x="212" y="420"/>
      <point x="230" y="436"/>
      <point x="255" y="436" type="curve" smooth="yes"/>
      <point x="292" y="436"/>
      <point x="323" y="412"/>
      <point x="328" y="343" type="curve"/>
      <point x="494" y="343" type="line"/>
      <point x="501" y="401"/>
      <point x="532" y="426"/>
      <point x="572" y="426" type="curve" smooth="yes"/>
      <point x="621" y="426"/>
      <point x="651" y="392"/>
      <point x="651" y="325" type="curve" smooth="yes"/>
      <point x="651" y="225"/>
      <point x="577" y="129"/>
      <point x="425" y="129" type="curve" smooth="yes"/>
      <point x="355" y="129"/>
      <point x="342" y="142"/>
      <point x="342" y="160" type="curve" smooth="yes"/>
      <point x="342" y="175"/>
      <point x="356" y="187"/>
      <point x="397" y="187" type="curve" smooth="yes"/>
      <point x="527" y="187"/>
      <point x="606" y="81"/>
      <point x="623" y="-55" type="curve"/>
      <point x="814" y="-24" type="line"/>
      <point x="796" y="61"/>
      <point x="759" y="129"/>
      <point x="699" y="186" type="curve"/>
      <point x="612" y="276"/>
      <point x="525" y="319"/>
      <point x="394" y="319" type="curve" smooth="yes"/>
      <point x="236" y="319"/>
      <point x="165" y="252"/>
      <point x="165" y="157" type="curve" smooth="yes"/>
      <point x="165" y="58"/>
      <point x="232" y="-12"/>
    </contour>
  </outline>
</glyph>
<glyph name="iiknda" format="2">
  <advance width="1140"/>
  <unicode hex="0C88"/>
  <outline>
    <contour>
      <point x="402" y="-12" type="curve" smooth="yes"/>
      <point x="618" y="-12"/>
      <point x="730" y="78"/>
      <point x="730" y="243" type="curve" smooth="yes"/>
      <point x="730" y="326"/>
      <point x="694" y="406"/>
      <point x="615" y="451" type="curve"/>
      <point x="586" y="427" type="line"/>
      <point x="634" y="437"/>
      <point x="667" y="457"/>
      <point x="688" y="480" type="curve" smooth="yes"/>
      <point x="714" y="508"/>
      <point x="730" y="546"/>
      <point x="730" y="597" type="curve" smooth="yes"/>
      <point x="730" y="654"/>
      <point x="714" y="713"/>
      <point x="645" y="798" type="curve"/>
      <point x="505" y="715" type="line"/>
      <point x="537" y="678"/>
      <point x="549" y="652"/>
      <point x="549" y="623" type="curve" smooth="yes"/>
      <point x="549" y="606"/>
      <point x="544" y="594"/>
      <point x="533" y="587" type="curve" smooth="yes"/>
      <point x="518" y="577"/>
      <point x="495" y="574"/>
      <point x="437" y="574" type="curve" smooth="yes"/>
      <point x="68" y="574" type="line"/>
      <point x="68" y="418" type="line"/>
      <point x="239" y="418" type="line"/>
      <point x="217" y="443" type="line"/>
      <point x="115" y="412"/>
      <point x="68" y="336"/>
      <point x="68" y="240" type="curve" smooth="yes"/>
      <point x="68" y="81"/>
      <point x="188" y="-12"/>
    </contour>
    <contour>
      <point x="400" y="147" type="curve" smooth="yes"/>
      <point x="311" y="147"/>
      <point x="256" y="189"/>
      <point x="256" y="281" type="curve" smooth="yes"/>
      <point x="256" y="297"/>
      <point x="258" y="313"/>
      <point x="262" y="328" type="curve" smooth="yes"/>
      <point x="277" y="381"/>
      <point x="324" y="418"/>
      <point x="400" y="418" type="curve" smooth="yes"/>
      <point x="469" y="418"/>
      <point x="517" y="385"/>
      <point x="534" y="333" type="curve" smooth="yes"/>
      <point x="539" y="317"/>
      <point x="542" y="300"/>
      <point x="542" y="281" type="curve" smooth="yes"/>
      <point x="542" y="198"/>
      <point x="495" y="147"/>
    </contour>
    <contour>
      <point x="835" y="159" type="curve"/>
      <point x="854" y="6" type="line"/>
      <point x="1011" y="17"/>
      <point x="1074" y="64"/>
      <point x="1074" y="156" type="curve" smooth="yes"/>
      <point x="1074" y="209"/>
      <point x="1046" y="248"/>
      <point x="996" y="288" type="curve"/>
      <point x="967" y="326" type="line"/>
      <point x="917" y="371"/>
      <point x="906" y="387"/>
      <point x="906" y="408" type="curve" smooth="yes"/>
      <point x="906" y="429"/>
      <point x="919" y="442"/>
      <point x="941" y="442" type="curve" smooth="yes"/>
      <point x="964" y="442"/>
      <point x="975" y="424"/>
      <point x="975" y="406" type="curve" smooth="yes"/>
      <point x="975" y="360"/>
      <point x="919" y="355"/>
      <point x="869" y="355" type="curve" smooth="yes"/>
      <point x="20" y="355" type="line"/>
      <point x="20" y="217" type="line"/>
      <point x="792" y="217" type="line" smooth="yes"/>
      <point x="980" y="217"/>
      <point x="1121" y="259"/>
      <point x="1121" y="411" type="curve" smooth="yes"/>
      <point x="1121" y="499"/>
      <point x="1057" y="567"/>
      <point x="931" y="567" type="curve" smooth="yes"/>
      <point x="831" y="567"/>
      <point x="764" y="511"/>
      <point x="764" y="434" type="curve" smooth="yes"/>
      <point x="764" y="382"/>
      <point x="797" y="343"/>
      <point x="837" y="304" type="curve"/>
      <point x="851" y="255" type="line"/>
      <point x="888" y="237"/>
      <point x="912" y="215"/>
      <point x="912" y="195" type="curve" smooth="yes"/>
      <point x="912" y="174"/>
      <point x="899" y="161"/>
    </contour>
  </outline>
</glyph>
<glyph name="uknda" format="2">
  <advance width="1411"/>
  <unicode hex="0C89"/>
  <outline>
    <contour>
      <point x="1093" y="-12" type="curve" smooth="yes"/>
      <point x="1293" y="-12"/>
      <point x="1378" y="94"/>
      <point x="1378" y="246" type="curve" smooth="yes"/>
      <point x="1378" y="394"/>
      <point x="1296" y="509"/>
      <point x="1169" y="588" type="curve"/>
      <point x="1043" y="446" type="line"/>
      <point x="1130" y="390"/>
      <point x="1188" y="323"/>
      <point x="1188" y="242" type="curve" smooth="yes"/>
      <point x="1188" y="181"/>
      <point x="1158" y="150"/>
      <point x="1096" y="150" type="curve" smooth="yes"/>
      <point x="1064" y="150"/>
      <point x="1037" y="158"/>
      <point x="1021" y="178" type="curve" smooth="yes"/>
      <point x="1005" y="198"/>
      <point x="998" y="222"/>
      <point x="998" y="272" type="curve" smooth="yes"/>
      <point x="998" y="349" type="line" smooth="yes"/>
      <point x="998" y="447"/>
      <point x="973" y="508"/>
      <point x="914" y="547" type="curve" smooth="yes"/>
      <point x="878" y="571"/>
      <point x="827" y="586"/>
      <point x="764" y="586" type="curve" smooth="yes"/>
      <point x="600" y="586"/>
      <point x="530" y="499"/>
      <point x="530" y="407" type="curve" smooth="yes"/>
      <point x="530" y="350"/>
      <point x="537" y="311"/>
      <point x="537" y="269" type="curve" smooth="yes"/>
      <point x="537" y="188"/>
      <point x="490" y="150"/>
      <point x="395" y="150" type="curve" smooth="yes"/>
      <point x="243" y="150"/>
      <point x="201" y="251"/>
      <point x="201" y="314" type="curve" smooth="yes"/>
      <point x="201" y="330" type="line" smooth="yes"/>
      <point x="201" y="412"/>
      <point x="239" y="456"/>
      <point x="280" y="456" type="curve" smooth="yes"/>
      <point x="305" y="456"/>
      <point x="319" y="442"/>
      <point x="319" y="418" type="curve" smooth="yes"/>
      <point x="319" y="385"/>
      <point x="295" y="368"/>
      <point x="248" y="368" type="curve" smooth="yes"/>
      <point x="187" y="368"/>
      <point x="148" y="418"/>
      <point x="133" y="445" type="curve"/>
      <point x="108" y="318" type="line"/>
      <point x="140" y="285"/>
      <point x="211" y="243"/>
      <point x="294" y="243" type="curve" smooth="yes"/>
      <point x="413" y="243"/>
      <point x="488" y="293"/>
      <point x="488" y="410" type="curve" smooth="yes"/>
      <point x="488" y="508"/>
      <point x="421" y="586"/>
      <point x="295" y="586" type="curve" smooth="yes"/>
      <point x="135" y="586"/>
      <point x="28" y="489"/>
      <point x="28" y="316" type="curve" smooth="yes"/>
      <point x="28" y="121"/>
      <point x="158" y="-12"/>
      <point x="398" y="-12" type="curve" smooth="yes"/>
      <point x="596" y="-12"/>
      <point x="725" y="58"/>
      <point x="725" y="242" type="curve" smooth="yes"/>
      <point x="725" y="285"/>
      <point x="718" y="330"/>
      <point x="718" y="367" type="curve" smooth="yes"/>
      <point x="718" y="406"/>
      <point x="733" y="429"/>
      <point x="762" y="429" type="curve" smooth="yes"/>
      <point x="777" y="429"/>
      <point x="787" y="424"/>
      <point x="794" y="416" type="curve" smooth="yes"/>
      <point x="808" y="401"/>
      <point x="810" y="373"/>
      <point x="810" y="332" type="curve" smooth="yes"/>
      <point x="810" y="275" type="line" smooth="yes"/>
      <point x="810" y="158"/>
      <point x="835" y="104"/>
      <point x="873" y="62" type="curve" smooth="yes"/>
      <point x="919" y="11"/>
      <point x="994" y="-12"/>
    </contour>
  </outline>
</glyph>
<glyph name="uuknda" format="2">
  <advance width="1858"/>
  <unicode hex="0C8A"/>
  <outline>
    <contour>
      <point x="1048" y="-12" type="curve" smooth="yes"/>
      <point x="1191" y="-12"/>
      <point x="1277" y="60"/>
      <point x="1277" y="182" type="curve" smooth="yes"/>
      <point x="1277" y="219"/>
      <point x="1274" y="252"/>
      <point x="1274" y="286" type="curve" smooth="yes"/>
      <point x="1274" y="385"/>
      <point x="1335" y="426"/>
      <point x="1438" y="426" type="curve" smooth="yes"/>
      <point x="1566" y="426"/>
      <point x="1639" y="351"/>
      <point x="1639" y="254" type="curve" smooth="yes"/>
      <point x="1639" y="181"/>
      <point x="1602" y="135"/>
      <point x="1530" y="135" type="curve" smooth="yes"/>
      <point x="1473" y="135"/>
      <point x="1455" y="168"/>
      <point x="1455" y="196" type="curve" smooth="yes"/>
      <point x="1455" y="204"/>
      <point x="1455" y="212"/>
      <point x="1458" y="227" type="curve"/>
      <point x="1438" y="192" type="line"/>
      <point x="1459" y="171"/>
      <point x="1479" y="167"/>
      <point x="1500" y="167" type="curve" smooth="yes"/>
      <point x="1553" y="167"/>
      <point x="1576" y="195"/>
      <point x="1576" y="240" type="curve" smooth="yes"/>
      <point x="1576" y="292"/>
      <point x="1543" y="328"/>
      <point x="1468" y="328" type="curve" smooth="yes"/>
      <point x="1375" y="328"/>
      <point x="1323" y="259"/>
      <point x="1323" y="179" type="curve" smooth="yes"/>
      <point x="1323" y="58"/>
      <point x="1405" y="-12"/>
      <point x="1555" y="-12" type="curve" smooth="yes"/>
      <point x="1727" y="-12"/>
      <point x="1826" y="97"/>
      <point x="1826" y="258" type="curve" smooth="yes"/>
      <point x="1826" y="420"/>
      <point x="1716" y="586"/>
      <point x="1430" y="586" type="curve" smooth="yes"/>
      <point x="1238" y="586"/>
      <point x="1086" y="505"/>
      <point x="1086" y="322" type="curve" smooth="yes"/>
      <point x="1086" y="281"/>
      <point x="1091" y="248"/>
      <point x="1091" y="213" type="curve" smooth="yes"/>
      <point x="1091" y="163"/>
      <point x="1076" y="145"/>
      <point x="1046" y="145" type="curve" smooth="yes"/>
      <point x="1032" y="145"/>
      <point x="1022" y="150"/>
      <point x="1015" y="157" type="curve" smooth="yes"/>
      <point x="1000" y="172"/>
      <point x="998" y="200"/>
      <point x="998" y="242" type="curve" smooth="yes"/>
      <point x="998" y="349" type="line" smooth="yes"/>
      <point x="998" y="447"/>
      <point x="973" y="508"/>
      <point x="914" y="547" type="curve" smooth="yes"/>
      <point x="878" y="571"/>
      <point x="827" y="586"/>
      <point x="764" y="586" type="curve" smooth="yes"/>
      <point x="600" y="586"/>
      <point x="530" y="499"/>
      <point x="530" y="407" type="curve" smooth="yes"/>
      <point x="530" y="350"/>
      <point x="537" y="311"/>
      <point x="537" y="269" type="curve" smooth="yes"/>
      <point x="537" y="188"/>
      <point x="490" y="150"/>
      <point x="395" y="150" type="curve" smooth="yes"/>
      <point x="243" y="150"/>
      <point x="201" y="251"/>
      <point x="201" y="314" type="curve" smooth="yes"/>
      <point x="201" y="330" type="line" smooth="yes"/>
      <point x="201" y="412"/>
      <point x="239" y="456"/>
      <point x="280" y="456" type="curve" smooth="yes"/>
      <point x="305" y="456"/>
      <point x="319" y="442"/>
      <point x="319" y="418" type="curve" smooth="yes"/>
      <point x="319" y="385"/>
      <point x="295" y="368"/>
      <point x="248" y="368" type="curve" smooth="yes"/>
      <point x="187" y="368"/>
      <point x="148" y="418"/>
      <point x="133" y="445" type="curve"/>
      <point x="108" y="318" type="line"/>
      <point x="140" y="285"/>
      <point x="211" y="243"/>
      <point x="294" y="243" type="curve" smooth="yes"/>
      <point x="413" y="243"/>
      <point x="488" y="293"/>
      <point x="488" y="410" type="curve" smooth="yes"/>
      <point x="488" y="508"/>
      <point x="421" y="586"/>
      <point x="295" y="586" type="curve" smooth="yes"/>
      <point x="135" y="586"/>
      <point x="28" y="489"/>
      <point x="28" y="316" type="curve" smooth="yes"/>
      <point x="28" y="121"/>
      <point x="158" y="-12"/>
      <point x="398" y="-12" type="curve" smooth="yes"/>
      <point x="596" y="-12"/>
      <point x="725" y="58"/>
      <point x="725" y="242" type="curve" smooth="yes"/>
      <point x="725" y="285"/>
      <point x="718" y="330"/>
      <point x="718" y="367" type="curve" smooth="yes"/>
      <point x="718" y="406"/>
      <point x="733" y="429"/>
      <point x="762" y="429" type="curve" smooth="yes"/>
      <point x="777" y="429"/>
      <point x="787" y="424"/>
      <point x="794" y="416" type="curve" smooth="yes"/>
      <point x="808" y="401"/>
      <point x="810" y="374"/>
      <point x="810" y="332" type="curve" smooth="yes"/>
      <point x="810" y="221" type="line" smooth="yes"/>
      <point x="810" y="143"/>
      <point x="824" y="90"/>
      <point x="858" y="53" type="curve" smooth="yes"/>
      <point x="904" y="4"/>
      <point x="967" y="-12"/>
    </contour>
  </outline>
</glyph>
<glyph name="lvocalicknda" format="2">
  <advance width="1032"/>
  <unicode hex="0C8C"/>
  <outline>
    <contour>
      <point x="560" y="-12" type="curve" smooth="yes"/>
      <point x="823" y="-12"/>
      <point x="998" y="92"/>
      <point x="998" y="317" type="curve" smooth="yes"/>
      <point x="998" y="401"/>
      <point x="972" y="495"/>
      <point x="896" y="588" type="curve"/>
      <point x="744" y="499" type="line"/>
      <point x="778" y="453"/>
      <point x="807" y="389"/>
      <point x="807" y="321" type="curve" smooth="yes"/>
      <point x="807" y="207"/>
      <point x="699" y="146"/>
      <point x="547" y="146" type="curve" smooth="yes"/>
      <point x="482" y="146"/>
      <point x="469" y="156"/>
      <point x="469" y="175" type="curve" smooth="yes"/>
      <point x="469" y="187"/>
      <point x="478" y="200"/>
      <point x="531" y="213" type="curve" smooth="yes"/>
      <point x="698" y="254"/>
      <point x="745" y="314"/>
      <point x="745" y="415" type="curve" smooth="yes"/>
      <point x="745" y="503"/>
      <point x="687" y="586"/>
      <point x="556" y="586" type="curve" smooth="yes"/>
      <point x="473" y="586"/>
      <point x="406" y="554"/>
      <point x="347" y="462" type="curve"/>
      <point x="421" y="461" type="line"/>
      <point x="378" y="556"/>
      <point x="300" y="586"/>
      <point x="220" y="586" type="curve" smooth="yes"/>
      <point x="109" y="586"/>
      <point x="21" y="530"/>
      <point x="21" y="417" type="curve" smooth="yes"/>
      <point x="21" y="376"/>
      <point x="31" y="340"/>
      <point x="44" y="308" type="curve"/>
      <point x="220" y="360" type="line"/>
      <point x="214" y="373"/>
      <point x="212" y="388"/>
      <point x="212" y="397" type="curve" smooth="yes"/>
      <point x="212" y="426"/>
      <point x="229" y="436"/>
      <point x="248" y="436" type="curve" smooth="yes"/>
      <point x="279" y="436"/>
      <point x="296" y="399"/>
      <point x="304" y="356" type="curve"/>
      <point x="470" y="356" type="line"/>
      <point x="479" y="397"/>
      <point x="500" y="427"/>
      <point x="538" y="427" type="curve" smooth="yes"/>
      <point x="561" y="427"/>
      <point x="570" y="416"/>
      <point x="570" y="400" type="curve" smooth="yes"/>
      <point x="570" y="378"/>
      <point x="547" y="364"/>
      <point x="491" y="349" type="curve" smooth="yes"/>
      <point x="337" y="307"/>
      <point x="276" y="258"/>
      <point x="276" y="168" type="curve" smooth="yes"/>
      <point x="276" y="46"/>
      <point x="377" y="-12"/>
    </contour>
  </outline>
</glyph>
<glyph name="eknda" format="2">
  <advance width="920"/>
  <unicode hex="0C8E"/>
  <outline>
    <contour>
      <point x="685" y="-12" type="curve" smooth="yes"/>
      <point x="792" y="-12"/>
      <point x="891" y="37"/>
      <point x="891" y="220" type="curve" smooth="yes"/>
      <point x="891" y="429"/>
      <point x="736" y="608"/>
      <point x="285" y="609" type="curve"/>
      <point x="271" y="439" type="line"/>
      <point x="529" y="436"/>
      <point x="700" y="376"/>
      <point x="700" y="223" type="curve" smooth="yes"/>
      <point x="700" y="173"/>
      <point x="684" y="150"/>
      <point x="646" y="150" type="curve" smooth="yes"/>
      <point x="609" y="150"/>
      <point x="580" y="174"/>
      <point x="577" y="238" type="curve"/>
      <point x="411" y="238" type="line"/>
      <point x="398" y="177"/>
      <point x="362" y="145"/>
      <point x="286" y="145" type="curve" smooth="yes"/>
      <point x="212" y="145"/>
      <point x="182" y="161"/>
      <point x="182" y="195" type="curve" smooth="yes"/>
      <point x="182" y="211"/>
      <point x="192" y="225"/>
      <point x="211" y="225" type="curve" smooth="yes"/>
      <point x="228" y="225"/>
      <point x="237" y="214"/>
      <point x="237" y="197" type="curve" smooth="yes"/>
      <point x="237" y="193"/>
      <point x="237" y="186"/>
      <point x="236" y="182" type="curve"/>
      <point x="359" y="176" type="line"/>
      <point x="367" y="191"/>
      <point x="372" y="217"/>
      <point x="372" y="239" type="curve" smooth="yes"/>
      <point x="372" y="308"/>
      <point x="327" y="357"/>
      <point x="215" y="357" type="curve" smooth="yes"/>
      <point x="101" y="357"/>
      <point x="23" y="293"/>
      <point x="23" y="183" type="curve" smooth="yes"/>
      <point x="23" y="65"/>
      <point x="102" y="-12"/>
      <point x="260" y="-12" type="curve" smooth="yes"/>
      <point x="392" y="-12"/>
      <point x="457" y="27"/>
      <point x="533" y="98" type="curve"/>
      <point x="453" y="105" type="line"/>
      <point x="510" y="31"/>
      <point x="565" y="-12"/>
    </contour>
  </outline>
</glyph>
<glyph name="eeknda" format="2">
  <advance width="920"/>
  <unicode hex="0C8F"/>
  <outline>
    <contour>
      <point x="685" y="-12" type="curve" smooth="yes"/>
      <point x="792" y="-12"/>
      <point x="891" y="37"/>
      <point x="891" y="222" type="curve" smooth="yes"/>
      <point x="891" y="409"/>
      <point x="755" y="572"/>
      <point x="400" y="609" type="curve"/>
      <point x="389" y="542"/>
      <point x="372" y="509"/>
      <point x="330" y="509" type="curve" smooth="yes"/>
      <point x="287" y="509"/>
      <point x="272" y="542"/>
      <point x="271" y="609" type="curve"/>
      <point x="90" y="594" type="line"/>
      <point x="99" y="423"/>
      <point x="198" y="372"/>
      <point x="323" y="372" type="curve" smooth="yes"/>
      <point x="426" y="372"/>
      <point x="501" y="412"/>
      <point x="542" y="500" type="curve"/>
      <point x="452" y="435" type="line"/>
      <point x="571" y="413"/>
      <point x="700" y="357"/>
      <point x="700" y="225" type="curve" smooth="yes"/>
      <point x="700" y="173"/>
      <point x="684" y="150"/>
      <point x="646" y="150" type="curve" smooth="yes"/>
      <point x="609" y="150"/>
      <point x="580" y="174"/>
      <point x="577" y="238" type="curve"/>
      <point x="411" y="238" type="line"/>
      <point x="398" y="177"/>
      <point x="362" y="145"/>
      <point x="286" y="145" type="curve" smooth="yes"/>
      <point x="212" y="145"/>
      <point x="182" y="161"/>
      <point x="182" y="195" type="curve" smooth="yes"/>
      <point x="182" y="211"/>
      <point x="192" y="225"/>
      <point x="211" y="225" type="curve" smooth="yes"/>
      <point x="228" y="225"/>
      <point x="237" y="214"/>
      <point x="237" y="197" type="curve" smooth="yes"/>
      <point x="237" y="193"/>
      <point x="237" y="186"/>
      <point x="236" y="182" type="curve"/>
      <point x="359" y="176" type="line"/>
      <point x="367" y="191"/>
      <point x="372" y="217"/>
      <point x="372" y="239" type="curve" smooth="yes"/>
      <point x="372" y="308"/>
      <point x="327" y="357"/>
      <point x="215" y="357" type="curve" smooth="yes"/>
      <point x="101" y="357"/>
      <point x="23" y="293"/>
      <point x="23" y="183" type="curve" smooth="yes"/>
      <point x="23" y="65"/>
      <point x="102" y="-12"/>
      <point x="260" y="-12" type="curve" smooth="yes"/>
      <point x="392" y="-12"/>
      <point x="457" y="27"/>
      <point x="533" y="98" type="curve"/>
      <point x="453" y="105" type="line"/>
      <point x="510" y="31"/>
      <point x="565" y="-12"/>
    </contour>
  </outline>
</glyph>
<glyph name="aiknda" format="2">
  <advance width="945"/>
  <unicode hex="0C90"/>
  <outline>
    <contour>
      <point x="679" y="-12" type="curve" smooth="yes"/>
      <point x="816" y="-12"/>
      <point x="911" y="58"/>
      <point x="911" y="262" type="curve" smooth="yes"/>
      <point x="911" y="470"/>
      <point x="802" y="586"/>
      <point x="649" y="586" type="curve" smooth="yes"/>
      <point x="566" y="586"/>
      <point x="509" y="559"/>
      <point x="454" y="499" type="curve"/>
      <point x="479" y="494" type="line"/>
      <point x="425" y="547"/>
      <point x="375" y="586"/>
      <point x="264" y="586" type="curve" smooth="yes"/>
      <point x="129" y="586"/>
      <point x="51" y="524"/>
      <point x="51" y="427" type="curve" smooth="yes"/>
      <point x="51" y="405"/>
      <point x="56" y="373"/>
      <point x="67" y="347" type="curve"/>
      <point x="236" y="378" type="line"/>
      <point x="234" y="384"/>
      <point x="233" y="390"/>
      <point x="233" y="396" type="curve" smooth="yes"/>
      <point x="233" y="418"/>
      <point x="251" y="429"/>
      <point x="281" y="429" type="curve" smooth="yes"/>
      <point x="327" y="429"/>
      <point x="357" y="404"/>
      <point x="381" y="363" type="curve"/>
      <point x="546" y="363" type="line"/>
      <point x="558" y="396"/>
      <point x="584" y="424"/>
      <point x="626" y="424" type="curve" smooth="yes"/>
      <point x="671" y="424"/>
      <point x="721" y="385"/>
      <point x="721" y="263" type="curve" smooth="yes"/>
      <point x="721" y="199"/>
      <point x="705" y="150"/>
      <point x="652" y="150" type="curve" smooth="yes"/>
      <point x="619" y="150"/>
      <point x="590" y="174"/>
      <point x="587" y="238" type="curve"/>
      <point x="421" y="238" type="line"/>
      <point x="408" y="177"/>
      <point x="372" y="145"/>
      <point x="296" y="145" type="curve" smooth="yes"/>
      <point x="222" y="145"/>
      <point x="192" y="161"/>
      <point x="192" y="195" type="curve" smooth="yes"/>
      <point x="192" y="211"/>
      <point x="202" y="225"/>
      <point x="221" y="225" type="curve" smooth="yes"/>
      <point x="238" y="225"/>
      <point x="247" y="214"/>
      <point x="247" y="197" type="curve" smooth="yes"/>
      <point x="247" y="193"/>
      <point x="247" y="186"/>
      <point x="246" y="182" type="curve"/>
      <point x="369" y="176" type="line"/>
      <point x="377" y="191"/>
      <point x="382" y="217"/>
      <point x="382" y="239" type="curve" smooth="yes"/>
      <point x="382" y="308"/>
      <point x="337" y="357"/>
      <point x="225" y="357" type="curve" smooth="yes"/>
      <point x="111" y="357"/>
      <point x="33" y="293"/>
      <point x="33" y="183" type="curve" smooth="yes"/>
      <point x="33" y="65"/>
      <point x="112" y="-12"/>
      <point x="270" y="-12" type="curve" smooth="yes"/>
      <point x="402" y="-12"/>
      <point x="467" y="27"/>
      <point x="543" y="98" type="curve"/>
      <point x="463" y="105" type="line"/>
      <point x="520" y="31"/>
      <point x="570" y="-12"/>
    </contour>
  </outline>
</glyph>
<glyph name="ooknda" format="2">
  <advance width="923"/>
  <unicode hex="0C93"/>
  <outline>
    <contour>
      <point x="158" y="508" type="curve"/>
      <point x="294" y="567" type="line"/>
      <point x="265" y="583"/>
      <point x="249" y="596"/>
      <point x="249" y="615" type="curve" smooth="yes"/>
      <point x="249" y="632"/>
      <point x="259" y="647"/>
      <point x="315" y="652" type="curve"/>
      <point x="301" y="798" type="line"/>
      <point x="128" y="794"/>
      <point x="70" y="726"/>
      <point x="70" y="651" type="curve" smooth="yes"/>
      <point x="70" y="589"/>
      <point x="108" y="549"/>
    </contour>
    <component base="oknda"/>
  </outline>
</glyph>
<glyph name="auknda" format="2">
  <advance width="924"/>
  <unicode hex="0C94"/>
  <outline>
    <contour>
      <point x="661" y="-12" type="curve" smooth="yes"/>
      <point x="817" y="-12"/>
      <point x="900" y="56"/>
      <point x="900" y="192" type="curve" smooth="yes"/>
      <point x="900" y="245"/>
      <point x="886" y="292"/>
      <point x="853" y="339" type="curve"/>
      <point x="693" y="266" type="line"/>
      <point x="703" y="250"/>
      <point x="710" y="230"/>
      <point x="710" y="208" type="curve" smooth="yes"/>
      <point x="710" y="174"/>
      <point x="687" y="150"/>
      <point x="644" y="150" type="curve" smooth="yes"/>
      <point x="589" y="150"/>
      <point x="563" y="176"/>
      <point x="557" y="238" type="curve"/>
      <point x="389" y="238" type="line"/>
      <point x="380" y="182"/>
      <point x="350" y="145"/>
      <point x="286" y="145" type="curve" smooth="yes"/>
      <point x="251" y="145"/>
      <point x="237" y="156"/>
      <point x="237" y="176" type="curve" smooth="yes"/>
      <point x="237" y="192"/>
      <point x="244" y="204"/>
      <point x="300" y="238" type="curve" smooth="yes"/>
      <point x="421" y="310"/>
      <point x="458" y="353"/>
      <point x="458" y="434" type="curve" smooth="yes"/>
      <point x="458" y="505"/>
      <point x="409" y="586"/>
      <point x="243" y="586" type="curve" smooth="yes"/>
      <point x="91" y="586"/>
      <point x="21" y="527"/>
      <point x="21" y="433" type="curve" smooth="yes"/>
      <point x="21" y="394"/>
      <point x="34" y="351"/>
      <point x="50" y="324" type="curve"/>
      <point x="210" y="379" type="line"/>
      <point x="203" y="391"/>
      <point x="199" y="405"/>
      <point x="199" y="417" type="curve" smooth="yes"/>
      <point x="199" y="437"/>
      <point x="212" y="451"/>
      <point x="238" y="451" type="curve" smooth="yes"/>
      <point x="261" y="451"/>
      <point x="272" y="441"/>
      <point x="272" y="424" type="curve" smooth="yes"/>
      <point x="272" y="403"/>
      <point x="262" y="388"/>
      <point x="207" y="357" type="curve" smooth="yes"/>
      <point x="72" y="281"/>
      <point x="48" y="230"/>
      <point x="48" y="157" type="curve" smooth="yes"/>
      <point x="48" y="59"/>
      <point x="112" y="-12"/>
      <point x="255" y="-12" type="curve" smooth="yes"/>
      <point x="335" y="-12"/>
      <point x="418" y="-2"/>
      <point x="510" y="99" type="curve"/>
      <point x="433" y="105" type="line"/>
      <point x="490" y="31"/>
      <point x="550" y="-12"/>
    </contour>
    <contour>
      <point x="87" y="469" type="line"/>
      <point x="195" y="469" type="line" smooth="yes"/>
      <point x="254" y="469"/>
      <point x="314" y="470"/>
      <point x="353" y="498" type="curve" smooth="yes"/>
      <point x="394" y="527"/>
      <point x="400" y="571"/>
      <point x="400" y="588" type="curve" smooth="yes"/>
      <point x="400" y="625"/>
      <point x="373" y="670"/>
      <point x="336" y="695" type="curve"/>
      <point x="196" y="668" type="line"/>
      <point x="219" y="645"/>
      <point x="231" y="628"/>
      <point x="231" y="611" type="curve" smooth="yes"/>
      <point x="231" y="604"/>
      <point x="230" y="599"/>
      <point x="226" y="595" type="curve" smooth="yes"/>
      <point x="220" y="589"/>
      <point x="211" y="586"/>
      <point x="181" y="586" type="curve" smooth="yes"/>
      <point x="86" y="586" type="line"/>
    </contour>
    <contour>
      <point x="660" y="305" type="curve" smooth="yes"/>
      <point x="784" y="305"/>
      <point x="881" y="383"/>
      <point x="881" y="532" type="curve" smooth="yes"/>
      <point x="881" y="616"/>
      <point x="852" y="681"/>
      <point x="801" y="722" type="curve" smooth="yes"/>
      <point x="741" y="771"/>
      <point x="668" y="792"/>
      <point x="533" y="792" type="curve" smooth="yes"/>
      <point x="40" y="792" type="line"/>
      <point x="40" y="643" type="line"/>
      <point x="508" y="643" type="line" smooth="yes"/>
      <point x="602" y="643"/>
      <point x="642" y="634"/>
      <point x="674" y="612" type="curve" smooth="yes"/>
      <point x="701" y="594"/>
      <point x="718" y="561"/>
      <point x="718" y="518" type="curve" smooth="yes"/>
      <point x="718" y="457"/>
      <point x="689" y="431"/>
      <point x="649" y="431" type="curve" smooth="yes"/>
      <point x="605" y="431"/>
      <point x="591" y="457"/>
      <point x="591" y="482" type="curve" smooth="yes"/>
      <point x="591" y="492"/>
      <point x="592" y="505"/>
      <point x="594" y="516" type="curve"/>
      <point x="562" y="490" type="line"/>
      <point x="575" y="470"/>
      <point x="602" y="458"/>
      <point x="623" y="458" type="curve" smooth="yes"/>
      <point x="670" y="458"/>
      <point x="688" y="490"/>
      <point x="688" y="523" type="curve" smooth="yes"/>
      <point x="688" y="569"/>
      <point x="657" y="601"/>
      <point x="596" y="601" type="curve" smooth="yes"/>
      <point x="520" y="601"/>
      <point x="476" y="547"/>
      <point x="476" y="472" type="curve" smooth="yes"/>
      <point x="476" y="367"/>
      <point x="543" y="305"/>
    </contour>
  </outline>
</glyph>
<glyph name="kaknda" format="2">
  <advance width="683"/>
  <unicode hex="0C95"/>
  <outline>
    <contour>
      <point x="337" y="-12" type="curve" smooth="yes"/>
      <point x="563" y="-12"/>
      <point x="625" y="63"/>
      <point x="625" y="144" type="curve" smooth="yes"/>
      <point x="625" y="184"/>
      <point x="606" y="223"/>
      <point x="558" y="251" type="curve"/>
      <point x="547" y="239" type="line"/>
      <point x="646" y="235" type="line"/>
      <point x="646" y="360" type="line"/>
      <point x="451" y="360" type="line"/>
      <point x="459" y="370"/>
      <point x="461" y="385"/>
      <point x="461" y="394" type="curve" smooth="yes"/>
      <point x="461" y="418"/>
      <point x="452" y="431"/>
      <point x="437" y="449" type="curve"/>
      <point x="362" y="459" type="line"/>
      <point x="251" y="449" type="line"/>
      <point x="273" y="436"/>
      <point x="287" y="417"/>
      <point x="287" y="398" type="curve" smooth="yes"/>
      <point x="287" y="383"/>
      <point x="274" y="367"/>
      <point x="258" y="360" type="curve"/>
      <point x="37" y="360" type="line"/>
      <point x="37" y="235" type="line"/>
      <point x="116" y="236" type="line"/>
      <point x="121" y="247" type="line"/>
      <point x="75" y="222"/>
      <point x="59" y="183"/>
      <point x="59" y="144" type="curve" smooth="yes"/>
      <point x="59" y="62"/>
      <point x="123" y="-12"/>
    </contour>
    <contour>
      <point x="341" y="146" type="curve" smooth="yes"/>
      <point x="274" y="146"/>
      <point x="247" y="169"/>
      <point x="247" y="202" type="curve" smooth="yes"/>
      <point x="247" y="231"/>
      <point x="272" y="253"/>
      <point x="341" y="253" type="curve" smooth="yes"/>
      <point x="408" y="253"/>
      <point x="437" y="233"/>
      <point x="437" y="201" type="curve" smooth="yes"/>
      <point x="437" y="171"/>
      <point x="414" y="146"/>
    </contour>
    <contour>
      <point x="35" y="418" type="line"/>
      <point x="400" y="418" type="line" smooth="yes"/>
      <point x="502" y="418"/>
      <point x="566" y="435"/>
      <point x="608" y="480" type="curve" smooth="yes"/>
      <point x="634" y="508"/>
      <point x="650" y="546"/>
      <point x="650" y="597" type="curve" smooth="yes"/>
      <point x="650" y="654"/>
      <point x="634" y="713"/>
      <point x="565" y="798" type="curve"/>
      <point x="425" y="715" type="line"/>
      <point x="457" y="678"/>
      <point x="469" y="652"/>
      <point x="469" y="623" type="curve" smooth="yes"/>
      <point x="469" y="606"/>
      <point x="464" y="594"/>
      <point x="453" y="587" type="curve" smooth="yes"/>
      <point x="438" y="577"/>
      <point x="415" y="574"/>
      <point x="357" y="574" type="curve" smooth="yes"/>
      <point x="35" y="574" type="line"/>
    </contour>
  </outline>
</glyph>
<glyph name="khaknda" format="2">
  <advance width="979"/>
  <unicode hex="0C96"/>
  <outline>
    <contour>
      <point x="675" y="-12" type="curve" smooth="yes"/>
      <point x="847" y="-12"/>
      <point x="947" y="94"/>
      <point x="947" y="259" type="curve" smooth="yes"/>
      <point x="947" y="425"/>
      <point x="838" y="559"/>
      <point x="684" y="652" type="curve"/>
      <point x="573" y="494" type="line"/>
      <point x="676" y="433"/>
      <point x="756" y="363"/>
      <point x="756" y="261" type="curve" smooth="yes"/>
      <point x="756" y="192"/>
      <point x="722" y="150"/>
      <point x="650" y="150" type="curve" smooth="yes"/>
      <point x="581" y="150"/>
      <point x="533" y="188"/>
      <point x="480" y="218" type="curve"/>
      <point x="432" y="222" type="line"/>
      <point x="373" y="255"/>
      <point x="302" y="286"/>
      <point x="211" y="286" type="curve" smooth="yes"/>
      <point x="73" y="286"/>
      <point x="20" y="219"/>
      <point x="20" y="145" type="curve" smooth="yes"/>
      <point x="20" y="40"/>
      <point x="97" y="-12"/>
      <point x="239" y="-12" type="curve" smooth="yes"/>
      <point x="356" y="-12"/>
      <point x="438" y="21"/>
      <point x="507" y="100" type="curve"/>
      <point x="554" y="154"/>
      <point x="585" y="221"/>
      <point x="585" y="309" type="curve" smooth="yes"/>
      <point x="585" y="467"/>
      <point x="490" y="586"/>
      <point x="303" y="586" type="curve" smooth="yes"/>
      <point x="167" y="586"/>
      <point x="85" y="522"/>
      <point x="85" y="425" type="curve" smooth="yes"/>
      <point x="85" y="338"/>
      <point x="148" y="290"/>
      <point x="242" y="290" type="curve" smooth="yes"/>
      <point x="315" y="290"/>
      <point x="348" y="325"/>
      <point x="348" y="368" type="curve" smooth="yes"/>
      <point x="348" y="399"/>
      <point x="332" y="427"/>
      <point x="292" y="427" type="curve" smooth="yes"/>
      <point x="261" y="427"/>
      <point x="241" y="407"/>
      <point x="237" y="383" type="curve"/>
      <point x="258" y="380" type="line"/>
      <point x="246" y="391"/>
      <point x="242" y="405"/>
      <point x="242" y="416" type="curve" smooth="yes"/>
      <point x="242" y="439"/>
      <point x="263" y="454"/>
      <point x="299" y="454" type="curve" smooth="yes"/>
      <point x="376" y="454"/>
      <point x="397" y="381"/>
      <point x="397" y="311" type="curve" smooth="yes"/>
      <point x="397" y="203"/>
      <point x="356" y="121"/>
      <point x="243" y="121" type="curve" smooth="yes"/>
      <point x="207" y="121"/>
      <point x="193" y="131"/>
      <point x="193" y="143" type="curve" smooth="yes"/>
      <point x="193" y="153"/>
      <point x="200" y="162"/>
      <point x="231" y="162" type="curve" smooth="yes"/>
      <point x="275" y="162"/>
      <point x="312" y="137"/>
      <point x="355" y="108" type="curve" smooth="yes"/>
      <point x="369" y="98"/>
      <point x="390" y="83"/>
      <point x="406" y="73" type="curve" smooth="yes"/>
      <point x="476" y="28"/>
      <point x="544" y="-12"/>
    </contour>
  </outline>
</glyph>
<glyph name="gaknda" format="2">
  <advance width="742"/>
  <unicode hex="0C97"/>
  <outline>
    <contour>
      <point x="372" y="418" type="curve" smooth="yes"/>
      <point x="434" y="418"/>
      <point x="462" y="366"/>
      <point x="481" y="297" type="curve" smooth="yes"/>
      <point x="492" y="256"/>
      <point x="498" y="174"/>
      <point x="498" y="74" type="curve" smooth="yes"/>
      <point x="498" y="0" type="line"/>
      <point x="697" y="0" type="line"/>
      <point x="697" y="126" type="line" smooth="yes"/>
      <point x="697" y="255"/>
      <point x="674" y="364"/>
      <point x="571" y="440" type="curve"/>
      <point x="551" y="427" type="line"/>
      <point x="660" y="448"/>
      <point x="697" y="524"/>
      <point x="697" y="597" type="curve" smooth="yes"/>
      <point x="697" y="654"/>
      <point x="681" y="713"/>
      <point x="612" y="798" type="curve"/>
      <point x="472" y="715" type="line"/>
      <point x="504" y="678"/>
      <point x="516" y="652"/>
      <point x="516" y="623" type="curve" smooth="yes"/>
      <point x="516" y="606"/>
      <point x="511" y="594"/>
      <point x="500" y="587" type="curve" smooth="yes"/>
      <point x="485" y="577"/>
      <point x="462" y="574"/>
      <point x="404" y="574" type="curve" smooth="yes"/>
      <point x="40" y="574" type="line"/>
      <point x="40" y="418" type="line"/>
      <point x="236" y="418" type="line"/>
      <point x="205" y="447" type="line"/>
      <point x="80" y="396"/>
      <point x="45" y="275"/>
      <point x="45" y="125" type="curve" smooth="yes"/>
      <point x="45" y="0" type="line"/>
      <point x="244" y="0" type="line"/>
      <point x="244" y="74" type="line" smooth="yes"/>
      <point x="244" y="173"/>
      <point x="248" y="248"/>
      <point x="261" y="297" type="curve" smooth="yes"/>
      <point x="279" y="366"/>
      <point x="308" y="418"/>
    </contour>
  </outline>
</glyph>
<glyph name="ngaknda" format="2">
  <advance width="923"/>
  <unicode hex="0C99"/>
  <outline>
    <contour>
      <point x="661" y="-12" type="curve" smooth="yes"/>
      <point x="817" y="-12"/>
      <point x="900" y="56"/>
      <point x="900" y="192" type="curve" smooth="yes"/>
      <point x="900" y="237"/>
      <point x="887" y="280"/>
      <point x="872" y="308" type="curve"/>
      <point x="699" y="253" type="line"/>
      <point x="705" y="242"/>
      <point x="710" y="225"/>
      <point x="710" y="206" type="curve" smooth="yes"/>
      <point x="710" y="174"/>
      <point x="687" y="150"/>
      <point x="644" y="150" type="curve" smooth="yes"/>
      <point x="589" y="150"/>
      <point x="563" y="176"/>
      <point x="557" y="238" type="curve"/>
      <point x="391" y="238" type="line"/>
      <point x="382" y="182"/>
      <point x="350" y="145"/>
      <point x="286" y="145" type="curve" smooth="yes"/>
      <point x="251" y="145"/>
      <point x="237" y="156"/>
      <point x="237" y="176" type="curve" smooth="yes"/>
      <point x="237" y="192"/>
      <point x="244" y="204"/>
      <point x="300" y="238" type="curve" smooth="yes"/>
      <point x="421" y="310"/>
      <point x="458" y="353"/>
      <point x="458" y="434" type="curve" smooth="yes"/>
      <point x="458" y="505"/>
      <point x="409" y="586"/>
      <point x="243" y="586" type="curve" smooth="yes"/>
      <point x="91" y="586"/>
      <point x="21" y="527"/>
      <point x="21" y="433" type="curve" smooth="yes"/>
      <point x="21" y="394"/>
      <point x="34" y="351"/>
      <point x="50" y="324" type="curve"/>
      <point x="210" y="379" type="line"/>
      <point x="203" y="391"/>
      <point x="199" y="405"/>
      <point x="199" y="417" type="curve" smooth="yes"/>
      <point x="199" y="437"/>
      <point x="212" y="451"/>
      <point x="238" y="451" type="curve" smooth="yes"/>
      <point x="261" y="451"/>
      <point x="272" y="441"/>
      <point x="272" y="424" type="curve" smooth="yes"/>
      <point x="272" y="403"/>
      <point x="262" y="388"/>
      <point x="207" y="357" type="curve" smooth="yes"/>
      <point x="72" y="281"/>
      <point x="48" y="230"/>
      <point x="48" y="157" type="curve" smooth="yes"/>
      <point x="48" y="59"/>
      <point x="112" y="-12"/>
      <point x="255" y="-12" type="curve" smooth="yes"/>
      <point x="335" y="-12"/>
      <point x="418" y="-2"/>
      <point x="510" y="99" type="curve"/>
      <point x="433" y="105" type="line"/>
      <point x="490" y="31"/>
      <point x="550" y="-12"/>
    </contour>
    <contour>
      <point x="550" y="256" type="curve" smooth="yes"/>
      <point x="607" y="256"/>
      <point x="640" y="286"/>
      <point x="640" y="334" type="curve" smooth="yes"/>
      <point x="640" y="385"/>
      <point x="607" y="414"/>
      <point x="550" y="414" type="curve" smooth="yes"/>
      <point x="495" y="414"/>
      <point x="460" y="386"/>
      <point x="460" y="334" type="curve" smooth="yes"/>
      <point x="460" y="286"/>
      <point x="492" y="256"/>
    </contour>
    <contour>
      <point x="627" y="586" type="curve" smooth="yes"/>
      <point x="517" y="586"/>
      <point x="438" y="547"/>
      <point x="351" y="476" type="curve"/>
      <point x="358" y="404" type="line"/>
      <point x="421" y="369" type="line"/>
      <point x="474" y="425"/>
      <point x="535" y="454"/>
      <point x="595" y="454" type="curve" smooth="yes"/>
      <point x="644" y="454"/>
      <point x="674" y="433"/>
      <point x="674" y="391" type="curve" smooth="yes"/>
      <point x="674" y="381"/>
      <point x="672" y="362"/>
      <point x="669" y="352" type="curve"/>
      <point x="844" y="334" type="line"/>
      <point x="851" y="356"/>
      <point x="855" y="380"/>
      <point x="855" y="406" type="curve" smooth="yes"/>
      <point x="855" y="507"/>
      <point x="784" y="586"/>
    </contour>
  </outline>
</glyph>
<glyph name="caknda" format="2">
  <advance width="966"/>
  <unicode hex="0C9A"/>
  <outline>
    <contour>
      <point x="670" y="-12" type="curve" smooth="yes"/>
      <point x="817" y="-12"/>
      <point x="900" y="56"/>
      <point x="900" y="162" type="curve" smooth="yes"/>
      <point x="900" y="245"/>
      <point x="840" y="288"/>
      <point x="790" y="316" type="curve"/>
      <point x="656" y="246" type="line"/>
      <point x="682" y="238"/>
      <point x="710" y="224"/>
      <point x="710" y="194" type="curve" smooth="yes"/>
      <point x="710" y="168"/>
      <point x="691" y="150"/>
      <point x="648" y="150" type="curve" smooth="yes"/>
      <point x="585" y="150"/>
      <point x="564" y="183"/>
      <point x="553" y="230" type="curve"/>
      <point x="390" y="230" type="line"/>
      <point x="380" y="184"/>
      <point x="350" y="145"/>
      <point x="286" y="145" type="curve" smooth="yes"/>
      <point x="251" y="145"/>
      <point x="237" y="156"/>
      <point x="237" y="176" type="curve" smooth="yes"/>
      <point x="237" y="192"/>
      <point x="244" y="204"/>
      <point x="300" y="238" type="curve" smooth="yes"/>
      <point x="421" y="310"/>
      <point x="458" y="353"/>
      <point x="458" y="434" type="curve" smooth="yes"/>
      <point x="458" y="505"/>
      <point x="409" y="586"/>
      <point x="243" y="586" type="curve" smooth="yes"/>
      <point x="91" y="586"/>
      <point x="21" y="527"/>
      <point x="21" y="433" type="curve" smooth="yes"/>
      <point x="21" y="394"/>
      <point x="34" y="351"/>
      <point x="50" y="324" type="curve"/>
      <point x="210" y="379" type="line"/>
      <point x="203" y="391"/>
      <point x="199" y="405"/>
      <point x="199" y="417" type="curve" smooth="yes"/>
      <point x="199" y="437"/>
      <point x="212" y="451"/>
      <point x="238" y="451" type="curve" smooth="yes"/>
      <point x="261" y="451"/>
      <point x="272" y="441"/>
      <point x="272" y="424" type="curve" smooth="yes"/>
      <point x="272" y="403"/>
      <point x="262" y="388"/>
      <point x="207" y="357" type="curve" smooth="yes"/>
      <point x="72" y="281"/>
      <point x="48" y="230"/>
      <point x="48" y="157" type="curve" smooth="yes"/>
      <point x="48" y="59"/>
      <point x="112" y="-12"/>
      <point x="255" y="-12" type="curve" smooth="yes"/>
      <point x="335" y="-12"/>
      <point x="418" y="-2"/>
      <point x="510" y="99" type="curve"/>
      <point x="429" y="105" type="line"/>
      <point x="486" y="31"/>
      <point x="550" y="-12"/>
    </contour>
    <contour>
      <point x="545" y="240" type="line"/>
      <point x="766" y="240" type="line"/>
      <point x="825" y="246" type="line"/>
      <point x="855" y="242"/>
      <point x="905" y="240"/>
      <point x="922" y="240" type="curve" smooth="yes"/>
      <point x="931" y="240" type="line"/>
      <point x="931" y="365" type="line"/>
      <point x="835" y="365" type="line"/>
      <point x="843" y="375"/>
      <point x="845" y="390"/>
      <point x="845" y="399" type="curve" smooth="yes"/>
      <point x="845" y="425"/>
      <point x="837" y="443"/>
      <point x="824" y="460" type="curve"/>
      <point x="746" y="464" type="line"/>
      <point x="635" y="454" type="line"/>
      <point x="657" y="441"/>
      <point x="671" y="422"/>
      <point x="671" y="403" type="curve" smooth="yes"/>
      <point x="671" y="388"/>
      <point x="658" y="372"/>
      <point x="642" y="365" type="curve"/>
      <point x="545" y="365" type="line"/>
    </contour>
    <contour>
      <point x="545" y="418" type="line"/>
      <point x="685" y="418" type="line" smooth="yes"/>
      <point x="787" y="418"/>
      <point x="851" y="435"/>
      <point x="893" y="480" type="curve" smooth="yes"/>
      <point x="919" y="508"/>
      <point x="935" y="546"/>
      <point x="935" y="597" type="curve" smooth="yes"/>
      <point x="935" y="654"/>
      <point x="919" y="713"/>
      <point x="850" y="798" type="curve"/>
      <point x="710" y="715" type="line"/>
      <point x="742" y="678"/>
      <point x="754" y="652"/>
      <point x="754" y="623" type="curve" smooth="yes"/>
      <point x="754" y="606"/>
      <point x="749" y="594"/>
      <point x="738" y="587" type="curve" smooth="yes"/>
      <point x="723" y="577"/>
      <point x="700" y="574"/>
      <point x="642" y="574" type="curve" smooth="yes"/>
      <point x="545" y="574" type="line"/>
    </contour>
  </outline>
</glyph>
<glyph name="chaknda" format="2">
  <advance width="1001"/>
  <unicode hex="0C9B"/>
  <outline>
    <contour>
      <point x="294" y="-12" type="curve" smooth="yes"/>
      <point x="412" y="-12"/>
      <point x="478" y="16"/>
      <point x="557" y="118" type="curve"/>
      <point x="474" y="105" type="line"/>
      <point x="537" y="23"/>
      <point x="608" y="-12"/>
      <point x="708" y="-12" type="curve" smooth="yes"/>
      <point x="896" y="-12"/>
      <point x="967" y="86"/>
      <point x="967" y="218" type="curve" smooth="yes"/>
      <point x="967" y="374"/>
      <point x="857" y="479"/>
      <point x="695" y="542" type="curve"/>
      <point x="627" y="427" type="line"/>
      <point x="721" y="393"/>
      <point x="777" y="322"/>
      <point x="777" y="241" type="curve" smooth="yes"/>
      <point x="777" y="179"/>
      <point x="741" y="150"/>
      <point x="688" y="150" type="curve" smooth="yes"/>
      <point x="638" y="150"/>
      <point x="605" y="175"/>
      <point x="598" y="238" type="curve"/>
      <point x="430" y="238" type="line"/>
      <point x="419" y="180"/>
      <point x="381" y="150"/>
      <point x="321" y="150" type="curve" smooth="yes"/>
      <point x="245" y="150"/>
      <point x="214" y="206"/>
      <point x="214" y="290" type="curve" smooth="yes"/>
      <point x="214" y="411"/>
      <point x="257" y="456"/>
      <point x="301" y="456" type="curve" smooth="yes"/>
      <point x="325" y="456"/>
      <point x="339" y="442"/>
      <point x="339" y="418" type="curve" smooth="yes"/>
      <point x="339" y="385"/>
      <point x="313" y="368"/>
      <point x="270" y="368" type="curve" smooth="yes"/>
      <point x="217" y="368"/>
      <point x="175" y="413"/>
      <point x="160" y="440" type="curve"/>
      <point x="121" y="313" type="line"/>
      <point x="161" y="273"/>
      <point x="230" y="245"/>
      <point x="301" y="245" type="curve" smooth="yes"/>
      <point x="455" y="245"/>
      <point x="508" y="314"/>
      <point x="508" y="410" type="curve" smooth="yes"/>
      <point x="508" y="515"/>
      <point x="439" y="586"/>
      <point x="308" y="586" type="curve" smooth="yes"/>
      <point x="147" y="586"/>
      <point x="32" y="479"/>
      <point x="32" y="277" type="curve" smooth="yes"/>
      <point x="32" y="121"/>
      <point x="117" y="-12"/>
    </contour>
    <contour>
      <point x="417" y="-149" type="line"/>
      <point x="607" y="-149" type="line"/>
      <point x="594" y="3" type="line"/>
      <point x="430" y="3" type="line"/>
    </contour>
    <contour>
      <point x="574" y="418" type="line"/>
      <point x="717" y="418" type="line" smooth="yes"/>
      <point x="819" y="418"/>
      <point x="883" y="435"/>
      <point x="925" y="480" type="curve" smooth="yes"/>
      <point x="951" y="508"/>
      <point x="967" y="546"/>
      <point x="967" y="597" type="curve" smooth="yes"/>
      <point x="967" y="654"/>
      <point x="951" y="713"/>
      <point x="882" y="798" type="curve"/>
      <point x="742" y="715" type="line"/>
      <point x="774" y="678"/>
      <point x="786" y="652"/>
      <point x="786" y="623" type="curve" smooth="yes"/>
      <point x="786" y="606"/>
      <point x="781" y="594"/>
      <point x="770" y="587" type="curve" smooth="yes"/>
      <point x="755" y="577"/>
      <point x="732" y="574"/>
      <point x="674" y="574" type="curve" smooth="yes"/>
      <point x="574" y="574" type="line"/>
    </contour>
  </outline>
</glyph>
<glyph name="jaknda" format="2">
  <advance width="923"/>
  <unicode hex="0C9C"/>
  <outline>
    <contour>
      <point x="661" y="-12" type="curve" smooth="yes"/>
      <point x="817" y="-12"/>
      <point x="900" y="56"/>
      <point x="900" y="192" type="curve" smooth="yes"/>
      <point x="900" y="245"/>
      <point x="886" y="292"/>
      <point x="853" y="339" type="curve"/>
      <point x="693" y="266" type="line"/>
      <point x="703" y="250"/>
      <point x="710" y="230"/>
      <point x="710" y="208" type="curve" smooth="yes"/>
      <point x="710" y="174"/>
      <point x="687" y="150"/>
      <point x="644" y="150" type="curve" smooth="yes"/>
      <point x="589" y="150"/>
      <point x="563" y="176"/>
      <point x="557" y="238" type="curve"/>
      <point x="389" y="238" type="line"/>
      <point x="380" y="182"/>
      <point x="350" y="145"/>
      <point x="286" y="145" type="curve" smooth="yes"/>
      <point x="251" y="145"/>
      <point x="237" y="156"/>
      <point x="237" y="176" type="curve" smooth="yes"/>
      <point x="237" y="192"/>
      <point x="244" y="204"/>
      <point x="300" y="238" type="curve" smooth="yes"/>
      <point x="421" y="310"/>
      <point x="458" y="353"/>
      <point x="458" y="434" type="curve" smooth="yes"/>
      <point x="458" y="505"/>
      <point x="409" y="586"/>
      <point x="243" y="586" type="curve" smooth="yes"/>
      <point x="91" y="586"/>
      <point x="21" y="527"/>
      <point x="21" y="433" type="curve" smooth="yes"/>
      <point x="21" y="394"/>
      <point x="34" y="351"/>
      <point x="50" y="324" type="curve"/>
      <point x="210" y="379" type="line"/>
      <point x="203" y="391"/>
      <point x="199" y="405"/>
      <point x="199" y="417" type="curve" smooth="yes"/>
      <point x="199" y="437"/>
      <point x="212" y="451"/>
      <point x="238" y="451" type="curve" smooth="yes"/>
      <point x="261" y="451"/>
      <point x="272" y="441"/>
      <point x="272" y="424" type="curve" smooth="yes"/>
      <point x="272" y="403"/>
      <point x="262" y="388"/>
      <point x="207" y="357" type="curve" smooth="yes"/>
      <point x="72" y="281"/>
      <point x="48" y="230"/>
      <point x="48" y="157" type="curve" smooth="yes"/>
      <point x="48" y="59"/>
      <point x="112" y="-12"/>
      <point x="255" y="-12" type="curve" smooth="yes"/>
      <point x="335" y="-12"/>
      <point x="418" y="-2"/>
      <point x="510" y="99" type="curve"/>
      <point x="433" y="105" type="line"/>
      <point x="490" y="31"/>
      <point x="550" y="-12"/>
    </contour>
    <contour>
      <point x="608" y="300" type="curve" smooth="yes"/>
      <point x="760" y="300"/>
      <point x="836" y="379"/>
      <point x="836" y="480" type="curve" smooth="yes"/>
      <point x="836" y="521"/>
      <point x="825" y="558"/>
      <point x="812" y="586" type="curve"/>
      <point x="647" y="542" type="line"/>
      <point x="652" y="526"/>
      <point x="655" y="512"/>
      <point x="655" y="496" type="curve" smooth="yes"/>
      <point x="655" y="453"/>
      <point x="628" y="432"/>
      <point x="585" y="432" type="curve" smooth="yes"/>
      <point x="525" y="432"/>
      <point x="468" y="471"/>
      <point x="422" y="525" type="curve"/>
      <point x="352" y="482" type="line"/>
      <point x="371" y="411" type="line"/>
      <point x="416" y="351"/>
      <point x="486" y="300"/>
    </contour>
  </outline>
</glyph>
<glyph name="jhaknda" format="2">
  <advance width="1490"/>
  <unicode hex="0C9D"/>
  <outline>
    <contour>
      <point x="362" y="-12" type="curve" smooth="yes"/>
      <point x="578" y="-12"/>
      <point x="690" y="81"/>
      <point x="690" y="246" type="curve" smooth="yes"/>
      <point x="690" y="329"/>
      <point x="654" y="406"/>
      <point x="575" y="451" type="curve"/>
      <point x="546" y="427" type="line"/>
      <point x="594" y="437"/>
      <point x="627" y="457"/>
      <point x="648" y="480" type="curve" smooth="yes"/>
      <point x="674" y="508"/>
      <point x="690" y="546"/>
      <point x="690" y="597" type="curve" smooth="yes"/>
      <point x="690" y="654"/>
      <point x="674" y="713"/>
      <point x="605" y="798" type="curve"/>
      <point x="465" y="715" type="line"/>
      <point x="497" y="678"/>
      <point x="509" y="652"/>
      <point x="509" y="623" type="curve" smooth="yes"/>
      <point x="509" y="606"/>
      <point x="504" y="594"/>
      <point x="493" y="587" type="curve" smooth="yes"/>
      <point x="478" y="577"/>
      <point x="455" y="574"/>
      <point x="397" y="574" type="curve" smooth="yes"/>
      <point x="34" y="574" type="line"/>
      <point x="34" y="418" type="line"/>
      <point x="205" y="418" type="line"/>
      <point x="183" y="443" type="line"/>
      <point x="81" y="412"/>
      <point x="34" y="339"/>
      <point x="34" y="243" type="curve" smooth="yes"/>
      <point x="34" y="84"/>
      <point x="148" y="-12"/>
    </contour>
    <contour>
      <point x="363" y="152" type="curve" smooth="yes"/>
      <point x="277" y="152"/>
      <point x="225" y="194"/>
      <point x="225" y="281" type="curve" smooth="yes"/>
      <point x="225" y="357"/>
      <point x="270" y="418"/>
      <point x="363" y="418" type="curve" smooth="yes"/>
      <point x="449" y="418"/>
      <point x="499" y="362"/>
      <point x="499" y="281" type="curve" smooth="yes"/>
      <point x="499" y="203"/>
      <point x="455" y="152"/>
    </contour>
    <contour>
      <point x="912" y="-149" type="line"/>
      <point x="1102" y="-149" type="line"/>
      <point x="1089" y="3" type="line"/>
      <point x="925" y="3" type="line"/>
    </contour>
    <contour>
      <point x="815" y="-12" type="curve" smooth="yes"/>
      <point x="989" y="-12"/>
      <point x="1074" y="86"/>
      <point x="1074" y="245" type="curve" smooth="yes"/>
      <point x="1074" y="416"/>
      <point x="959" y="524"/>
      <point x="825" y="588" type="curve"/>
      <point x="726" y="429" type="line"/>
      <point x="809" y="383"/>
      <point x="883" y="336"/>
      <point x="883" y="246" type="curve" smooth="yes"/>
      <point x="883" y="183"/>
      <point x="846" y="151"/>
      <point x="788" y="151" type="curve" smooth="yes"/>
      <point x="718" y="151"/>
      <point x="675" y="187"/>
      <point x="623" y="246" type="curve"/>
      <point x="531" y="133" type="line"/>
      <point x="618" y="33"/>
      <point x="700" y="-12"/>
    </contour>
    <contour>
      <point x="1198" y="-12" type="curve" smooth="yes"/>
      <point x="1372" y="-12"/>
      <point x="1457" y="86"/>
      <point x="1457" y="245" type="curve" smooth="yes"/>
      <point x="1457" y="416"/>
      <point x="1342" y="524"/>
      <point x="1208" y="588" type="curve"/>
      <point x="1109" y="429" type="line"/>
      <point x="1192" y="383"/>
      <point x="1266" y="336"/>
      <point x="1266" y="246" type="curve" smooth="yes"/>
      <point x="1266" y="183"/>
      <point x="1229" y="151"/>
      <point x="1171" y="151" type="curve" smooth="yes"/>
      <point x="1101" y="151"/>
      <point x="1058" y="187"/>
      <point x="1006" y="246" type="curve"/>
      <point x="914" y="133" type="line"/>
      <point x="1001" y="33"/>
      <point x="1083" y="-12"/>
    </contour>
  </outline>
</glyph>
<glyph name="ttaknda" format="2">
  <advance width="978"/>
  <unicode hex="0C9F"/>
  <outline>
    <contour>
      <point x="295" y="-12" type="curve" smooth="yes"/>
      <point x="424" y="-12"/>
      <point x="488" y="21"/>
      <point x="562" y="118" type="curve"/>
      <point x="473" y="115" type="line"/>
      <point x="550" y="15"/>
      <point x="623" y="-12"/>
      <point x="722" y="-12" type="curve" smooth="yes"/>
      <point x="875" y="-12"/>
      <point x="949" y="63"/>
      <point x="949" y="182" type="curve" smooth="yes"/>
      <point x="949" y="270"/>
      <point x="898" y="345"/>
      <point x="790" y="373" type="curve"/>
      <point x="668" y="281" type="line"/>
      <point x="722" y="274"/>
      <point x="759" y="246"/>
      <point x="759" y="206" type="curve" smooth="yes"/>
      <point x="759" y="168"/>
      <point x="734" y="150"/>
      <point x="697" y="150" type="curve" smooth="yes"/>
      <point x="632" y="150"/>
      <point x="613" y="188"/>
      <point x="603" y="238" type="curve"/>
      <point x="435" y="238" type="line"/>
      <point x="424" y="184"/>
      <point x="395" y="147"/>
      <point x="321" y="147" type="curve" smooth="yes"/>
      <point x="251" y="147"/>
      <point x="212" y="177"/>
      <point x="212" y="245" type="curve" smooth="yes"/>
      <point x="212" y="262" type="line" smooth="yes"/>
      <point x="212" y="361"/>
      <point x="260" y="385"/>
      <point x="281" y="385" type="curve" smooth="yes"/>
      <point x="301" y="385"/>
      <point x="313" y="376"/>
      <point x="313" y="355" type="curve" smooth="yes"/>
      <point x="313" y="336"/>
      <point x="297" y="317"/>
      <point x="256" y="317" type="curve" smooth="yes"/>
      <point x="216" y="317"/>
      <point x="189" y="329"/>
      <point x="163" y="345" type="curve"/>
      <point x="153" y="235" type="line"/>
      <point x="182" y="213"/>
      <point x="231" y="196"/>
      <point x="278" y="196" type="curve" smooth="yes"/>
      <point x="417" y="196"/>
      <point x="474" y="268"/>
      <point x="474" y="353" type="curve" smooth="yes"/>
      <point x="474" y="458"/>
      <point x="395" y="511"/>
      <point x="293" y="511" type="curve" smooth="yes"/>
      <point x="129" y="511"/>
      <point x="31" y="404"/>
      <point x="31" y="247" type="curve" smooth="yes"/>
      <point x="31" y="81"/>
      <point x="140" y="-12"/>
    </contour>
    <contour>
      <point x="209" y="427" type="curve"/>
      <point x="339" y="490" type="line"/>
      <point x="310" y="499"/>
      <point x="292" y="509"/>
      <point x="292" y="526" type="curve" smooth="yes"/>
      <point x="292" y="539"/>
      <point x="306" y="552"/>
      <point x="352" y="555" type="curve"/>
      <point x="338" y="703" type="line"/>
      <point x="161" y="700"/>
      <point x="101" y="634"/>
      <point x="101" y="559" type="curve" smooth="yes"/>
      <point x="101" y="512"/>
      <point x="129" y="459"/>
    </contour>
    <contour>
      <point x="606" y="275" type="line"/>
      <point x="713" y="275" type="line" smooth="yes"/>
      <point x="735" y="275"/>
      <point x="773" y="282"/>
      <point x="797" y="291" type="curve" smooth="yes"/>
      <point x="890" y="327"/>
      <point x="935" y="389"/>
      <point x="935" y="463" type="curve" smooth="yes"/>
      <point x="935" y="563"/>
      <point x="872" y="643"/>
      <point x="720" y="681" type="curve"/>
      <point x="666" y="525" type="line"/>
      <point x="729" y="507"/>
      <point x="743" y="487"/>
      <point x="743" y="461" type="curve" smooth="yes"/>
      <point x="743" y="443"/>
      <point x="737" y="431"/>
      <point x="725" y="424" type="curve" smooth="yes"/>
      <point x="712" y="416"/>
      <point x="693" y="414"/>
      <point x="660" y="414" type="curve" smooth="yes"/>
      <point x="606" y="414" type="line"/>
    </contour>
  </outline>
</glyph>
<glyph name="tthaknda" format="2">
  <advance width="740"/>
  <unicode hex="0CA0"/>
  <outline>
    <contour>
      <point x="370" y="-12" type="curve" smooth="yes"/>
      <point x="586" y="-12"/>
      <point x="706" y="81"/>
      <point x="706" y="246" type="curve" smooth="yes"/>
      <point x="706" y="329"/>
      <point x="670" y="406"/>
      <point x="591" y="451" type="curve"/>
      <point x="562" y="427" type="line"/>
      <point x="610" y="437"/>
      <point x="643" y="457"/>
      <point x="664" y="480" type="curve" smooth="yes"/>
      <point x="690" y="508"/>
      <point x="706" y="546"/>
      <point x="706" y="597" type="curve" smooth="yes"/>
      <point x="706" y="654"/>
      <point x="690" y="713"/>
      <point x="621" y="798" type="curve"/>
      <point x="481" y="715" type="line"/>
      <point x="513" y="678"/>
      <point x="525" y="652"/>
      <point x="525" y="623" type="curve" smooth="yes"/>
      <point x="525" y="606"/>
      <point x="520" y="594"/>
      <point x="509" y="587" type="curve" smooth="yes"/>
      <point x="494" y="577"/>
      <point x="471" y="574"/>
      <point x="413" y="574" type="curve" smooth="yes"/>
      <point x="34" y="574" type="line"/>
      <point x="34" y="418" type="line"/>
      <point x="205" y="418" type="line"/>
      <point x="183" y="443" type="line"/>
      <point x="81" y="412"/>
      <point x="34" y="339"/>
      <point x="34" y="243" type="curve" smooth="yes"/>
      <point x="34" y="84"/>
      <point x="156" y="-12"/>
    </contour>
    <contour>
      <point x="371" y="152" type="curve" smooth="yes"/>
      <point x="283" y="152"/>
      <point x="225" y="194"/>
      <point x="225" y="281" type="curve" smooth="yes"/>
      <point x="225" y="357"/>
      <point x="276" y="418"/>
      <point x="371" y="418" type="curve" smooth="yes"/>
      <point x="458" y="418"/>
      <point x="515" y="362"/>
      <point x="515" y="281" type="curve" smooth="yes"/>
      <point x="515" y="203"/>
      <point x="465" y="152"/>
    </contour>
    <contour>
      <point x="370" y="206" type="curve" smooth="yes"/>
      <point x="422" y="206"/>
      <point x="454" y="237"/>
      <point x="454" y="285" type="curve" smooth="yes"/>
      <point x="454" y="336"/>
      <point x="422" y="366"/>
      <point x="370" y="366" type="curve" smooth="yes"/>
      <point x="320" y="366"/>
      <point x="286" y="337"/>
      <point x="286" y="285" type="curve" smooth="yes"/>
      <point x="286" y="237"/>
      <point x="317" y="206"/>
    </contour>
  </outline>
</glyph>
<glyph name="nnaknda" format="2">
  <advance width="1021"/>
  <unicode hex="0CA3"/>
  <outline>
    <contour>
      <point x="689" y="-12" type="curve" smooth="yes"/>
      <point x="912" y="-12"/>
      <point x="987" y="122"/>
      <point x="987" y="275" type="curve" smooth="yes"/>
      <point x="987" y="447"/>
      <point x="902" y="586"/>
      <point x="694" y="586" type="curve" smooth="yes"/>
      <point x="553" y="586"/>
      <point x="480" y="532"/>
      <point x="422" y="458" type="curve"/>
      <point x="501" y="466" type="line"/>
      <point x="442" y="538"/>
      <point x="376" y="586"/>
      <point x="264" y="586" type="curve" smooth="yes"/>
      <point x="116" y="586"/>
      <point x="36" y="505"/>
      <point x="36" y="410" type="curve" smooth="yes"/>
      <point x="36" y="324"/>
      <point x="82" y="270"/>
      <point x="183" y="235" type="curve"/>
      <point x="202" y="299" type="line"/>
      <point x="70" y="277"/>
      <point x="30" y="208"/>
      <point x="30" y="143" type="curve" smooth="yes"/>
      <point x="30" y="50"/>
      <point x="94" y="-12"/>
      <point x="246" y="-12" type="curve" smooth="yes"/>
      <point x="319" y="-12"/>
      <point x="383" y="8"/>
      <point x="445" y="47" type="curve"/>
      <point x="367" y="172" type="line"/>
      <point x="342" y="153"/>
      <point x="308" y="138"/>
      <point x="273" y="138" type="curve" smooth="yes"/>
      <point x="237" y="138"/>
      <point x="222" y="149"/>
      <point x="222" y="169" type="curve" smooth="yes"/>
      <point x="222" y="182"/>
      <point x="227" y="190"/>
      <point x="237" y="196" type="curve" smooth="yes"/>
      <point x="247" y="202"/>
      <point x="262" y="204"/>
      <point x="296" y="204" type="curve" smooth="yes"/>
      <point x="324" y="204" type="line"/>
      <point x="324" y="339" type="line"/>
      <point x="313" y="339" type="line" smooth="yes"/>
      <point x="273" y="339"/>
      <point x="257" y="342"/>
      <point x="244" y="351" type="curve" smooth="yes"/>
      <point x="234" y="358"/>
      <point x="228" y="368"/>
      <point x="228" y="384" type="curve" smooth="yes"/>
      <point x="228" y="407"/>
      <point x="246" y="425"/>
      <point x="287" y="425" type="curve" smooth="yes"/>
      <point x="348" y="425"/>
      <point x="375" y="387"/>
      <point x="379" y="341" type="curve"/>
      <point x="545" y="341" type="line"/>
      <point x="564" y="391"/>
      <point x="603" y="429"/>
      <point x="670" y="429" type="curve" smooth="yes"/>
      <point x="765" y="429"/>
      <point x="798" y="350"/>
      <point x="798" y="277" type="curve" smooth="yes"/>
      <point x="798" y="267" type="line" smooth="yes"/>
      <point x="798" y="180"/>
      <point x="760" y="128"/>
      <point x="679" y="128" type="curve" smooth="yes"/>
      <point x="620" y="128"/>
      <point x="608" y="150"/>
      <point x="608" y="170" type="curve" smooth="yes"/>
      <point x="608" y="186"/>
      <point x="618" y="197"/>
      <point x="631" y="197" type="curve" smooth="yes"/>
      <point x="645" y="197"/>
      <point x="651" y="187"/>
      <point x="651" y="176" type="curve" smooth="yes"/>
      <point x="651" y="170"/>
      <point x="650" y="165"/>
      <point x="649" y="162" type="curve"/>
      <point x="756" y="159" type="line"/>
      <point x="762" y="174"/>
      <point x="767" y="192"/>
      <point x="767" y="210" type="curve" smooth="yes"/>
      <point x="767" y="276"/>
      <point x="726" y="327"/>
      <point x="629" y="327" type="curve" smooth="yes"/>
      <point x="528" y="327"/>
      <point x="460" y="262"/>
      <point x="460" y="171" type="curve" smooth="yes"/>
      <point x="460" y="58"/>
      <point x="540" y="-12"/>
    </contour>
  </outline>
</glyph>
<glyph name="taknda" format="2">
  <advance width="741"/>
  <unicode hex="0CA4"/>
  <outline>
    <contour>
      <point x="383" y="-12" type="curve" smooth="yes"/>
      <point x="582" y="-12"/>
      <point x="710" y="52"/>
      <point x="710" y="200" type="curve" smooth="yes"/>
      <point x="710" y="279"/>
      <point x="666" y="353"/>
      <point x="564" y="382" type="curve" smooth="yes"/>
      <point x="556" y="384"/>
      <point x="562" y="344"/>
      <point x="553" y="347" type="curve"/>
      <point x="507" y="377"/>
      <point x="468" y="390"/>
      <point x="416" y="390" type="curve" smooth="yes"/>
      <point x="295" y="390"/>
      <point x="257" y="333"/>
      <point x="257" y="277" type="curve" smooth="yes"/>
      <point x="257" y="210"/>
      <point x="297" y="163"/>
      <point x="416" y="163" type="curve" smooth="yes"/>
      <point x="532" y="163"/>
      <point x="585" y="230"/>
      <point x="622" y="291" type="curve"/>
      <point x="657" y="311" type="line"/>
      <point x="659" y="317"/>
      <point x="660" y="325"/>
      <point x="660" y="332" type="curve" smooth="yes"/>
      <point x="660" y="394"/>
      <point x="623" y="445"/>
      <point x="556" y="490" type="curve"/>
      <point x="417" y="431" type="line"/>
      <point x="468" y="406"/>
      <point x="502" y="380"/>
      <point x="502" y="327" type="curve" smooth="yes"/>
      <point x="502" y="279"/>
      <point x="471" y="260"/>
      <point x="441" y="260" type="curve" smooth="yes"/>
      <point x="418" y="260"/>
      <point x="409" y="267"/>
      <point x="409" y="280" type="curve" smooth="yes"/>
      <point x="409" y="292"/>
      <point x="418" y="302"/>
      <point x="447" y="302" type="curve" smooth="yes"/>
      <point x="468" y="302"/>
      <point x="492" y="296"/>
      <point x="510" y="285" type="curve" smooth="yes"/>
      <point x="514" y="281"/>
      <point x="518" y="278"/>
      <point x="521" y="273" type="curve" smooth="yes"/>
      <point x="533" y="263"/>
      <point x="543" y="235"/>
      <point x="543" y="219" type="curve" smooth="yes"/>
      <point x="543" y="158"/>
      <point x="495" y="126"/>
      <point x="384" y="126" type="curve" smooth="yes"/>
      <point x="229" y="126"/>
      <point x="220" y="197"/>
      <point x="220" y="246" type="curve" smooth="yes"/>
      <point x="220" y="252"/>
      <point x="221" y="257"/>
      <point x="222" y="263" type="curve"/>
      <point x="39" y="285" type="line"/>
      <point x="34" y="261"/>
      <point x="32" y="240"/>
      <point x="32" y="223" type="curve" smooth="yes"/>
      <point x="32" y="88"/>
      <point x="112" y="-12"/>
    </contour>
    <contour>
      <point x="32" y="418" type="line"/>
      <point x="460" y="418" type="line" smooth="yes"/>
      <point x="562" y="418"/>
      <point x="626" y="435"/>
      <point x="668" y="480" type="curve" smooth="yes"/>
      <point x="694" y="508"/>
      <point x="710" y="546"/>
      <point x="710" y="597" type="curve" smooth="yes"/>
      <point x="710" y="654"/>
      <point x="694" y="713"/>
      <point x="625" y="798" type="curve"/>
      <point x="485" y="715" type="line"/>
      <point x="517" y="678"/>
      <point x="529" y="652"/>
      <point x="529" y="623" type="curve" smooth="yes"/>
      <point x="529" y="606"/>
      <point x="524" y="594"/>
      <point x="513" y="587" type="curve" smooth="yes"/>
      <point x="498" y="577"/>
      <point x="475" y="574"/>
      <point x="417" y="574" type="curve" smooth="yes"/>
      <point x="32" y="574" type="line"/>
    </contour>
  </outline>
</glyph>
<glyph name="thaknda" format="2">
  <advance width="863"/>
  <unicode hex="0CA5"/>
  <outline>
    <contour>
      <point x="238" y="-12" type="curve" smooth="yes"/>
      <point x="351" y="-12"/>
      <point x="397" y="19"/>
      <point x="482" y="112" type="curve"/>
      <point x="393" y="105" type="line"/>
      <point x="450" y="31"/>
      <point x="504" y="-12"/>
      <point x="622" y="-12" type="curve" smooth="yes"/>
      <point x="749" y="-12"/>
      <point x="829" y="69"/>
      <point x="829" y="209" type="curve" smooth="yes"/>
      <point x="829" y="318"/>
      <point x="785" y="402"/>
      <point x="693" y="453" type="curve"/>
      <point x="683" y="427" type="line"/>
      <point x="732" y="436"/>
      <point x="766" y="457"/>
      <point x="787" y="480" type="curve" smooth="yes"/>
      <point x="813" y="508"/>
      <point x="829" y="546"/>
      <point x="829" y="597" type="curve" smooth="yes"/>
      <point x="829" y="654"/>
      <point x="813" y="713"/>
      <point x="744" y="798" type="curve"/>
      <point x="604" y="715" type="line"/>
      <point x="636" y="678"/>
      <point x="648" y="652"/>
      <point x="648" y="623" type="curve" smooth="yes"/>
      <point x="648" y="606"/>
      <point x="643" y="594"/>
      <point x="632" y="587" type="curve" smooth="yes"/>
      <point x="617" y="577"/>
      <point x="594" y="574"/>
      <point x="536" y="574" type="curve" smooth="yes"/>
      <point x="34" y="574" type="line"/>
      <point x="34" y="418" type="line"/>
      <point x="202" y="418" type="line"/>
      <point x="188" y="454" type="line"/>
      <point x="87" y="402"/>
      <point x="34" y="321"/>
      <point x="34" y="208" type="curve" smooth="yes"/>
      <point x="34" y="69"/>
      <point x="112" y="-12"/>
    </contour>
    <contour>
      <point x="282" y="150" type="curve" smooth="yes"/>
      <point x="245" y="150"/>
      <point x="225" y="176"/>
      <point x="225" y="229" type="curve" smooth="yes"/>
      <point x="225" y="327"/>
      <point x="296" y="418"/>
      <point x="422" y="418" type="curve" smooth="yes"/>
      <point x="439" y="418" type="line" smooth="yes"/>
      <point x="573" y="418"/>
      <point x="639" y="322"/>
      <point x="639" y="233" type="curve" smooth="yes"/>
      <point x="639" y="175"/>
      <point x="619" y="150"/>
      <point x="582" y="150" type="curve" smooth="yes"/>
      <point x="550" y="150"/>
      <point x="525" y="172"/>
      <point x="517" y="223" type="curve"/>
      <point x="348" y="223" type="line"/>
      <point x="338" y="179"/>
      <point x="321" y="150"/>
    </contour>
    <contour>
      <point x="432" y="236" type="curve" smooth="yes"/>
      <point x="489" y="236"/>
      <point x="522" y="266"/>
      <point x="522" y="314" type="curve" smooth="yes"/>
      <point x="522" y="365"/>
      <point x="489" y="394"/>
      <point x="432" y="394" type="curve" smooth="yes"/>
      <point x="377" y="394"/>
      <point x="342" y="366"/>
      <point x="342" y="314" type="curve" smooth="yes"/>
      <point x="342" y="266"/>
      <point x="374" y="236"/>
    </contour>
    <contour>
      <point x="338" y="-149" type="line"/>
      <point x="528" y="-149" type="line"/>
      <point x="515" y="3" type="line"/>
      <point x="351" y="3" type="line"/>
    </contour>
  </outline>
</glyph>
<glyph name="daknda" format="2">
  <advance width="863"/>
  <unicode hex="0CA6"/>
  <outline>
    <contour>
      <point x="238" y="-12" type="curve" smooth="yes"/>
      <point x="351" y="-12"/>
      <point x="397" y="19"/>
      <point x="482" y="112" type="curve"/>
      <point x="393" y="105" type="line"/>
      <point x="450" y="31"/>
      <point x="504" y="-12"/>
      <point x="622" y="-12" type="curve" smooth="yes"/>
      <point x="749" y="-12"/>
      <point x="829" y="69"/>
      <point x="829" y="209" type="curve" smooth="yes"/>
      <point x="829" y="318"/>
      <point x="785" y="402"/>
      <point x="693" y="453" type="curve"/>
      <point x="683" y="427" type="line"/>
      <point x="732" y="436"/>
      <point x="766" y="457"/>
      <point x="787" y="480" type="curve" smooth="yes"/>
      <point x="813" y="508"/>
      <point x="829" y="546"/>
      <point x="829" y="597" type="curve" smooth="yes"/>
      <point x="829" y="654"/>
      <point x="813" y="713"/>
      <point x="744" y="798" type="curve"/>
      <point x="604" y="715" type="line"/>
      <point x="636" y="678"/>
      <point x="648" y="652"/>
      <point x="648" y="623" type="curve" smooth="yes"/>
      <point x="648" y="606"/>
      <point x="643" y="594"/>
      <point x="632" y="587" type="curve" smooth="yes"/>
      <point x="617" y="577"/>
      <point x="594" y="574"/>
      <point x="536" y="574" type="curve" smooth="yes"/>
      <point x="34" y="574" type="line"/>
      <point x="34" y="418" type="line"/>
      <point x="202" y="418" type="line"/>
      <point x="188" y="454" type="line"/>
      <point x="87" y="402"/>
      <point x="34" y="321"/>
      <point x="34" y="208" type="curve" smooth="yes"/>
      <point x="34" y="69"/>
      <point x="112" y="-12"/>
    </contour>
    <contour>
      <point x="282" y="150" type="curve" smooth="yes"/>
      <point x="245" y="150"/>
      <point x="225" y="176"/>
      <point x="225" y="229" type="curve" smooth="yes"/>
      <point x="225" y="327"/>
      <point x="296" y="418"/>
      <point x="422" y="418" type="curve" smooth="yes"/>
      <point x="439" y="418" type="line" smooth="yes"/>
      <point x="573" y="418"/>
      <point x="639" y="322"/>
      <point x="639" y="233" type="curve" smooth="yes"/>
      <point x="639" y="175"/>
      <point x="619" y="150"/>
      <point x="582" y="150" type="curve" smooth="yes"/>
      <point x="550" y="150"/>
      <point x="520" y="174"/>
      <point x="517" y="238" type="curve"/>
      <point x="348" y="238" type="line"/>
      <point x="344" y="182"/>
      <point x="321" y="150"/>
    </contour>
  </outline>
</glyph>
<glyph name="naknda" format="2">
  <advance width="810"/>
  <unicode hex="0CA8"/>
  <outline>
    <contour>
      <point x="557" y="-12" type="curve" smooth="yes"/>
      <point x="694" y="-12"/>
      <point x="777" y="59"/>
      <point x="777" y="195" type="curve" smooth="yes"/>
      <point x="777" y="311"/>
      <point x="711" y="389"/>
      <point x="628" y="449" type="curve"/>
      <point x="607" y="430" type="line"/>
      <point x="628" y="426" type="line"/>
      <point x="677" y="434"/>
      <point x="713" y="457"/>
      <point x="735" y="480" type="curve" smooth="yes"/>
      <point x="761" y="508"/>
      <point x="777" y="546"/>
      <point x="777" y="597" type="curve" smooth="yes"/>
      <point x="777" y="654"/>
      <point x="761" y="713"/>
      <point x="692" y="798" type="curve"/>
      <point x="552" y="715" type="line"/>
      <point x="584" y="678"/>
      <point x="596" y="652"/>
      <point x="596" y="623" type="curve" smooth="yes"/>
      <point x="596" y="606"/>
      <point x="591" y="594"/>
      <point x="580" y="587" type="curve" smooth="yes"/>
      <point x="565" y="577"/>
      <point x="542" y="574"/>
      <point x="484" y="574" type="curve" smooth="yes"/>
      <point x="33" y="574" type="line"/>
      <point x="33" y="418" type="line"/>
      <point x="430" y="418" type="line"/>
      <point x="523" y="368"/>
      <point x="586" y="284"/>
      <point x="586" y="215" type="curve" smooth="yes"/>
      <point x="586" y="167"/>
      <point x="567" y="150"/>
      <point x="543" y="150" type="curve" smooth="yes"/>
      <point x="511" y="150"/>
      <point x="494" y="164"/>
      <point x="442" y="215" type="curve" smooth="yes"/>
      <point x="372" y="284"/>
      <point x="313" y="318"/>
      <point x="230" y="318" type="curve" smooth="yes"/>
      <point x="90" y="318"/>
      <point x="30" y="240"/>
      <point x="30" y="132" type="curve" smooth="yes"/>
      <point x="30" y="79"/>
      <point x="50" y="20"/>
      <point x="83" y="-25" type="curve"/>
      <point x="257" y="35" type="line"/>
      <point x="234" y="68"/>
      <point x="221" y="96"/>
      <point x="221" y="123" type="curve" smooth="yes"/>
      <point x="221" y="142"/>
      <point x="229" y="156"/>
      <point x="247" y="156" type="curve" smooth="yes"/>
      <point x="263" y="156"/>
      <point x="274" y="147"/>
      <point x="317" y="104" type="curve" smooth="yes"/>
      <point x="390" y="30"/>
      <point x="446" y="-12"/>
    </contour>
  </outline>
</glyph>
<glyph name="paknda" format="2">
  <advance width="932"/>
  <unicode hex="0CAA"/>
  <outline>
    <contour>
      <point x="268" y="-12" type="curve" smooth="yes"/>
      <point x="400" y="-12"/>
      <point x="465" y="27"/>
      <point x="541" y="98" type="curve"/>
      <point x="461" y="105" type="line"/>
      <point x="518" y="31"/>
      <point x="573" y="-12"/>
      <point x="690" y="-12" type="curve" smooth="yes"/>
      <point x="808" y="-12"/>
      <point x="899" y="45"/>
      <point x="899" y="181" type="curve" smooth="yes"/>
      <point x="899" y="258"/>
      <point x="875" y="331"/>
      <point x="827" y="402" type="curve"/>
      <point x="660" y="334" type="line"/>
      <point x="683" y="299"/>
      <point x="708" y="251"/>
      <point x="708" y="205" type="curve" smooth="yes"/>
      <point x="708" y="173"/>
      <point x="697" y="150"/>
      <point x="658" y="150" type="curve" smooth="yes"/>
      <point x="617" y="150"/>
      <point x="590" y="171"/>
      <point x="585" y="233" type="curve"/>
      <point x="419" y="233" type="line"/>
      <point x="402" y="176"/>
      <point x="370" y="145"/>
      <point x="294" y="145" type="curve" smooth="yes"/>
      <point x="220" y="145"/>
      <point x="190" y="160"/>
      <point x="190" y="196" type="curve" smooth="yes"/>
      <point x="190" y="210"/>
      <point x="200" y="225"/>
      <point x="219" y="225" type="curve" smooth="yes"/>
      <point x="236" y="225"/>
      <point x="245" y="214"/>
      <point x="245" y="197" type="curve" smooth="yes"/>
      <point x="245" y="193"/>
      <point x="245" y="186"/>
      <point x="244" y="182" type="curve"/>
      <point x="367" y="176" type="line"/>
      <point x="375" y="191"/>
      <point x="380" y="217"/>
      <point x="380" y="239" type="curve" smooth="yes"/>
      <point x="380" y="308"/>
      <point x="335" y="357"/>
      <point x="223" y="357" type="curve" smooth="yes"/>
      <point x="109" y="357"/>
      <point x="31" y="293"/>
      <point x="31" y="183" type="curve" smooth="yes"/>
      <point x="31" y="65"/>
      <point x="110" y="-12"/>
    </contour>
    <contour>
      <point x="491" y="251" type="curve" smooth="yes"/>
      <point x="548" y="251"/>
      <point x="581" y="281"/>
      <point x="581" y="329" type="curve" smooth="yes"/>
      <point x="581" y="380"/>
      <point x="548" y="409"/>
      <point x="491" y="409" type="curve" smooth="yes"/>
      <point x="436" y="409"/>
      <point x="401" y="381"/>
      <point x="401" y="329" type="curve" smooth="yes"/>
      <point x="401" y="281"/>
      <point x="433" y="251"/>
    </contour>
    <contour>
      <point x="33" y="418" type="line"/>
      <point x="649" y="418" type="line" smooth="yes"/>
      <point x="751" y="418"/>
      <point x="815" y="435"/>
      <point x="857" y="480" type="curve" smooth="yes"/>
      <point x="883" y="508"/>
      <point x="899" y="546"/>
      <point x="899" y="597" type="curve" smooth="yes"/>
      <point x="899" y="654"/>
      <point x="883" y="713"/>
      <point x="814" y="798" type="curve"/>
      <point x="674" y="715" type="line"/>
      <point x="706" y="678"/>
      <point x="718" y="652"/>
      <point x="718" y="623" type="curve" smooth="yes"/>
      <point x="718" y="606"/>
      <point x="713" y="594"/>
      <point x="702" y="587" type="curve" smooth="yes"/>
      <point x="687" y="577"/>
      <point x="664" y="574"/>
      <point x="606" y="574" type="curve" smooth="yes"/>
      <point x="33" y="574" type="line"/>
    </contour>
  </outline>
</glyph>
<glyph name="baknda" format="2">
  <advance width="948"/>
  <unicode hex="0CAC"/>
  <outline>
    <contour>
      <point x="671" y="-12" type="curve" smooth="yes"/>
      <point x="826" y="-12"/>
      <point x="915" y="81"/>
      <point x="915" y="245" type="curve" smooth="yes"/>
      <point x="915" y="416"/>
      <point x="800" y="524"/>
      <point x="666" y="588" type="curve"/>
      <point x="567" y="429" type="line"/>
      <point x="650" y="383"/>
      <point x="724" y="336"/>
      <point x="724" y="246" type="curve" smooth="yes"/>
      <point x="724" y="179"/>
      <point x="691" y="150"/>
      <point x="644" y="150" type="curve" smooth="yes"/>
      <point x="591" y="150"/>
      <point x="563" y="176"/>
      <point x="557" y="238" type="curve"/>
      <point x="389" y="238" type="line"/>
      <point x="380" y="182"/>
      <point x="350" y="145"/>
      <point x="286" y="145" type="curve" smooth="yes"/>
      <point x="251" y="145"/>
      <point x="237" y="156"/>
      <point x="237" y="176" type="curve" smooth="yes"/>
      <point x="237" y="192"/>
      <point x="244" y="204"/>
      <point x="300" y="238" type="curve" smooth="yes"/>
      <point x="421" y="310"/>
      <point x="458" y="353"/>
      <point x="458" y="434" type="curve" smooth="yes"/>
      <point x="458" y="505"/>
      <point x="409" y="586"/>
      <point x="243" y="586" type="curve" smooth="yes"/>
      <point x="91" y="586"/>
      <point x="21" y="527"/>
      <point x="21" y="433" type="curve" smooth="yes"/>
      <point x="21" y="394"/>
      <point x="34" y="351"/>
      <point x="50" y="324" type="curve"/>
      <point x="210" y="379" type="line"/>
      <point x="203" y="391"/>
      <point x="199" y="405"/>
      <point x="199" y="417" type="curve" smooth="yes"/>
      <point x="199" y="437"/>
      <point x="212" y="451"/>
      <point x="238" y="451" type="curve" smooth="yes"/>
      <point x="261" y="451"/>
      <point x="272" y="441"/>
      <point x="272" y="424" type="curve" smooth="yes"/>
      <point x="272" y="403"/>
      <point x="262" y="388"/>
      <point x="207" y="357" type="curve" smooth="yes"/>
      <point x="72" y="281"/>
      <point x="48" y="230"/>
      <point x="48" y="157" type="curve" smooth="yes"/>
      <point x="48" y="59"/>
      <point x="112" y="-12"/>
      <point x="255" y="-12" type="curve" smooth="yes"/>
      <point x="335" y="-12"/>
      <point x="418" y="-2"/>
      <point x="510" y="99" type="curve"/>
      <point x="433" y="105" type="line"/>
      <point x="490" y="31"/>
      <point x="550" y="-12"/>
    </contour>
  </outline>
</glyph>
<glyph name="bhaknda" format="2">
  <advance width="960"/>
  <unicode hex="0CAD"/>
  <outline>
    <contour>
      <point x="255" y="-12" type="curve" smooth="yes"/>
      <point x="335" y="-12"/>
      <point x="418" y="-2"/>
      <point x="510" y="99" type="curve"/>
      <point x="433" y="105" type="line"/>
      <point x="496" y="23"/>
      <point x="567" y="-12"/>
      <point x="667" y="-12" type="curve" smooth="yes"/>
      <point x="855" y="-12"/>
      <point x="926" y="86"/>
      <point x="926" y="218" type="curve" smooth="yes"/>
      <point x="926" y="374"/>
      <point x="816" y="479"/>
      <point x="654" y="542" type="curve"/>
      <point x="586" y="427" type="line"/>
      <point x="680" y="393"/>
      <point x="736" y="322"/>
      <point x="736" y="241" type="curve" smooth="yes"/>
      <point x="736" y="179"/>
      <point x="700" y="150"/>
      <point x="647" y="150" type="curve" smooth="yes"/>
      <point x="597" y="150"/>
      <point x="564" y="175"/>
      <point x="557" y="238" type="curve"/>
      <point x="389" y="238" type="line"/>
      <point x="380" y="182"/>
      <point x="350" y="145"/>
      <point x="286" y="145" type="curve" smooth="yes"/>
      <point x="251" y="145"/>
      <point x="237" y="156"/>
      <point x="237" y="176" type="curve" smooth="yes"/>
      <point x="237" y="192"/>
      <point x="244" y="204"/>
      <point x="300" y="238" type="curve" smooth="yes"/>
      <point x="421" y="310"/>
      <point x="458" y="353"/>
      <point x="458" y="434" type="curve" smooth="yes"/>
      <point x="458" y="505"/>
      <point x="409" y="586"/>
      <point x="243" y="586" type="curve" smooth="yes"/>
      <point x="91" y="586"/>
      <point x="21" y="527"/>
      <point x="21" y="433" type="curve" smooth="yes"/>
      <point x="21" y="394"/>
      <point x="34" y="351"/>
      <point x="50" y="324" type="curve"/>
      <point x="210" y="379" type="line"/>
      <point x="203" y="391"/>
      <point x="199" y="405"/>
      <point x="199" y="417" type="curve" smooth="yes"/>
      <point x="199" y="437"/>
      <point x="212" y="451"/>
      <point x="238" y="451" type="curve" smooth="yes"/>
      <point x="261" y="451"/>
      <point x="272" y="441"/>
      <point x="272" y="424" type="curve" smooth="yes"/>
      <point x="272" y="403"/>
      <point x="262" y="388"/>
      <point x="207" y="357" type="curve" smooth="yes"/>
      <point x="72" y="281"/>
      <point x="48" y="230"/>
      <point x="48" y="157" type="curve" smooth="yes"/>
      <point x="48" y="59"/>
      <point x="112" y="-12"/>
    </contour>
    <contour>
      <point x="376" y="-149" type="line"/>
      <point x="566" y="-149" type="line"/>
      <point x="553" y="3" type="line"/>
      <point x="389" y="3" type="line"/>
    </contour>
    <contour>
      <point x="533" y="418" type="line"/>
      <point x="676" y="418" type="line" smooth="yes"/>
      <point x="778" y="418"/>
      <point x="842" y="435"/>
      <point x="884" y="480" type="curve" smooth="yes"/>
      <point x="910" y="508"/>
      <point x="926" y="546"/>
      <point x="926" y="597" type="curve" smooth="yes"/>
      <point x="926" y="654"/>
      <point x="910" y="713"/>
      <point x="841" y="798" type="curve"/>
      <point x="701" y="715" type="line"/>
      <point x="733" y="678"/>
      <point x="745" y="652"/>
      <point x="745" y="623" type="curve" smooth="yes"/>
      <point x="745" y="606"/>
      <point x="740" y="594"/>
      <point x="729" y="587" type="curve" smooth="yes"/>
      <point x="714" y="577"/>
      <point x="691" y="574"/>
      <point x="633" y="574" type="curve" smooth="yes"/>
      <point x="533" y="574" type="line"/>
    </contour>
  </outline>
</glyph>
<glyph name="raknda" format="2">
  <advance width="724"/>
  <unicode hex="0CB0"/>
  <outline>
    <contour>
      <point x="362" y="-12" type="curve" smooth="yes"/>
      <point x="578" y="-12"/>
      <point x="690" y="81"/>
      <point x="690" y="246" type="curve" smooth="yes"/>
      <point x="690" y="329"/>
      <point x="654" y="406"/>
      <point x="575" y="451" type="curve"/>
      <point x="546" y="427" type="line"/>
      <point x="594" y="437"/>
      <point x="627" y="457"/>
      <point x="648" y="480" type="curve" smooth="yes"/>
      <point x="674" y="508"/>
      <point x="690" y="546"/>
      <point x="690" y="597" type="curve" smooth="yes"/>
      <point x="690" y="654"/>
      <point x="674" y="713"/>
      <point x="605" y="798" type="curve"/>
      <point x="465" y="715" type="line"/>
      <point x="497" y="678"/>
      <point x="509" y="652"/>
      <point x="509" y="623" type="curve" smooth="yes"/>
      <point x="509" y="606"/>
      <point x="504" y="594"/>
      <point x="493" y="587" type="curve" smooth="yes"/>
      <point x="478" y="577"/>
      <point x="455" y="574"/>
      <point x="397" y="574" type="curve" smooth="yes"/>
      <point x="34" y="574" type="line"/>
      <point x="34" y="418" type="line"/>
      <point x="205" y="418" type="line"/>
      <point x="183" y="443" type="line"/>
      <point x="81" y="412"/>
      <point x="34" y="339"/>
      <point x="34" y="243" type="curve" smooth="yes"/>
      <point x="34" y="84"/>
      <point x="148" y="-12"/>
    </contour>
    <contour>
      <point x="363" y="152" type="curve" smooth="yes"/>
      <point x="277" y="152"/>
      <point x="225" y="194"/>
      <point x="225" y="281" type="curve" smooth="yes"/>
      <point x="225" y="357"/>
      <point x="270" y="418"/>
      <point x="363" y="418" type="curve" smooth="yes"/>
      <point x="449" y="418"/>
      <point x="499" y="362"/>
      <point x="499" y="281" type="curve" smooth="yes"/>
      <point x="499" y="203"/>
      <point x="455" y="152"/>
    </contour>
  </outline>
</glyph>
<glyph name="rraknda" format="2">
  <advance width="1059"/>
  <unicode hex="0CB1"/>
  <outline>
    <contour>
      <point x="301" y="-12" type="curve" smooth="yes"/>
      <point x="423" y="-12"/>
      <point x="491" y="16"/>
      <point x="572" y="118" type="curve"/>
      <point x="487" y="118" type="line"/>
      <point x="568" y="16"/>
      <point x="635" y="-12"/>
      <point x="755" y="-12" type="curve" smooth="yes"/>
      <point x="942" y="-12"/>
      <point x="1027" y="121"/>
      <point x="1027" y="277" type="curve" smooth="yes"/>
      <point x="1027" y="479"/>
      <point x="912" y="586"/>
      <point x="756" y="586" type="curve" smooth="yes"/>
      <point x="629" y="586"/>
      <point x="560" y="515"/>
      <point x="560" y="410" type="curve" smooth="yes"/>
      <point x="560" y="364"/>
      <point x="583" y="334"/>
      <point x="611" y="305" type="curve" smooth="yes"/>
      <point x="642" y="273"/>
      <point x="682" y="245"/>
      <point x="758" y="245" type="curve" smooth="yes"/>
      <point x="829" y="245"/>
      <point x="898" y="273"/>
      <point x="938" y="313" type="curve"/>
      <point x="899" y="440" type="line"/>
      <point x="884" y="413"/>
      <point x="842" y="368"/>
      <point x="789" y="368" type="curve" smooth="yes"/>
      <point x="746" y="368"/>
      <point x="720" y="385"/>
      <point x="720" y="418" type="curve" smooth="yes"/>
      <point x="720" y="442"/>
      <point x="734" y="456"/>
      <point x="758" y="456" type="curve" smooth="yes"/>
      <point x="802" y="456"/>
      <point x="845" y="411"/>
      <point x="845" y="286" type="curve" smooth="yes"/>
      <point x="845" y="205"/>
      <point x="812" y="150"/>
      <point x="731" y="150" type="curve" smooth="yes"/>
      <point x="667" y="150"/>
      <point x="636" y="176"/>
      <point x="615" y="222" type="curve"/>
      <point x="443" y="222" type="line"/>
      <point x="420" y="175"/>
      <point x="393" y="150"/>
      <point x="328" y="150" type="curve" smooth="yes"/>
      <point x="247" y="150"/>
      <point x="214" y="203"/>
      <point x="214" y="285" type="curve" smooth="yes"/>
      <point x="214" y="411"/>
      <point x="257" y="456"/>
      <point x="301" y="456" type="curve" smooth="yes"/>
      <point x="325" y="456"/>
      <point x="339" y="442"/>
      <point x="339" y="418" type="curve" smooth="yes"/>
      <point x="339" y="385"/>
      <point x="313" y="368"/>
      <point x="270" y="368" type="curve" smooth="yes"/>
      <point x="217" y="368"/>
      <point x="175" y="413"/>
      <point x="160" y="440" type="curve"/>
      <point x="121" y="313" type="line"/>
      <point x="161" y="273"/>
      <point x="230" y="245"/>
      <point x="301" y="245" type="curve" smooth="yes"/>
      <point x="378" y="245"/>
      <point x="419" y="275"/>
      <point x="450" y="307" type="curve" smooth="yes"/>
      <point x="478" y="336"/>
      <point x="499" y="365"/>
      <point x="499" y="410" type="curve" smooth="yes"/>
      <point x="499" y="515"/>
      <point x="430" y="586"/>
      <point x="303" y="586" type="curve" smooth="yes"/>
      <point x="147" y="586"/>
      <point x="32" y="479"/>
      <point x="32" y="277" type="curve" smooth="yes"/>
      <point x="32" y="121"/>
      <point x="119" y="-12"/>
    </contour>
    <contour>
      <point x="301" y="245" type="line"/>
      <point x="757" y="245" type="line"/>
      <point x="600" y="365" type="line"/>
      <point x="584" y="367"/>
      <point x="557" y="368"/>
      <point x="531" y="368" type="curve" smooth="yes"/>
      <point x="525" y="368" type="line" smooth="yes"/>
      <point x="503" y="368"/>
      <point x="482" y="366"/>
      <point x="452" y="362" type="curve"/>
    </contour>
  </outline>
</glyph>
<glyph name="laknda" format="2">
  <advance width="860"/>
  <unicode hex="0CB2"/>
  <outline>
    <contour>
      <point x="434" y="-12" type="curve" smooth="yes"/>
      <point x="715" y="-12"/>
      <point x="830" y="123"/>
      <point x="830" y="296" type="curve" smooth="yes"/>
      <point x="830" y="422"/>
      <point x="761" y="526"/>
      <point x="631" y="588" type="curve"/>
      <point x="532" y="429" type="line"/>
      <point x="606" y="393"/>
      <point x="638" y="357"/>
      <point x="638" y="296" type="curve" smooth="yes"/>
      <point x="638" y="199"/>
      <point x="551" y="152"/>
      <point x="433" y="152" type="curve" smooth="yes"/>
      <point x="274" y="152"/>
      <point x="203" y="227"/>
      <point x="203" y="326" type="curve" smooth="yes"/>
      <point x="203" y="415"/>
      <point x="240" y="456"/>
      <point x="281" y="456" type="curve" smooth="yes"/>
      <point x="306" y="456"/>
      <point x="320" y="442"/>
      <point x="320" y="418" type="curve" smooth="yes"/>
      <point x="320" y="385"/>
      <point x="296" y="368"/>
      <point x="249" y="368" type="curve" smooth="yes"/>
      <point x="188" y="368"/>
      <point x="149" y="418"/>
      <point x="134" y="445" type="curve"/>
      <point x="109" y="318" type="line"/>
      <point x="141" y="285"/>
      <point x="212" y="243"/>
      <point x="295" y="243" type="curve" smooth="yes"/>
      <point x="414" y="243"/>
      <point x="489" y="293"/>
      <point x="489" y="410" type="curve" smooth="yes"/>
      <point x="489" y="508"/>
      <point x="422" y="586"/>
      <point x="294" y="586" type="curve" smooth="yes"/>
      <point x="136" y="586"/>
      <point x="29" y="489"/>
      <point x="29" y="323" type="curve" smooth="yes"/>
      <point x="29" y="124"/>
      <point x="173" y="-12"/>
    </contour>
  </outline>
</glyph>
<glyph name="ssaknda" format="2">
  <advance width="965"/>
  <unicode hex="0CB7"/>
  <outline>
    <contour>
      <point x="268" y="-12" type="curve" smooth="yes"/>
      <point x="400" y="-12"/>
      <point x="465" y="27"/>
      <point x="541" y="98" type="curve"/>
      <point x="461" y="105" type="line"/>
      <point x="518" y="31"/>
      <point x="573" y="-12"/>
      <point x="699" y="-12" type="curve" smooth="yes"/>
      <point x="747" y="-12"/>
      <point x="791" y="4"/>
      <point x="827" y="20" type="curve" smooth="yes"/>
      <point x="898" y="51"/>
      <point x="932" y="98"/>
      <point x="932" y="181" type="curve" smooth="yes"/>
      <point x="932" y="258"/>
      <point x="908" y="331"/>
      <point x="860" y="402" type="curve"/>
      <point x="694" y="335" type="line"/>
      <point x="722" y="296"/>
      <point x="749" y="248"/>
      <point x="749" y="206" type="curve" smooth="yes"/>
      <point x="749" y="153"/>
      <point x="708" y="138"/>
      <point x="674" y="138" type="curve" smooth="yes"/>
      <point x="622" y="138"/>
      <point x="583" y="172"/>
      <point x="575" y="233" type="curve"/>
      <point x="419" y="233" type="line"/>
      <point x="402" y="176"/>
      <point x="370" y="145"/>
      <point x="294" y="145" type="curve" smooth="yes"/>
      <point x="220" y="145"/>
      <point x="190" y="160"/>
      <point x="190" y="196" type="curve" smooth="yes"/>
      <point x="190" y="210"/>
      <point x="200" y="225"/>
      <point x="219" y="225" type="curve" smooth="yes"/>
      <point x="236" y="225"/>
      <point x="245" y="214"/>
      <point x="245" y="197" type="curve" smooth="yes"/>
      <point x="245" y="193"/>
      <point x="245" y="186"/>
      <point x="244" y="182" type="curve"/>
      <point x="367" y="176" type="line"/>
      <point x="375" y="191"/>
      <point x="380" y="217"/>
      <point x="380" y="239" type="curve" smooth="yes"/>
      <point x="380" y="308"/>
      <point x="335" y="357"/>
      <point x="223" y="357" type="curve" smooth="yes"/>
      <point x="109" y="357"/>
      <point x="31" y="293"/>
      <point x="31" y="183" type="curve" smooth="yes"/>
      <point x="31" y="65"/>
      <point x="110" y="-12"/>
    </contour>
    <contour>
      <point x="491" y="251" type="curve" smooth="yes"/>
      <point x="548" y="251"/>
      <point x="581" y="281"/>
      <point x="581" y="329" type="curve" smooth="yes"/>
      <point x="581" y="380"/>
      <point x="548" y="409"/>
      <point x="491" y="409" type="curve" smooth="yes"/>
      <point x="436" y="409"/>
      <point x="401" y="381"/>
      <point x="401" y="329" type="curve" smooth="yes"/>
      <point x="401" y="281"/>
      <point x="433" y="251"/>
    </contour>
    <contour>
      <point x="779" y="-70" type="line"/>
      <point x="898" y="2" type="line"/>
      <point x="839" y="83" type="line"/>
      <point x="821" y="93" type="line"/>
      <point x="668" y="317" type="line"/>
      <point x="574" y="258" type="line"/>
      <point x="726" y="36" type="line"/>
      <point x="724" y="15" type="line"/>
    </contour>
    <contour>
      <point x="33" y="418" type="line"/>
      <point x="682" y="418" type="line" smooth="yes"/>
      <point x="784" y="418"/>
      <point x="848" y="435"/>
      <point x="890" y="480" type="curve" smooth="yes"/>
      <point x="916" y="508"/>
      <point x="932" y="546"/>
      <point x="932" y="597" type="curve" smooth="yes"/>
      <point x="932" y="654"/>
      <point x="916" y="713"/>
      <point x="847" y="798" type="curve"/>
      <point x="707" y="715" type="line"/>
      <point x="739" y="678"/>
      <point x="751" y="652"/>
      <point x="751" y="623" type="curve" smooth="yes"/>
      <point x="751" y="606"/>
      <point x="746" y="594"/>
      <point x="735" y="587" type="curve" smooth="yes"/>
      <point x="720" y="577"/>
      <point x="697" y="574"/>
      <point x="639" y="574" type="curve" smooth="yes"/>
      <point x="33" y="574" type="line"/>
    </contour>
  </outline>
</glyph>
<glyph name="saknda" format="2">
  <advance width="810"/>
  <unicode hex="0CB8"/>
  <outline>
    <contour>
      <point x="561" y="-12" type="curve" smooth="yes"/>
      <point x="695" y="-12"/>
      <point x="777" y="52"/>
      <point x="777" y="181" type="curve" smooth="yes"/>
      <point x="777" y="256"/>
      <point x="753" y="331"/>
      <point x="705" y="402" type="curve"/>
      <point x="538" y="334" type="line"/>
      <point x="561" y="299"/>
      <point x="586" y="249"/>
      <point x="586" y="202" type="curve" smooth="yes"/>
      <point x="586" y="169"/>
      <point x="572" y="150"/>
      <point x="543" y="150" type="curve" smooth="yes"/>
      <point x="505" y="150"/>
      <point x="487" y="165"/>
      <point x="432" y="218" type="curve" smooth="yes"/>
      <point x="356" y="292"/>
      <point x="304" y="318"/>
      <point x="230" y="318" type="curve" smooth="yes"/>
      <point x="90" y="318"/>
      <point x="30" y="240"/>
      <point x="30" y="132" type="curve" smooth="yes"/>
      <point x="30" y="79"/>
      <point x="50" y="20"/>
      <point x="83" y="-25" type="curve"/>
      <point x="257" y="35" type="line"/>
      <point x="234" y="68"/>
      <point x="221" y="96"/>
      <point x="221" y="123" type="curve" smooth="yes"/>
      <point x="221" y="142"/>
      <point x="229" y="156"/>
      <point x="247" y="156" type="curve" smooth="yes"/>
      <point x="263" y="156"/>
      <point x="274" y="147"/>
      <point x="317" y="104" type="curve" smooth="yes"/>
      <point x="390" y="31"/>
      <point x="444" y="-12"/>
    </contour>
    <contour>
      <point x="433" y="254" type="curve" smooth="yes"/>
      <point x="490" y="254"/>
      <point x="523" y="285"/>
      <point x="523" y="333" type="curve" smooth="yes"/>
      <point x="523" y="382"/>
      <point x="486" y="414"/>
      <point x="433" y="414" type="curve" smooth="yes"/>
      <point x="374" y="414"/>
      <point x="343" y="382"/>
      <point x="343" y="333" type="curve" smooth="yes"/>
      <point x="343" y="288"/>
      <point x="380" y="254"/>
    </contour>
    <contour>
      <point x="33" y="418" type="line"/>
      <point x="527" y="418" type="line" smooth="yes"/>
      <point x="629" y="418"/>
      <point x="693" y="435"/>
      <point x="735" y="480" type="curve" smooth="yes"/>
      <point x="761" y="508"/>
      <point x="777" y="546"/>
      <point x="777" y="597" type="curve" smooth="yes"/>
      <point x="777" y="654"/>
      <point x="761" y="713"/>
      <point x="692" y="798" type="curve"/>
      <point x="552" y="715" type="line"/>
      <point x="584" y="678"/>
      <point x="596" y="652"/>
      <point x="596" y="623" type="curve" smooth="yes"/>
      <point x="596" y="606"/>
      <point x="591" y="594"/>
      <point x="580" y="587" type="curve" smooth="yes"/>
      <point x="565" y="577"/>
      <point x="542" y="574"/>
      <point x="484" y="574" type="curve" smooth="yes"/>
      <point x="33" y="574" type="line"/>
    </contour>
  </outline>
</glyph>
<glyph name="haknda" format="2">
  <advance width="914"/>
  <unicode hex="0CB9"/>
  <outline>
    <contour>
      <point x="266" y="-12" type="curve" smooth="yes"/>
      <point x="390" y="-12"/>
      <point x="437" y="25"/>
      <point x="480" y="72" type="curve"/>
      <point x="433" y="70" type="line"/>
      <point x="478" y="21"/>
      <point x="536" y="-12"/>
      <point x="640" y="-12" type="curve" smooth="yes"/>
      <point x="809" y="-12"/>
      <point x="883" y="62"/>
      <point x="883" y="173" type="curve" smooth="yes"/>
      <point x="883" y="303"/>
      <point x="801" y="376"/>
      <point x="668" y="376" type="curve" smooth="yes"/>
      <point x="570" y="376"/>
      <point x="526" y="340"/>
      <point x="501" y="310" type="curve"/>
      <point x="525" y="268" type="line"/>
      <point x="535" y="294"/>
      <point x="540" y="314"/>
      <point x="540" y="335" type="curve" smooth="yes"/>
      <point x="540" y="394"/>
      <point x="492" y="441"/>
      <point x="454" y="453" type="curve"/>
      <point x="246" y="424" type="line"/>
      <point x="363" y="424"/>
      <point x="380" y="350"/>
      <point x="380" y="306" type="curve" smooth="yes"/>
      <point x="380" y="297"/>
      <point x="377" y="281"/>
      <point x="375" y="273" type="curve"/>
      <point x="422" y="292" type="line"/>
      <point x="393" y="333"/>
      <point x="350" y="376"/>
      <point x="256" y="376" type="curve" smooth="yes"/>
      <point x="110" y="376"/>
      <point x="31" y="297"/>
      <point x="31" y="183" type="curve" smooth="yes"/>
      <point x="31" y="62"/>
      <point x="111" y="-12"/>
    </contour>
    <contour>
      <point x="293" y="134" type="curve" smooth="yes"/>
      <point x="247" y="134"/>
      <point x="220" y="149"/>
      <point x="220" y="183" type="curve" smooth="yes"/>
      <point x="220" y="212"/>
      <point x="242" y="231"/>
      <point x="293" y="231" type="curve" smooth="yes"/>
      <point x="339" y="231"/>
      <point x="366" y="214"/>
      <point x="366" y="182" type="curve" smooth="yes"/>
      <point x="366" y="153"/>
      <point x="341" y="134"/>
    </contour>
    <contour>
      <point x="620" y="134" type="curve" smooth="yes"/>
      <point x="576" y="134"/>
      <point x="548" y="150"/>
      <point x="548" y="183" type="curve" smooth="yes"/>
      <point x="548" y="208"/>
      <point x="569" y="231"/>
      <point x="621" y="231" type="curve" smooth="yes"/>
      <point x="673" y="231"/>
      <point x="694" y="212"/>
      <point x="694" y="181" type="curve" smooth="yes"/>
      <point x="694" y="151"/>
      <point x="669" y="134"/>
    </contour>
    <contour>
      <point x="32" y="418" type="line"/>
      <point x="633" y="418" type="line" smooth="yes"/>
      <point x="735" y="418"/>
      <point x="799" y="435"/>
      <point x="841" y="480" type="curve" smooth="yes"/>
      <point x="867" y="508"/>
      <point x="883" y="546"/>
      <point x="883" y="597" type="curve" smooth="yes"/>
      <point x="883" y="654"/>
      <point x="867" y="713"/>
      <point x="798" y="798" type="curve"/>
      <point x="658" y="715" type="line"/>
      <point x="690" y="678"/>
      <point x="702" y="652"/>
      <point x="702" y="623" type="curve" smooth="yes"/>
      <point x="702" y="606"/>
      <point x="697" y="594"/>
      <point x="686" y="587" type="curve" smooth="yes"/>
      <point x="671" y="577"/>
      <point x="648" y="574"/>
      <point x="590" y="574" type="curve" smooth="yes"/>
      <point x="32" y="574" type="line"/>
    </contour>
  </outline>
</glyph>
<glyph name="nuktaknda" format="2">
  <unicode hex="0CBC"/>
  <outline>
    <contour>
      <point x="-155" y="-215" type="curve" smooth="yes"/>
      <point x="-95" y="-215"/>
      <point x="-60" y="-177"/>
      <point x="-60" y="-128" type="curve" smooth="yes"/>
      <point x="-60" y="-80"/>
      <point x="-98" y="-41"/>
      <point x="-155" y="-41" type="curve" smooth="yes"/>
      <point x="-214" y="-41"/>
      <point x="-249" y="-80"/>
      <point x="-249" y="-128" type="curve" smooth="yes"/>
      <point x="-249" y="-177"/>
      <point x="-219" y="-215"/>
    </contour>
    <contour>
      <point x="-406" y="-215" type="curve" smooth="yes"/>
      <point x="-345" y="-215"/>
      <point x="-310" y="-177"/>
      <point x="-310" y="-128" type="curve" smooth="yes"/>
      <point x="-310" y="-80"/>
      <point x="-348" y="-41"/>
      <point x="-406" y="-41" type="curve" smooth="yes"/>
      <point x="-464" y="-41"/>
      <point x="-501" y="-80"/>
      <point x="-501" y="-128" type="curve" smooth="yes"/>
      <point x="-501" y="-177"/>
      <point x="-469" y="-215"/>
    </contour>
  </outline>
</glyph>
<glyph name="avagrahaknda" format="2">
  <advance width="548"/>
  <unicode hex="0CBD"/>
  <outline>
    <contour>
      <point x="290" y="-12" type="curve" smooth="yes"/>
      <point x="446" y="-12"/>
      <point x="523" y="54"/>
      <point x="523" y="158" type="curve" smooth="yes"/>
      <point x="523" y="264"/>
      <point x="463" y="321"/>
      <point x="292" y="372" type="curve" smooth="yes"/>
      <point x="240" y="388"/>
      <point x="226" y="394"/>
      <point x="226" y="405" type="curve" smooth="yes"/>
      <point x="226" y="416"/>
      <point x="235" y="418"/>
      <point x="256" y="418" type="curve" smooth="yes"/>
      <point x="496" y="418" type="line"/>
      <point x="496" y="574" type="line"/>
      <point x="284" y="574" type="line" smooth="yes"/>
      <point x="182" y="574"/>
      <point x="139" y="563"/>
      <point x="98" y="539" type="curve" smooth="yes"/>
      <point x="57" y="515"/>
      <point x="34" y="477"/>
      <point x="34" y="420" type="curve" smooth="yes"/>
      <point x="34" y="335"/>
      <point x="84" y="280"/>
      <point x="237" y="233" type="curve" smooth="yes"/>
      <point x="317" y="208"/>
      <point x="332" y="199"/>
      <point x="332" y="178" type="curve" smooth="yes"/>
      <point x="332" y="160"/>
      <point x="316" y="148"/>
      <point x="283" y="148" type="curve" smooth="yes"/>
      <point x="225" y="148"/>
      <point x="206" y="182"/>
      <point x="196" y="226" type="curve"/>
      <point x="12" y="202" type="line"/>
      <point x="46" y="73"/>
      <point x="124" y="-12"/>
    </contour>
  </outline>
</glyph>
<glyph name="aavowelsignknda" format="2">
  <advance width="545"/>
  <unicode hex="0CBE"/>
  <outline>
    <contour>
      <point x="511" y="264" type="curve" smooth="yes"/>
      <point x="511" y="363"/>
      <point x="474" y="449"/>
      <point x="405" y="502" type="curve" smooth="yes"/>
      <point x="344" y="549"/>
      <point x="273" y="574"/>
      <point x="107" y="574" type="curve" smooth="yes"/>
      <point x="-280" y="574" type="line"/>
      <point x="-280" y="418" type="line"/>
      <point x="86" y="418" type="line" smooth="yes"/>
      <point x="197" y="418"/>
      <point x="237" y="403"/>
      <point x="274" y="374" type="curve" smooth="yes"/>
      <point x="306" y="350"/>
      <point x="324" y="309"/>
      <point x="324" y="257" type="curve" smooth="yes"/>
      <point x="324" y="184"/>
      <point x="287" y="135"/>
      <point x="213" y="135" type="curve" smooth="yes"/>
      <point x="158" y="135"/>
      <point x="140" y="168"/>
      <point x="140" y="196" type="curve" smooth="yes"/>
      <point x="140" y="204"/>
      <point x="140" y="212"/>
      <point x="143" y="227" type="curve"/>
      <point x="123" y="192" type="line"/>
      <point x="144" y="171"/>
      <point x="164" y="167"/>
      <point x="185" y="167" type="curve" smooth="yes"/>
      <point x="238" y="167"/>
      <point x="261" y="195"/>
      <point x="261" y="240" type="curve" smooth="yes"/>
      <point x="261" y="292"/>
      <point x="228" y="328"/>
      <point x="153" y="328" type="curve" smooth="yes"/>
      <point x="60" y="328"/>
      <point x="8" y="259"/>
      <point x="8" y="179" type="curve" smooth="yes"/>
      <point x="8" y="58"/>
      <point x="90" y="-12"/>
      <point x="240" y="-12" type="curve" smooth="yes"/>
      <point x="403" y="-12"/>
      <point x="511" y="93"/>
    </contour>
  </outline>
</glyph>
<glyph name="ivowelsignknda" format="2">
  <advance width="408"/>
  <unicode hex="0CBF"/>
  <outline>
    <contour>
      <point x="147" y="295" type="curve" smooth="yes"/>
      <point x="286" y="295"/>
      <point x="390" y="367"/>
      <point x="390" y="519" type="curve" smooth="yes"/>
      <point x="390" y="671"/>
      <point x="291" y="756"/>
      <point x="143" y="756" type="curve" smooth="yes"/>
      <point x="25" y="756"/>
      <point x="-48" y="699"/>
      <point x="-48" y="612" type="curve" smooth="yes"/>
      <point x="-48" y="531"/>
      <point x="13" y="478"/>
      <point x="131" y="478" type="curve" smooth="yes"/>
      <point x="208" y="478"/>
      <point x="255" y="514"/>
      <point x="297" y="551" type="curve"/>
      <point x="255" y="660" type="line"/>
      <point x="231" y="614"/>
      <point x="199" y="584"/>
      <point x="151" y="584" type="curve" smooth="yes"/>
      <point x="123" y="584"/>
      <point x="108" y="597"/>
      <point x="108" y="617" type="curve" smooth="yes"/>
      <point x="108" y="639"/>
      <point x="126" y="650"/>
      <point x="147" y="650" type="curve" smooth="yes"/>
      <point x="206" y="650"/>
      <point x="236" y="593"/>
      <point x="236" y="523" type="curve" smooth="yes"/>
      <point x="236" y="516" type="line" smooth="yes"/>
      <point x="236" y="450"/>
      <point x="186" y="427"/>
      <point x="126" y="427" type="curve" smooth="yes"/>
      <point x="51" y="427"/>
      <point x="-13" y="456"/>
      <point x="-85" y="536" type="curve"/>
      <point x="-162" y="456" type="line"/>
      <point x="-91" y="365"/>
      <point x="-1" y="295"/>
    </contour>
  </outline>
</glyph>
<glyph name="uvowelsignknda" format="2">
  <advance width="383"/>
  <unicode hex="0CC1"/>
  <outline>
    <contour>
      <point x="91" y="-12" type="curve" smooth="yes"/>
      <point x="265" y="-12"/>
      <point x="350" y="86"/>
      <point x="350" y="245" type="curve" smooth="yes"/>
      <point x="350" y="416"/>
      <point x="235" y="524"/>
      <point x="101" y="588" type="curve"/>
      <point x="2" y="429" type="line"/>
      <point x="85" y="383"/>
      <point x="159" y="336"/>
      <point x="159" y="246" type="curve" smooth="yes"/>
      <point x="159" y="183"/>
      <point x="122" y="151"/>
      <point x="64" y="151" type="curve" smooth="yes"/>
      <point x="-6" y="151"/>
      <point x="-49" y="187"/>
      <point x="-101" y="246" type="curve"/>
      <point x="-193" y="133" type="line"/>
      <point x="-106" y="33"/>
      <point x="-24" y="-12"/>
    </contour>
  </outline>
</glyph>
<glyph name="uuvowelsignknda" format="2">
  <advance width="876"/>
  <unicode hex="0CC2"/>
  <outline>
    <contour>
      <point x="75" y="-12" type="curve" smooth="yes"/>
      <point x="210" y="-12"/>
      <point x="294" y="41"/>
      <point x="294" y="177" type="curve" smooth="yes"/>
      <point x="294" y="219"/>
      <point x="292" y="252"/>
      <point x="292" y="285" type="curve" smooth="yes"/>
      <point x="292" y="385"/>
      <point x="352" y="426"/>
      <point x="456" y="426" type="curve" smooth="yes"/>
      <point x="584" y="426"/>
      <point x="657" y="351"/>
      <point x="657" y="253" type="curve" smooth="yes"/>
      <point x="657" y="181"/>
      <point x="620" y="135"/>
      <point x="548" y="135" type="curve" smooth="yes"/>
      <point x="491" y="135"/>
      <point x="473" y="168"/>
      <point x="473" y="196" type="curve" smooth="yes"/>
      <point x="473" y="204"/>
      <point x="473" y="212"/>
      <point x="476" y="227" type="curve"/>
      <point x="456" y="192" type="line"/>
      <point x="477" y="171"/>
      <point x="497" y="167"/>
      <point x="518" y="167" type="curve" smooth="yes"/>
      <point x="571" y="167"/>
      <point x="594" y="195"/>
      <point x="594" y="240" type="curve" smooth="yes"/>
      <point x="594" y="292"/>
      <point x="561" y="328"/>
      <point x="486" y="328" type="curve" smooth="yes"/>
      <point x="393" y="328"/>
      <point x="341" y="259"/>
      <point x="341" y="179" type="curve" smooth="yes"/>
      <point x="341" y="58"/>
      <point x="423" y="-12"/>
      <point x="573" y="-12" type="curve" smooth="yes"/>
      <point x="745" y="-12"/>
      <point x="844" y="97"/>
      <point x="844" y="258" type="curve" smooth="yes"/>
      <point x="844" y="420"/>
      <point x="734" y="586"/>
      <point x="448" y="586" type="curve" smooth="yes"/>
      <point x="256" y="586"/>
      <point x="104" y="505"/>
      <point x="104" y="322" type="curve" smooth="yes"/>
      <point x="104" y="281"/>
      <point x="109" y="248"/>
      <point x="109" y="211" type="curve" smooth="yes"/>
      <point x="109" y="162"/>
      <point x="81" y="150"/>
      <point x="46" y="150" type="curve" smooth="yes"/>
      <point x="-12" y="150"/>
      <point x="-53" y="186"/>
      <point x="-101" y="243" type="curve"/>
      <point x="-198" y="127" type="line"/>
      <point x="-119" y="38"/>
      <point x="-43" y="-12"/>
    </contour>
  </outline>
</glyph>
<glyph name="rvocalicvowelsignknda" format="2">
  <advance width="152"/>
  <unicode hex="0CC3"/>
  <outline>
    <contour>
      <point x="-97" y="-422" type="curve" smooth="yes"/>
      <point x="86" y="-422"/>
      <point x="177" y="-336"/>
      <point x="177" y="-152" type="curve" smooth="yes"/>
      <point x="177" y="-73"/>
      <point x="153" y="4"/>
      <point x="103" y="85" type="curve"/>
      <point x="2" y="41" type="line"/>
      <point x="41" y="-21"/>
      <point x="61" y="-85"/>
      <point x="61" y="-161" type="curve" smooth="yes"/>
      <point x="61" y="-294"/>
      <point x="-22" y="-318"/>
      <point x="-106" y="-318" type="curve" smooth="yes"/>
      <point x="-187" y="-318"/>
      <point x="-225" y="-283"/>
      <point x="-225" y="-233" type="curve" smooth="yes"/>
      <point x="-225" y="-223" type="line" smooth="yes"/>
      <point x="-225" y="-154"/>
      <point x="-190" y="-139"/>
      <point x="-165" y="-139" type="curve" smooth="yes"/>
      <point x="-142" y="-139"/>
      <point x="-132" y="-152"/>
      <point x="-132" y="-167" type="curve" smooth="yes"/>
      <point x="-132" y="-194"/>
      <point x="-155" y="-200"/>
      <point x="-183" y="-200" type="curve" smooth="yes"/>
      <point x="-205" y="-200"/>
      <point x="-225" y="-193"/>
      <point x="-244" y="-182" type="curve"/>
      <point x="-261" y="-262" type="line"/>
      <point x="-244" y="-273"/>
      <point x="-199" y="-287"/>
      <point x="-159" y="-287" type="curve" smooth="yes"/>
      <point x="-74" y="-287"/>
      <point x="-20" y="-256"/>
      <point x="-20" y="-169" type="curve" smooth="yes"/>
      <point x="-20" y="-114"/>
      <point x="-53" y="-48"/>
      <point x="-154" y="-48" type="curve" smooth="yes"/>
      <point x="-262" y="-48"/>
      <point x="-329" y="-120"/>
      <point x="-329" y="-227" type="curve" smooth="yes"/>
      <point x="-329" y="-340"/>
      <point x="-244" y="-422"/>
    </contour>
  </outline>
</glyph>
<glyph name="rrvocalicvowelsignknda" format="2">
  <advance width="525"/>
  <unicode hex="0CC4"/>
  <outline>
    <contour>
      <point x="-97" y="-422" type="curve" smooth="yes"/>
      <point x="86" y="-422"/>
      <point x="177" y="-336"/>
      <point x="177" y="-152" type="curve" smooth="yes"/>
      <point x="177" y="-101"/>
      <point x="166" y="-49"/>
      <point x="142" y="2" type="curve"/>
      <point x="69" y="82" type="line"/>
      <point x="17" y="16" type="line"/>
      <point x="46" y="-38"/>
      <point x="61" y="-95"/>
      <point x="61" y="-161" type="curve" smooth="yes"/>
      <point x="61" y="-294"/>
      <point x="-22" y="-318"/>
      <point x="-106" y="-318" type="curve" smooth="yes"/>
      <point x="-187" y="-318"/>
      <point x="-225" y="-283"/>
      <point x="-225" y="-233" type="curve" smooth="yes"/>
      <point x="-225" y="-223" type="line" smooth="yes"/>
      <point x="-225" y="-154"/>
      <point x="-190" y="-139"/>
      <point x="-165" y="-139" type="curve" smooth="yes"/>
      <point x="-142" y="-139"/>
      <point x="-132" y="-152"/>
      <point x="-132" y="-167" type="curve" smooth="yes"/>
      <point x="-132" y="-194"/>
      <point x="-155" y="-200"/>
      <point x="-183" y="-200" type="curve" smooth="yes"/>
      <point x="-205" y="-200"/>
      <point x="-225" y="-193"/>
      <point x="-244" y="-182" type="curve"/>
      <point x="-261" y="-262" type="line"/>
      <point x="-244" y="-273"/>
      <point x="-199" y="-287"/>
      <point x="-159" y="-287" type="curve" smooth="yes"/>
      <point x="-74" y="-287"/>
      <point x="-20" y="-256"/>
      <point x="-20" y="-169" type="curve" smooth="yes"/>
      <point x="-20" y="-114"/>
      <point x="-53" y="-48"/>
      <point x="-154" y="-48" type="curve" smooth="yes"/>
      <point x="-262" y="-48"/>
      <point x="-329" y="-120"/>
      <point x="-329" y="-227" type="curve" smooth="yes"/>
      <point x="-329" y="-340"/>
      <point x="-244" y="-422"/>
    </contour>
    <contour>
      <point x="373" y="-357" type="curve" smooth="yes"/>
      <point x="474" y="-357"/>
      <point x="564" y="-290"/>
      <point x="564" y="-157" type="curve" smooth="yes"/>
      <point x="564" y="-80"/>
      <point x="542" y="-20"/>
      <point x="498" y="20" type="curve" smooth="yes"/>
      <point x="453" y="61"/>
      <point x="392" y="82"/>
      <point x="274" y="82" type="curve" smooth="yes"/>
      <point x="69" y="82" type="line"/>
      <point x="135" y="-22" type="line"/>
      <point x="239" y="-22" type="line" smooth="yes"/>
      <point x="330" y="-22"/>
      <point x="369" y="-29"/>
      <point x="401" y="-52" type="curve" smooth="yes"/>
      <point x="431" y="-73"/>
      <point x="448" y="-106"/>
      <point x="448" y="-158" type="curve" smooth="yes"/>
      <point x="448" y="-212"/>
      <point x="423" y="-257"/>
      <point x="364" y="-257" type="curve" smooth="yes"/>
      <point x="321" y="-257"/>
      <point x="302" y="-235"/>
      <point x="302" y="-206" type="curve" smooth="yes"/>
      <point x="302" y="-199"/>
      <point x="302" y="-189"/>
      <point x="303" y="-179" type="curve"/>
      <point x="287" y="-203" type="line"/>
      <point x="301" y="-221"/>
      <point x="319" y="-226"/>
      <point x="337" y="-226" type="curve" smooth="yes"/>
      <point x="372" y="-226"/>
      <point x="391" y="-201"/>
      <point x="391" y="-166" type="curve" smooth="yes"/>
      <point x="391" y="-128"/>
      <point x="366" y="-101"/>
      <point x="311" y="-101" type="curve" smooth="yes"/>
      <point x="242" y="-101"/>
      <point x="202" y="-152"/>
      <point x="202" y="-212" type="curve" smooth="yes"/>
      <point x="202" y="-304"/>
      <point x="268" y="-357"/>
    </contour>
  </outline>
</glyph>
<glyph name="evowelsignknda" format="2">
  <unicode hex="0CC6"/>
  <outline>
    <contour>
      <point x="-509" y="418" type="line"/>
      <point x="-323" y="418" type="line" smooth="yes"/>
      <point x="-244" y="418"/>
      <point x="-161" y="423"/>
      <point x="-106" y="460" type="curve" smooth="yes"/>
      <point x="-64" y="488"/>
      <point x="-30" y="532"/>
      <point x="-30" y="614" type="curve" smooth="yes"/>
      <point x="-30" y="719"/>
      <point x="-105" y="809"/>
      <point x="-248" y="809" type="curve" smooth="yes"/>
      <point x="-383" y="809"/>
      <point x="-432" y="740"/>
      <point x="-432" y="680" type="curve" smooth="yes"/>
      <point x="-432" y="623"/>
      <point x="-402" y="592"/>
      <point x="-347" y="592" type="curve" smooth="yes"/>
      <point x="-293" y="592"/>
      <point x="-266" y="611"/>
      <point x="-266" y="651" type="curve" smooth="yes"/>
      <point x="-266" y="684"/>
      <point x="-294" y="702"/>
      <point x="-330" y="702" type="curve" smooth="yes"/>
      <point x="-345" y="702"/>
      <point x="-363" y="697"/>
      <point x="-374" y="682" type="curve"/>
      <point x="-309" y="617" type="line"/>
      <point x="-312" y="627"/>
      <point x="-312" y="636"/>
      <point x="-312" y="644" type="curve" smooth="yes"/>
      <point x="-312" y="677"/>
      <point x="-287" y="693"/>
      <point x="-260" y="693" type="curve" smooth="yes"/>
      <point x="-213" y="693"/>
      <point x="-198" y="667"/>
      <point x="-198" y="638" type="curve" smooth="yes"/>
      <point x="-198" y="618"/>
      <point x="-207" y="601"/>
      <point x="-223" y="591" type="curve" smooth="yes"/>
      <point x="-245" y="577"/>
      <point x="-275" y="574"/>
      <point x="-324" y="574" type="curve" smooth="yes"/>
      <point x="-509" y="574" type="line"/>
    </contour>
  </outline>
</glyph>
<glyph name="auvowelsignknda" format="2">
  <advance width="541"/>
  <unicode hex="0CCC"/>
  <outline>
    <contour>
      <point x="26" y="576" type="curve" smooth="yes"/>
      <point x="26" y="612"/>
      <point x="13" y="658"/>
      <point x="-8" y="690" type="curve"/>
      <point x="-183" y="678" type="line"/>
      <point x="-166" y="660"/>
      <point x="-148" y="634"/>
      <point x="-148" y="608" type="curve" smooth="yes"/>
      <point x="-148" y="597"/>
      <point x="-152" y="590"/>
      <point x="-158" y="585" type="curve" smooth="yes"/>
      <point x="-168" y="577"/>
      <point x="-180" y="574"/>
      <point x="-223" y="574" type="curve" smooth="yes"/>
      <point x="-270" y="574" type="line"/>
      <point x="-270" y="418" type="line"/>
      <point x="-187" y="418" type="line" smooth="yes"/>
      <point x="-108" y="418"/>
      <point x="-56" y="426"/>
      <point x="-14" y="470" type="curve" smooth="yes"/>
      <point x="7" y="492"/>
      <point x="26" y="529"/>
    </contour>
    <contour>
      <point x="517" y="483" type="curve" smooth="yes"/>
      <point x="517" y="582"/>
      <point x="479" y="668"/>
      <point x="410" y="721" type="curve" smooth="yes"/>
      <point x="349" y="768"/>
      <point x="279" y="792"/>
      <point x="118" y="792" type="curve" smooth="yes"/>
      <point x="-324" y="792" type="line"/>
      <point x="-324" y="638" type="line"/>
      <point x="90" y="638" type="line" smooth="yes"/>
      <point x="200" y="638"/>
      <point x="243" y="622"/>
      <point x="280" y="593" type="curve" smooth="yes"/>
      <point x="312" y="569"/>
      <point x="330" y="528"/>
      <point x="330" y="476" type="curve" smooth="yes"/>
      <point x="330" y="403"/>
      <point x="293" y="354"/>
      <point x="219" y="354" type="curve" smooth="yes"/>
      <point x="164" y="354"/>
      <point x="146" y="387"/>
      <point x="146" y="415" type="curve" smooth="yes"/>
      <point x="146" y="422"/>
      <point x="146" y="431"/>
      <point x="149" y="446" type="curve"/>
      <point x="129" y="411" type="line"/>
      <point x="150" y="390"/>
      <point x="170" y="386"/>
      <point x="191" y="386" type="curve" smooth="yes"/>
      <point x="244" y="386"/>
      <point x="267" y="414"/>
      <point x="267" y="459" type="curve" smooth="yes"/>
      <point x="267" y="511"/>
      <point x="234" y="547"/>
      <point x="159" y="547" type="curve" smooth="yes"/>
      <point x="66" y="547"/>
      <point x="14" y="478"/>
      <point x="14" y="398" type="curve" smooth="yes"/>
      <point x="14" y="277"/>
      <point x="96" y="207"/>
      <point x="246" y="207" type="curve" smooth="yes"/>
      <point x="409" y="207"/>
      <point x="517" y="312"/>
    </contour>
  </outline>
</glyph>
<glyph name="viramaknda" format="2">
  <advance width="395"/>
  <unicode hex="0CCD"/>
  <outline>
    <contour>
      <point x="202" y="228" type="curve" smooth="yes"/>
      <point x="305" y="228"/>
      <point x="378" y="288"/>
      <point x="378" y="396" type="curve" smooth="yes"/>
      <point x="378" y="453"/>
      <point x="356" y="494"/>
      <point x="322" y="523" type="curve" smooth="yes"/>
      <point x="278" y="559"/>
      <point x="224" y="574"/>
      <point x="144" y="574" type="curve" smooth="yes"/>
      <point x="-200" y="574" type="line"/>
      <point x="-200" y="418" type="line"/>
      <point x="155" y="418" type="line" smooth="yes"/>
      <point x="185" y="418"/>
      <point x="206" y="415"/>
      <point x="218" y="406" type="curve" smooth="yes"/>
      <point x="226" y="400"/>
      <point x="231" y="391"/>
      <point x="231" y="378" type="curve" smooth="yes"/>
      <point x="231" y="355"/>
      <point x="218" y="343"/>
      <point x="195" y="343" type="curve" smooth="yes"/>
      <point x="161" y="343"/>
      <point x="144" y="375"/>
      <point x="144" y="423" type="curve" smooth="yes"/>
      <point x="144" y="485" type="line" smooth="yes"/>
      <point x="144" y="563"/>
      <point x="176" y="614"/>
      <point x="247" y="614" type="curve" smooth="yes"/>
      <point x="285" y="614"/>
      <point x="311" y="606"/>
      <point x="341" y="589" type="curve"/>
      <point x="414" y="698" type="line"/>
      <point x="368" y="722"/>
      <point x="320" y="738"/>
      <point x="240" y="738" type="curve" smooth="yes"/>
      <point x="103" y="738"/>
      <point x="-7" y="650"/>
      <point x="-7" y="479" type="curve" smooth="yes"/>
      <point x="-7" y="448" type="line" smooth="yes"/>
      <point x="-7" y="302"/>
      <point x="73" y="228"/>
    </contour>
  </outline>
</glyph>
<glyph name="lengthmarkknda" format="2">
  <advance width="519"/>
  <unicode hex="0CD5"/>
  <outline>
    <contour>
      <point x="498" y="413" type="curve" smooth="yes"/>
      <point x="498" y="513"/>
      <point x="422" y="586"/>
      <point x="286" y="586" type="curve" smooth="yes"/>
      <point x="131" y="586"/>
      <point x="25" y="488"/>
      <point x="25" y="324" type="curve" smooth="yes"/>
      <point x="25" y="160"/>
      <point x="113" y="59"/>
      <point x="249" y="-12" type="curve"/>
      <point x="351" y="129" type="line"/>
      <point x="263" y="179"/>
      <point x="204" y="230"/>
      <point x="204" y="300" type="curve" smooth="yes"/>
      <point x="204" y="346" type="line" smooth="yes"/>
      <point x="204" y="416"/>
      <point x="241" y="456"/>
      <point x="281" y="456" type="curve" smooth="yes"/>
      <point x="306" y="456"/>
      <point x="320" y="442"/>
      <point x="320" y="418" type="curve" smooth="yes"/>
      <point x="320" y="385"/>
      <point x="296" y="368"/>
      <point x="249" y="368" type="curve" smooth="yes"/>
      <point x="188" y="368"/>
      <point x="149" y="418"/>
      <point x="134" y="445" type="curve"/>
      <point x="115" y="318" type="line"/>
      <point x="154" y="279"/>
      <point x="212" y="243"/>
      <point x="303" y="243" type="curve" smooth="yes"/>
      <point x="431" y="243"/>
      <point x="498" y="301"/>
    </contour>
  </outline>
</glyph>
<glyph name="ailengthmarkknda" format="2">
  <advance width="195"/>
  <unicode hex="0CD6"/>
  <outline>
    <contour>
      <point x="-90" y="-422" type="curve" smooth="yes"/>
      <point x="90" y="-422"/>
      <point x="184" y="-332"/>
      <point x="184" y="-194" type="curve" smooth="yes"/>
      <point x="184" y="-118"/>
      <point x="157" y="-58"/>
      <point x="121" y="-19" type="curve"/>
      <point x="132" y="-51" type="line"/>
      <point x="159" y="-31"/>
      <point x="179" y="7"/>
      <point x="179" y="57" type="curve" smooth="yes"/>
      <point x="179" y="120"/>
      <point x="149" y="161"/>
      <point x="86" y="214" type="curve"/>
      <point x="3" y="136" type="line"/>
      <point x="43" y="105"/>
      <point x="57" y="79"/>
      <point x="57" y="49" type="curve" smooth="yes"/>
      <point x="57" y="15"/>
      <point x="39" y="-7"/>
      <point x="-1" y="-39" type="curve"/>
      <point x="43" y="-80"/>
      <point x="68" y="-127"/>
      <point x="68" y="-190" type="curve" smooth="yes"/>
      <point x="68" y="-286"/>
      <point x="-20" y="-318"/>
      <point x="-93" y="-318" type="curve" smooth="yes"/>
      <point x="-191" y="-318"/>
      <point x="-225" y="-283"/>
      <point x="-225" y="-233" type="curve" smooth="yes"/>
      <point x="-225" y="-223" type="line" smooth="yes"/>
      <point x="-225" y="-154"/>
      <point x="-190" y="-139"/>
      <point x="-165" y="-139" type="curve" smooth="yes"/>
      <point x="-142" y="-139"/>
      <point x="-132" y="-152"/>
      <point x="-132" y="-167" type="curve" smooth="yes"/>
      <point x="-132" y="-194"/>
      <point x="-155" y="-200"/>
      <point x="-183" y="-200" type="curve" smooth="yes"/>
      <point x="-205" y="-200"/>
      <point x="-225" y="-193"/>
      <point x="-244" y="-182" type="curve"/>
      <point x="-261" y="-262" type="line"/>
      <point x="-244" y="-273"/>
      <point x="-199" y="-287"/>
      <point x="-166" y="-287" type="curve" smooth="yes"/>
      <point x="-74" y="-287"/>
      <point x="-20" y="-256"/>
      <point x="-20" y="-169" type="curve" smooth="yes"/>
      <point x="-20" y="-114"/>
      <point x="-53" y="-48"/>
      <point x="-154" y="-48" type="curve" smooth="yes"/>
      <point x="-262" y="-48"/>
      <point x="-329" y="-120"/>
      <point x="-329" y="-227" type="curve" smooth="yes"/>
      <point x="-329" y="-340"/>
      <point x="-246" y="-422"/>
    </contour>
  </outline>
</glyph>
<glyph name="faknda" format="2">
  <advance width="1029"/>
  <unicode hex="0CDE"/>
  <outline>
    <contour>
      <point x="294" y="-12" type="curve" smooth="yes"/>
      <point x="412" y="-12"/>
      <point x="478" y="16"/>
      <point x="557" y="118" type="curve"/>
      <point x="472" y="118" type="line"/>
      <point x="551" y="16"/>
      <point x="616" y="-12"/>
      <point x="733" y="-12" type="curve" smooth="yes"/>
      <point x="914" y="-12"/>
      <point x="997" y="121"/>
      <point x="997" y="277" type="curve" smooth="yes"/>
      <point x="997" y="479"/>
      <point x="882" y="586"/>
      <point x="726" y="586" type="curve" smooth="yes"/>
      <point x="599" y="586"/>
      <point x="530" y="515"/>
      <point x="530" y="410" type="curve" smooth="yes"/>
      <point x="530" y="314"/>
      <point x="583" y="245"/>
      <point x="728" y="245" type="curve" smooth="yes"/>
      <point x="799" y="245"/>
      <point x="868" y="273"/>
      <point x="908" y="313" type="curve"/>
      <point x="869" y="440" type="line"/>
      <point x="854" y="413"/>
      <point x="812" y="368"/>
      <point x="759" y="368" type="curve" smooth="yes"/>
      <point x="716" y="368"/>
      <point x="690" y="385"/>
      <point x="690" y="418" type="curve" smooth="yes"/>
      <point x="690" y="442"/>
      <point x="704" y="456"/>
      <point x="728" y="456" type="curve" smooth="yes"/>
      <point x="772" y="456"/>
      <point x="815" y="411"/>
      <point x="815" y="286" type="curve" smooth="yes"/>
      <point x="815" y="205"/>
      <point x="784" y="150"/>
      <point x="708" y="150" type="curve" smooth="yes"/>
      <point x="648" y="150"/>
      <point x="610" y="180"/>
      <point x="598" y="238" type="curve"/>
      <point x="430" y="238" type="line"/>
      <point x="419" y="180"/>
      <point x="381" y="150"/>
      <point x="321" y="150" type="curve" smooth="yes"/>
      <point x="245" y="150"/>
      <point x="214" y="203"/>
      <point x="214" y="285" type="curve" smooth="yes"/>
      <point x="214" y="411"/>
      <point x="257" y="456"/>
      <point x="301" y="456" type="curve" smooth="yes"/>
      <point x="325" y="456"/>
      <point x="339" y="442"/>
      <point x="339" y="418" type="curve" smooth="yes"/>
      <point x="339" y="385"/>
      <point x="313" y="368"/>
      <point x="270" y="368" type="curve" smooth="yes"/>
      <point x="217" y="368"/>
      <point x="175" y="413"/>
      <point x="160" y="440" type="curve"/>
      <point x="121" y="313" type="line"/>
      <point x="161" y="273"/>
      <point x="230" y="245"/>
      <point x="301" y="245" type="curve" smooth="yes"/>
      <point x="446" y="245"/>
      <point x="499" y="314"/>
      <point x="499" y="410" type="curve" smooth="yes"/>
      <point x="499" y="515"/>
      <point x="430" y="586"/>
      <point x="303" y="586" type="curve" smooth="yes"/>
      <point x="147" y="586"/>
      <point x="32" y="479"/>
      <point x="32" y="277" type="curve" smooth="yes"/>
      <point x="32" y="121"/>
      <point x="117" y="-12"/>
    </contour>
  </outline>
</glyph>
<glyph name="rrvocalicknda" format="2">
  <advance width="1860"/>
  <unicode hex="0CE0"/>
  <outline>
    <contour>
      <point x="247" y="-12" type="curve" smooth="yes"/>
      <point x="486" y="-12"/>
      <point x="563" y="120"/>
      <point x="563" y="287" type="curve" smooth="yes"/>
      <point x="563" y="434"/>
      <point x="469" y="586"/>
      <point x="240" y="586" type="curve" smooth="yes"/>
      <point x="90" y="586"/>
      <point x="22" y="518"/>
      <point x="22" y="437" type="curve" smooth="yes"/>
      <point x="22" y="328"/>
      <point x="112" y="291"/>
      <point x="199" y="291" type="curve" smooth="yes"/>
      <point x="298" y="291"/>
      <point x="363" y="332"/>
      <point x="363" y="415" type="curve" smooth="yes"/>
      <point x="363" y="431"/>
      <point x="358" y="455"/>
      <point x="342" y="477" type="curve"/>
      <point x="225" y="470" type="line"/>
      <point x="244" y="466"/>
      <point x="259" y="453"/>
      <point x="259" y="434" type="curve" smooth="yes"/>
      <point x="259" y="418"/>
      <point x="243" y="409"/>
      <point x="216" y="409" type="curve" smooth="yes"/>
      <point x="190" y="409"/>
      <point x="177" y="418"/>
      <point x="177" y="434" type="curve" smooth="yes"/>
      <point x="177" y="454"/>
      <point x="192" y="463"/>
      <point x="221" y="463" type="curve" smooth="yes"/>
      <point x="249" y="463"/>
      <point x="273" y="458"/>
      <point x="293" y="450" type="curve" smooth="yes"/>
      <point x="304" y="445"/>
      <point x="316" y="440"/>
      <point x="325" y="433" type="curve" smooth="yes"/>
      <point x="362" y="405"/>
      <point x="379" y="353"/>
      <point x="379" y="288" type="curve" smooth="yes"/>
      <point x="379" y="217"/>
      <point x="371" y="170"/>
      <point x="341" y="141" type="curve" smooth="yes"/>
      <point x="333" y="133"/>
      <point x="323" y="129"/>
      <point x="311" y="124" type="curve" smooth="yes"/>
      <point x="291" y="115"/>
      <point x="265" y="111"/>
      <point x="232" y="111" type="curve" smooth="yes"/>
      <point x="188" y="111"/>
      <point x="181" y="125"/>
      <point x="181" y="140" type="curve" smooth="yes"/>
      <point x="181" y="154"/>
      <point x="193" y="165"/>
      <point x="222" y="165" type="curve" smooth="yes"/>
      <point x="247" y="165"/>
      <point x="263" y="153"/>
      <point x="263" y="135" type="curve" smooth="yes"/>
      <point x="263" y="122"/>
      <point x="256" y="105"/>
      <point x="239" y="97" type="curve"/>
      <point x="345" y="96" type="line"/>
      <point x="360" y="117"/>
      <point x="367" y="141"/>
      <point x="367" y="159" type="curve" smooth="yes"/>
      <point x="367" y="245"/>
      <point x="299" y="283"/>
      <point x="201" y="283" type="curve" smooth="yes"/>
      <point x="108" y="283"/>
      <point x="26" y="239"/>
      <point x="26" y="143" type="curve" smooth="yes"/>
      <point x="26" y="50"/>
      <point x="104" y="-12"/>
    </contour>
    <contour>
      <point x="681" y="-12" type="curve" smooth="yes"/>
      <point x="882" y="-12"/>
      <point x="950" y="86"/>
      <point x="950" y="218" type="curve" smooth="yes"/>
      <point x="950" y="374"/>
      <point x="840" y="480"/>
      <point x="678" y="542" type="curve"/>
      <point x="610" y="427" type="line"/>
      <point x="704" y="393"/>
      <point x="760" y="322"/>
      <point x="760" y="241" type="curve" smooth="yes"/>
      <point x="760" y="179"/>
      <point x="724" y="150"/>
      <point x="661" y="150" type="curve" smooth="yes"/>
      <point x="602" y="150"/>
      <point x="562" y="181"/>
      <point x="518" y="247" type="curve"/>
      <point x="416" y="132" type="line"/>
      <point x="503" y="32"/>
      <point x="590" y="-12"/>
    </contour>
    <contour>
      <point x="567" y="418" type="line"/>
      <point x="700" y="418" type="line" smooth="yes"/>
      <point x="802" y="418"/>
      <point x="866" y="435"/>
      <point x="908" y="480" type="curve" smooth="yes"/>
      <point x="934" y="508"/>
      <point x="950" y="546"/>
      <point x="950" y="597" type="curve" smooth="yes"/>
      <point x="950" y="654"/>
      <point x="934" y="713"/>
      <point x="865" y="798" type="curve"/>
      <point x="725" y="715" type="line"/>
      <point x="757" y="678"/>
      <point x="769" y="652"/>
      <point x="769" y="623" type="curve" smooth="yes"/>
      <point x="769" y="606"/>
      <point x="764" y="594"/>
      <point x="753" y="587" type="curve" smooth="yes"/>
      <point x="738" y="577"/>
      <point x="715" y="574"/>
      <point x="657" y="574" type="curve" smooth="yes"/>
      <point x="567" y="574" type="line"/>
    </contour>
    <component base="uuvowelsignknda" xOffset="984"/>
  </outline>
</glyph>
<glyph name="llvocalicknda" format="2">
  <advance width="1572"/>
  <unicode hex="0CE1"/>
  <outline>
    <contour>
      <point x="560" y="-12" type="curve" smooth="yes"/>
      <point x="823" y="-12"/>
      <point x="998" y="92"/>
      <point x="998" y="317" type="curve" smooth="yes"/>
      <point x="998" y="370"/>
      <point x="988" y="428"/>
      <point x="961" y="486" type="curve"/>
      <point x="926" y="418" type="line"/>
      <point x="1113" y="418" type="line" smooth="yes"/>
      <point x="1224" y="418"/>
      <point x="1264" y="403"/>
      <point x="1301" y="374" type="curve" smooth="yes"/>
      <point x="1333" y="350"/>
      <point x="1351" y="309"/>
      <point x="1351" y="257" type="curve" smooth="yes"/>
      <point x="1351" y="184"/>
      <point x="1314" y="135"/>
      <point x="1240" y="135" type="curve" smooth="yes"/>
      <point x="1185" y="135"/>
      <point x="1167" y="168"/>
      <point x="1167" y="196" type="curve" smooth="yes"/>
      <point x="1167" y="204"/>
      <point x="1167" y="212"/>
      <point x="1170" y="227" type="curve"/>
      <point x="1150" y="192" type="line"/>
      <point x="1171" y="171"/>
      <point x="1191" y="167"/>
      <point x="1212" y="167" type="curve" smooth="yes"/>
      <point x="1265" y="167"/>
      <point x="1288" y="195"/>
      <point x="1288" y="240" type="curve" smooth="yes"/>
      <point x="1288" y="292"/>
      <point x="1255" y="328"/>
      <point x="1180" y="328" type="curve" smooth="yes"/>
      <point x="1087" y="328"/>
      <point x="1035" y="259"/>
      <point x="1035" y="179" type="curve" smooth="yes"/>
      <point x="1035" y="58"/>
      <point x="1117" y="-12"/>
      <point x="1267" y="-12" type="curve" smooth="yes"/>
      <point x="1430" y="-12"/>
      <point x="1538" y="93"/>
      <point x="1538" y="264" type="curve" smooth="yes"/>
      <point x="1538" y="363"/>
      <point x="1501" y="449"/>
      <point x="1432" y="502" type="curve" smooth="yes"/>
      <point x="1371" y="549"/>
      <point x="1300" y="574"/>
      <point x="1134" y="574" type="curve" smooth="yes"/>
      <point x="841" y="574" type="line"/>
      <point x="758" y="478" type="line"/>
      <point x="785" y="434"/>
      <point x="807" y="379"/>
      <point x="807" y="321" type="curve" smooth="yes"/>
      <point x="807" y="207"/>
      <point x="699" y="146"/>
      <point x="547" y="146" type="curve" smooth="yes"/>
      <point x="482" y="146"/>
      <point x="469" y="156"/>
      <point x="469" y="175" type="curve" smooth="yes"/>
      <point x="469" y="187"/>
      <point x="478" y="200"/>
      <point x="531" y="213" type="curve" smooth="yes"/>
      <point x="698" y="254"/>
      <point x="745" y="314"/>
      <point x="745" y="415" type="curve" smooth="yes"/>
      <point x="745" y="503"/>
      <point x="687" y="586"/>
      <point x="556" y="586" type="curve" smooth="yes"/>
      <point x="473" y="586"/>
      <point x="406" y="554"/>
      <point x="347" y="462" type="curve"/>
      <point x="421" y="461" type="line"/>
      <point x="378" y="556"/>
      <point x="300" y="586"/>
      <point x="220" y="586" type="curve" smooth="yes"/>
      <point x="109" y="586"/>
      <point x="21" y="530"/>
      <point x="21" y="417" type="curve" smooth="yes"/>
      <point x="21" y="376"/>
      <point x="31" y="340"/>
      <point x="44" y="308" type="curve"/>
      <point x="220" y="360" type="line"/>
      <point x="214" y="373"/>
      <point x="212" y="388"/>
      <point x="212" y="397" type="curve" smooth="yes"/>
      <point x="212" y="426"/>
      <point x="229" y="436"/>
      <point x="248" y="436" type="curve" smooth="yes"/>
      <point x="279" y="436"/>
      <point x="296" y="399"/>
      <point x="304" y="356" type="curve"/>
      <point x="470" y="356" type="line"/>
      <point x="479" y="397"/>
      <point x="500" y="427"/>
      <point x="538" y="427" type="curve" smooth="yes"/>
      <point x="561" y="427"/>
      <point x="570" y="416"/>
      <point x="570" y="400" type="curve" smooth="yes"/>
      <point x="570" y="378"/>
      <point x="547" y="364"/>
      <point x="491" y="349" type="curve" smooth="yes"/>
      <point x="337" y="307"/>
      <point x="276" y="258"/>
      <point x="276" y="168" type="curve" smooth="yes"/>
      <point x="276" y="46"/>
      <point x="377" y="-12"/>
    </contour>
  </outline>
</glyph>
